<svg xmlns="http://www.w3.org/2000/svg" viewBox="0 0 385.91 278.74"><defs><style>.a{fill:#25a9e0;}.b{fill:#fff;}.c{fill:#f1f1f2;}.d{fill:#d0d2d3;}.aa,.ab,.ac,.ad,.e,.f,.g,.h,.i,.l,.o,.p,.q,.r,.t,.v,.y{fill:none;}.e,.f,.g,.h{stroke:#231f20;}.aa,.ab,.ac,.ad,.e,.f,.g,.h,.i,.l,.o,.p,.q,.r,.t,.y{stroke-linecap:round;stroke-linejoin:round;}.aa,.ad,.e,.l,.q,.r,.t,.v,.y{stroke-width:2px;}.g{stroke-width:0.5px;}.h{stroke-width:3px;}.i{stroke:#000;}.j{fill:#231f20;}.k{fill:#a6a8ab;}.l{stroke:#6d6e70;}.m{fill:#faaf40;}.n{fill:#fee1b9;}.o,.r{stroke:#af6800;}.p,.q{stroke:#d1b088;}.s{fill:#cc9b46;}.t{stroke:#a87c4f;}.u{fill:#e6e7e8;}.ac,.ad,.v{stroke:#808184;}.v{stroke-miterlimit:10;}.w{fill:#716558;}.x{fill:#c1b49a;}.y{stroke:#493e34;}.z{fill:#dddfe8;}.aa,.ab{stroke:#58595b;}</style></defs><title>designer</title><rect class="a" width="385.73" height="195.54"/><polygon class="b" points="254.49 95 254.49 97.35 222.25 97.35 222.25 95 242.9 95 244.95 95 251.84 95 254.49 95"/><rect class="c" x="233.18" y="57.31" width="19.44" height="2.16"/><rect class="c" x="244.95" y="88.92" width="6.89" height="6.08"/><rect class="c" x="244.95" y="79.29" width="6.89" height="6.89"/><polygon class="d" points="251.84 67.96 251.84 77.43 238.2 72.69 251.84 67.96"/><polygon class="d" points="251.84 67.96 238.2 72.69 224.57 67.96 228.28 67.96 251.84 67.96"/><polygon class="d" points="251.84 77.43 242.9 77.43 224.57 77.43 238.2 72.69 251.84 77.43"/><polygon class="b" points="244.95 88.92 244.95 95 242.9 95 242.9 93.06 242.9 89.7 242.9 88.92 244.95 88.92"/><path class="b" d="M245.34,79.55v6.89h6.89V79.55Zm6.89-1.86V68.22H228.68V60.68h26.2V95.26h-2.65V89.18h-8.94V77.69Z" transform="translate(-0.39 -0.26)"/><polygon class="b" points="242.9 89.7 242.9 93.06 242.9 95 222.25 95 222.25 89.7 224.57 89.7 240.96 89.7 242.9 89.7"/><polygon class="d" points="238.2 72.69 224.57 77.43 224.57 67.96 238.2 72.69"/><rect class="b" x="229.87" y="57.31" width="2.16" height="2.16"/><rect class="c" x="224.57" y="62.48" width="3.72" height="3.72"/><polygon class="b" points="227.85 57.85 228.79 58.39 227.85 58.93 226.91 59.47 226.91 58.39 226.91 57.31 227.85 57.85"/><polygon class="b" points="225.66 58.39 225.66 59.47 224.72 58.93 223.78 58.39 224.72 57.85 225.66 57.31 225.66 58.39"/><path class="b" d="M226.05,59.73V57.57l-.94.54-.93.54.93.54Zm2.2-.54.94-.54-.94-.54-.94-.54v2.16Zm4.17.54V57.57h-2.16v2.16Zm20.59,0V57.57H233.57v2.16Zm1.87-3.5v4.45H222.64V56.23Z" transform="translate(-0.39 -0.26)"/><polygon class="b" points="242.9 79.29 242.9 88.92 242.9 89.7 240.96 89.7 224.57 89.7 222.25 89.7 222.25 60.42 228.28 60.42 228.28 62.48 224.57 62.48 224.57 66.19 228.28 66.19 228.28 67.96 224.57 67.96 224.57 77.43 242.9 77.43 242.9 79.29"/><polygon class="e" points="254.49 95 254.49 97.35 222.25 97.35 222.25 95 222.25 89.7 222.25 60.42 222.25 55.97 254.49 55.97 254.49 60.42 254.49 95"/><polyline class="f" points="244.95 95 242.9 95 222.25 95"/><line class="f" x1="254.49" y1="95" x2="251.84" y2="95"/><polyline class="f" points="222.25 60.42 228.28 60.42 254.49 60.42"/><polygon class="g" points="223.78 58.39 224.72 57.85 225.66 57.31 225.66 58.39 225.66 59.47 224.72 58.93 223.78 58.39"/><polygon class="g" points="228.79 58.39 227.85 58.93 226.91 59.47 226.91 58.39 226.91 57.31 227.85 57.85 228.79 58.39"/><rect class="g" x="229.87" y="57.31" width="2.16" height="2.16"/><rect class="g" x="233.18" y="57.31" width="19.44" height="2.16"/><rect class="f" x="224.57" y="62.48" width="3.72" height="3.72"/><polygon class="f" points="251.84 77.43 242.9 77.43 224.57 77.43 224.57 67.96 228.28 67.96 251.84 67.96 251.84 77.43"/><line class="e" x1="251.84" y1="64.34" x2="247.31" y2="64.34"/><line class="e" x1="244.79" y1="64.34" x2="240.27" y2="64.34"/><line class="e" x1="237.75" y1="64.34" x2="233.22" y2="64.34"/><polyline class="f" points="251.84 77.43 238.2 72.69 224.57 67.96"/><polyline class="f" points="251.84 67.96 238.2 72.69 224.57 77.43"/><polyline class="f" points="242.9 79.29 242.9 88.92 242.9 89.7 242.9 93.06"/><line class="h" x1="224.57" y1="80.31" x2="236.62" y2="80.31"/><line class="f" x1="224.57" y1="85.01" x2="236.62" y2="85.01"/><line class="f" x1="238.2" y1="85.01" x2="240.96" y2="85.01"/><line class="f" x1="224.57" y1="87.35" x2="229.87" y2="87.35"/><line class="f" x1="232.03" y1="87.35" x2="240.86" y2="87.35"/><line class="f" x1="224.57" y1="89.7" x2="240.96" y2="89.7"/><line class="f" x1="229.46" y1="92.05" x2="241.51" y2="92.05"/><line class="f" x1="225.07" y1="92.05" x2="227.82" y2="92.05"/><rect class="f" x="244.95" y="79.29" width="6.89" height="6.89"/><rect class="f" x="244.95" y="88.92" width="6.89" height="6.08"/><polygon class="b" points="252.45 144.57 252.3 146.91 220.12 144.76 220.28 142.41 240.89 143.79 242.93 143.93 249.81 144.39 252.45 144.57"/><rect class="c" x="242.64" y="97.81" width="2.17" height="19.44" transform="translate(119.77 343.27) rotate(-86.17)"/><rect class="d" x="243.92" y="137.94" width="6.07" height="6.9" transform="translate(89 378.1) rotate(-86.17)"/><rect class="d" x="244.13" y="128.74" width="6.9" height="6.9" transform="translate(98.76 370.12) rotate(-86.17)"/><polygon class="d" points="251.61 117.41 250.98 126.86 237.69 121.22 251.61 117.41"/><polygon class="d" points="251.61 117.41 237.69 121.22 224.4 115.58 228.11 115.83 251.61 117.41"/><polygon class="d" points="250.98 126.86 242.06 126.26 223.77 125.03 237.69 121.22 250.98 126.86"/><polygon class="b" points="243.33 137.87 242.93 143.93 240.89 143.79 241.02 141.87 241.24 138.51 241.29 137.73 243.33 137.87"/><path class="b" d="M244.37,128.51l-.46,6.89,6.88.46.46-6.89Zm7-1.39.63-9.46-23.5-1.57.12-1.75.25-3.72.14-2.05,26.15,1.75-2.31,34.51-2.65-.18.4-6.06-6.88-.46-2-.14.65-9.61.12-1.86Z" transform="translate(-0.39 -0.26)"/><polygon class="b" points="222.95 137.29 239.29 138.38 241.24 138.51 241.02 141.87 240.89 143.79 220.28 142.41 220.63 137.13 222.95 137.29"/><polygon class="d" points="237.69 121.22 223.77 125.03 224.4 115.58 237.69 121.22"/><rect class="b" x="230.71" y="105.64" width="2.17" height="2.17" transform="matrix(0.07, -1, 1, 0.07, 109.43, 330.62)"/><rect class="c" x="225.03" y="110.5" width="3.73" height="3.72" transform="translate(99.24 330.98) rotate(-86.17)"/><polygon class="b" points="228.35 105.72 229.25 106.32 228.28 106.81 227.31 107.28 227.38 106.2 227.46 105.12 228.35 105.72"/><polygon class="b" points="226.13 106.11 226.05 107.2 225.15 106.6 224.26 105.99 225.22 105.51 226.2 105.03 226.13 106.11"/><path class="b" d="M232.8,107.88l.15-2.16-2.17-.15-.14,2.17Zm20.55,1.38.15-2.17-19.41-1.29L234,108Zm-26.91-1.8.08-1.09.07-1.08-1,.48-1,.48.89.61Zm2.23-.4,1-.48-.9-.6-.89-.6-.08,1.08-.07,1.08Zm26.49,3.26L229,108.57l-6-.4.29-4.44,32.18,2.15Z" transform="translate(-0.39 -0.26)"/><polygon class="b" points="239.29 138.38 222.95 137.29 220.63 137.13 222.58 107.91 228.61 108.31 228.48 110.36 224.77 110.12 224.52 113.83 228.23 114.08 228.11 115.83 224.4 115.58 223.77 125.03 242.06 126.26 241.94 128.12 241.29 137.73 241.24 138.51 239.29 138.38"/><polygon class="e" points="252.45 144.57 252.3 146.91 220.12 144.76 220.28 142.41 220.63 137.13 222.58 107.91 222.88 103.47 255.06 105.63 254.76 110.06 252.45 144.57"/><polyline class="f" points="242.93 143.93 240.89 143.79 220.28 142.41"/><line class="f" x1="252.45" y1="144.57" x2="249.81" y2="144.39"/><polyline class="f" points="222.58 107.91 228.61 108.31 254.76 110.06"/><polygon class="g" points="224.26 105.99 225.22 105.51 226.2 105.03 226.13 106.11 226.05 107.2 225.15 106.6 224.26 105.99"/><polygon class="g" points="229.25 106.32 228.28 106.81 227.31 107.28 227.38 106.2 227.46 105.12 228.35 105.72 229.25 106.32"/><rect class="g" x="230.71" y="105.64" width="2.17" height="2.17" transform="translate(109.43 330.62) rotate(-86.17)"/><rect class="g" x="242.64" y="97.81" width="2.17" height="19.44" transform="translate(119.77 343.27) rotate(-86.17)"/><rect class="f" x="225.03" y="110.5" width="3.73" height="3.72" transform="translate(99.24 330.98) rotate(-86.17)"/><polygon class="f" points="250.98 126.86 242.06 126.26 223.77 125.03 224.4 115.58 228.11 115.83 251.61 117.41 250.98 126.86"/><line class="e" x1="251.85" y1="113.8" x2="247.34" y2="113.5"/><line class="e" x1="244.82" y1="113.33" x2="240.31" y2="113.02"/><line class="e" x1="237.79" y1="112.86" x2="233.28" y2="112.55"/><polyline class="f" points="250.98 126.86 237.69 121.22 224.4 115.58"/><polyline class="f" points="251.61 117.41 237.69 121.22 223.77 125.03"/><polyline class="f" points="241.94 128.12 241.29 137.73 241.24 138.51 241.02 141.87"/><line class="h" x1="223.58" y1="127.92" x2="235.6" y2="128.72"/><line class="f" x1="223.26" y1="132.6" x2="235.29" y2="133.41"/><line class="f" x1="236.87" y1="133.51" x2="239.61" y2="133.7"/><line class="f" x1="223.1" y1="134.95" x2="228.38" y2="135.3"/><line class="f" x1="230.55" y1="135.44" x2="239.35" y2="136.03"/><line class="f" x1="222.95" y1="137.29" x2="239.3" y2="138.38"/><line class="f" x1="227.67" y1="139.96" x2="239.7" y2="140.76"/><line class="f" x1="223.28" y1="139.67" x2="226.03" y2="139.85"/><rect class="f" x="244.13" y="128.74" width="6.9" height="6.9" transform="translate(98.76 370.12) rotate(-86.17)"/><rect class="f" x="243.92" y="137.94" width="6.07" height="6.9" transform="translate(89 378.1) rotate(-86.17)"/><rect class="b" x="262.96" y="142.75" width="32.24" height="2.35"/><rect class="c" x="273.88" y="105.06" width="19.44" height="2.16"/><polygon class="d" points="292.55 121.19 292.55 134.31 278.91 127.75 292.55 121.19"/><polygon class="d" points="292.55 121.19 278.91 127.75 265.27 121.19 292.55 121.19"/><polygon class="d" points="292.55 134.31 265.27 134.31 278.91 127.75 292.55 134.31"/><rect class="d" x="284.06" y="136.01" width="4.81" height="4.8"/><rect class="d" x="277.8" y="136.01" width="4.81" height="4.8"/><polygon class="d" points="278.91 127.75 265.27 134.31 265.27 121.19 278.91 127.75"/><rect class="d" x="271.53" y="136.01" width="4.81" height="4.8"/><rect class="b" x="270.57" y="105.06" width="2.16" height="2.16"/><rect class="d" x="265.27" y="136.01" width="4.81" height="4.8"/><rect class="c" x="265.27" y="110.23" width="3.72" height="3.72"/><polygon class="b" points="268.56 105.6 269.5 106.14 268.56 106.68 267.62 107.22 267.62 106.14 267.62 105.06 268.56 105.6"/><polygon class="b" points="266.37 106.14 266.37 107.22 265.43 106.68 264.49 106.14 265.43 105.6 266.37 105.06 266.37 106.14"/><path class="b" d="M266.76,107.48v-2.16l-.94.54-.94.54.94.54Zm2.19-.54.94-.54-.94-.54-.94-.54v2.16Zm4.17.54v-2.16H271v2.16Zm20.6,0v-2.16H274.27v2.16Zm1.87-3.5v4.45H263.35V104Z" transform="translate(-0.39 -0.26)"/><path class="b" d="M265.66,110.49v3.71h3.72v-3.71Zm4.81,30.58v-4.8h-4.81v4.8Zm6.26,0v-4.8h-4.8v4.8ZM295.59,143H263.35V108.43h32.24ZM283,141.07v-4.8h-4.81v4.8Zm1.45,0h4.81v-4.8h-4.81Zm-18.79-6.5h27.28V121.45H265.66Z" transform="translate(-0.39 -0.26)"/><polygon class="e" points="295.2 142.75 295.2 145.1 262.95 145.1 262.95 142.75 262.95 108.17 262.95 103.72 295.2 103.72 295.2 108.17 295.2 142.75"/><line class="f" x1="295.2" y1="142.75" x2="262.96" y2="142.75"/><line class="f" x1="262.96" y1="108.17" x2="295.2" y2="108.17"/><polygon class="g" points="264.49 106.14 265.43 105.6 266.37 105.06 266.37 106.14 266.37 107.22 265.43 106.68 264.49 106.14"/><polygon class="g" points="269.5 106.14 268.56 106.68 267.62 107.22 267.62 106.14 267.62 105.06 268.56 105.6 269.5 106.14"/><rect class="g" x="270.57" y="105.06" width="2.16" height="2.16"/><rect class="g" x="273.88" y="105.06" width="19.44" height="2.16"/><rect class="f" x="265.27" y="110.23" width="3.72" height="3.72"/><rect class="f" x="265.27" y="121.19" width="27.27" height="13.12"/><line class="e" x1="292.54" y1="112.09" x2="288.02" y2="112.09"/><line class="e" x1="285.5" y1="112.09" x2="280.98" y2="112.09"/><line class="e" x1="278.45" y1="112.09" x2="273.93" y2="112.09"/><polyline class="f" points="292.55 134.31 278.91 127.75 265.27 121.19"/><polyline class="f" points="292.55 121.19 278.91 127.75 265.27 134.31"/><line class="h" x1="265.27" y1="117.14" x2="277.33" y2="117.14"/><rect class="i" x="265.27" y="136.01" width="4.81" height="4.8"/><rect class="i" x="271.53" y="136.01" width="4.81" height="4.8"/><rect class="i" x="277.8" y="136.01" width="4.81" height="4.8"/><rect class="i" x="284.06" y="136.01" width="4.81" height="4.8"/><rect class="b" x="263.21" y="95.99" width="32.24" height="2.35" transform="translate(-6.76 20.47) rotate(-4.2)"/><rect class="c" x="271.36" y="58.06" width="19.44" height="2.17" transform="translate(-3.97 20.49) rotate(-4.2)"/><polygon class="d" points="291.45 83.39 292.15 92.83 278.2 89.11 291.45 83.39"/><polygon class="d" points="291.45 83.39 278.2 89.11 264.25 85.39 291.45 83.39"/><polygon class="d" points="292.15 92.83 264.95 94.83 278.2 89.11 292.15 92.83"/><polygon class="d" points="264.25 85.39 278.2 89.11 264.95 94.83 264.25 85.39"/><rect class="b" x="268.08" y="58.94" width="2.16" height="2.17" transform="translate(-4.07 19.62) rotate(-4.2)"/><rect class="c" x="263.23" y="64.43" width="3.72" height="3.72" transform="translate(-4.54 19.34) rotate(-4.2)"/><polygon class="b" points="265.65 59.46 266.62 59.93 265.73 60.53 264.83 61.14 264.75 60.06 264.67 58.98 265.65 59.46"/><polygon class="b" points="263.5 60.16 263.58 61.23 262.6 60.76 261.63 60.29 262.52 59.69 263.42 59.07 263.5 60.16"/><path class="b" d="M266.12,60.79l.89-.6-1-.47-1-.48.08,1.08.08,1.08Zm4.2.24-.16-2.17L268,59l.16,2.16Zm20.54-1.51-.16-2.17-19.39,1.43.16,2.16Zm-26.89,2-.08-1.07-.08-1.09-.89.62-.9.6,1,.47Zm28.82-1.16-32.15,2.36-.33-4.44,32.16-2.37Z" transform="translate(-0.39 -0.26)"/><path class="b" d="M260.64,62.69l32.15-2.36,2.54,34.48-32.16,2.36Zm2.46,1.88.27,3.71,3.71-.27-.27-3.71Zm2.24,30.52,27.2-2-.69-9.44-27.2,2Z" transform="translate(-0.39 -0.26)"/><polygon class="e" points="294.94 94.55 295.11 96.89 262.95 99.25 262.78 96.91 260.24 62.43 259.92 57.99 292.07 55.62 292.4 60.07 294.94 94.55"/><line class="f" x1="294.93" y1="94.55" x2="262.78" y2="96.91"/><line class="f" x1="260.24" y1="62.43" x2="292.4" y2="60.07"/><polygon class="g" points="261.63 60.29 262.52 59.69 263.42 59.07 263.5 60.16 263.58 61.23 262.6 60.76 261.63 60.29"/><polygon class="g" points="266.62 59.93 265.73 60.53 264.83 61.14 264.75 60.06 264.67 58.98 265.65 59.46 266.62 59.93"/><rect class="g" x="268.08" y="58.94" width="2.16" height="2.17" transform="matrix(1, -0.07, 0.07, 1, -4.07, 19.62)"/><rect class="g" x="271.36" y="58.06" width="19.44" height="2.17" transform="translate(-3.97 20.49) rotate(-4.2)"/><rect class="f" x="263.23" y="64.43" width="3.72" height="3.72" transform="translate(-4.54 19.34) rotate(-4.2)"/><rect class="f" x="264.96" y="84.64" width="27.27" height="9.46" transform="translate(-6.19 20.39) rotate(-4.2)"/><line class="e" x1="290.04" y1="64.16" x2="285.53" y2="64.5"/><line class="e" x1="283.02" y1="64.68" x2="278.5" y2="65.01"/><line class="e" x1="275.99" y1="65.2" x2="271.48" y2="65.53"/><polyline class="f" points="292.15 92.83 278.2 89.11 264.25 85.39"/><polyline class="f" points="291.45 83.39 278.2 89.11 264.95 94.83"/><line class="h" x1="263.21" y1="71.17" x2="282.53" y2="69.75"/><line class="f" x1="263.55" y1="75.85" x2="275.58" y2="74.97"/><line class="f" x1="277.15" y1="74.85" x2="279.9" y2="74.65"/><line class="f" x1="263.73" y1="78.19" x2="269.01" y2="77.8"/><line class="f" x1="271.17" y1="77.65" x2="279.96" y2="77"/><line class="f" x1="263.9" y1="80.53" x2="280.25" y2="79.33"/><line class="f" x1="268.95" y1="82.52" x2="280.97" y2="81.64"/><line class="f" x1="264.57" y1="82.84" x2="267.31" y2="82.64"/><rect class="b" x="314.83" y="82.63" width="2.35" height="32.24" transform="translate(200.17 408.79) rotate(-86.95)"/><rect class="c" x="321.46" y="51.54" width="2.17" height="19.44" transform="translate(243.79 379.83) rotate(-86.95)"/><polygon class="d" points="321.13 85.42 320.68 93.86 316.69 89.42 321.13 85.42"/><polygon class="d" points="321.67 75.26 321.22 83.69 317.23 79.26 321.67 75.26"/><polygon class="d" points="321.67 75.26 317.23 79.26 313.25 74.81 321.67 75.26"/><polygon class="d" points="317.23 79.26 321.22 83.69 312.8 83.25 317.23 79.26"/><polygon class="d" points="321.13 85.42 316.69 89.42 312.7 84.97 321.13 85.42"/><polygon class="d" points="316.69 89.42 320.68 93.86 312.25 93.41 316.69 89.42"/><polygon class="d" points="313.25 74.81 317.23 79.26 312.8 83.25 313.25 74.81"/><polygon class="d" points="312.7 84.97 316.69 89.42 312.25 93.41 312.7 84.97"/><polygon class="d" points="310.97 84.88 310.52 93.31 306.53 88.88 310.97 84.88"/><polygon class="d" points="311.51 74.72 311.06 83.15 307.07 78.72 311.51 74.72"/><polygon class="d" points="311.51 74.72 307.07 78.72 303.08 74.27 311.51 74.72"/><polygon class="d" points="307.07 78.72 311.06 83.15 302.63 82.7 307.07 78.72"/><polygon class="d" points="310.97 84.88 306.53 88.88 302.54 84.43 310.97 84.88"/><polygon class="d" points="306.53 88.88 310.52 93.31 302.09 92.86 306.53 88.88"/><rect class="b" x="309.52" y="59.55" width="2.17" height="2.17" transform="translate(233.12 367.3) rotate(-86.95)"/><polygon class="d" points="303.08 74.27 307.07 78.72 302.63 82.7 303.08 74.27"/><polygon class="d" points="302.54 84.43 306.53 88.88 302.09 92.86 302.54 84.43"/><rect class="c" x="303.91" y="64.47" width="3.73" height="3.72" transform="translate(222.86 367.87) rotate(-86.95)"/><polygon class="b" points="307.15 59.66 308.06 60.25 307.1 60.75 306.13 61.24 306.19 60.15 306.25 59.07 307.15 59.66"/><polygon class="b" points="304.93 60.09 304.87 61.17 303.97 60.58 303.06 59.98 304.03 59.5 304.99 59.01 304.93 60.09"/><path class="b" d="M305.26,61.43l.06-1.09.06-1.08-1,.49-1,.49.91.6Zm2.23-.42,1-.5-.9-.59-.91-.59-.06,1.08-.06,1.09Zm4.14.76.11-2.17-2.16-.11-.12,2.16Zm1.14.06,19.42,1,.12-2.17-19.42-1Zm-11,.36.24-4.44,32.2,1.71L334,63.9Z" transform="translate(-0.39 -0.26)"/><path class="b" d="M313.09,85.23l-.45,8.44,8.43.45.45-8.44ZM321.61,84l.45-8.43-8.42-.45-.45,8.43ZM304,64.37l-.2,3.72,3.71.2.2-3.73Zm6.89,29.2.45-8.43-8.43-.45-.45,8.43Zm.54-10.16L311.9,75l-8.43-.45L303,83ZM300,96.72l1.84-34.53L334,63.9l-1.84,34.54Z" transform="translate(-0.39 -0.26)"/><polygon class="e" points="331.78 98.18 331.65 100.53 299.45 98.81 299.58 96.46 301.42 61.93 301.66 57.49 333.86 59.2 333.62 63.65 331.78 98.18"/><line class="f" x1="331.78" y1="98.18" x2="299.58" y2="96.46"/><line class="f" x1="301.42" y1="61.93" x2="333.62" y2="63.65"/><polygon class="g" points="303.06 59.98 304.03 59.5 304.99 59.01 304.93 60.09 304.87 61.17 303.97 60.58 303.06 59.98"/><polygon class="g" points="308.06 60.25 307.1 60.75 306.13 61.24 306.19 60.15 306.25 59.07 307.15 59.66 308.06 60.25"/><rect class="g" x="309.52" y="59.55" width="2.17" height="2.17" transform="translate(233.12 367.3) rotate(-86.95)"/><rect class="g" x="321.46" y="51.54" width="2.17" height="19.44" transform="translate(243.79 379.83) rotate(-86.95)"/><rect class="f" x="303.91" y="64.47" width="3.73" height="3.72" transform="translate(222.86 367.87) rotate(-86.95)"/><rect class="f" x="303.24" y="74.75" width="8.45" height="8.44" transform="translate(211.83 381.53) rotate(-86.95)"/><line class="e" x1="330.76" y1="67.42" x2="326.24" y2="67.18"/><line class="e" x1="323.72" y1="67.04" x2="319.21" y2="66.8"/><line class="e" x1="316.69" y1="66.67" x2="312.17" y2="66.43"/><polyline class="f" points="311.06 83.15 307.07 78.72 303.08 74.27"/><polyline class="f" points="311.51 74.72 307.07 78.72 302.63 82.7"/><rect class="f" x="313.4" y="75.29" width="8.45" height="8.44" transform="translate(220.91 392.19) rotate(-86.95)"/><polyline class="f" points="321.22 83.69 317.23 79.26 313.25 74.81"/><polyline class="f" points="321.67 75.26 317.23 79.26 312.8 83.25"/><rect class="f" x="312.86" y="85.45" width="8.45" height="8.44" transform="translate(210.25 401.27) rotate(-86.95)"/><polyline class="f" points="320.68 93.86 316.69 89.42 312.7 84.97"/><polyline class="f" points="321.13 85.42 316.69 89.42 312.25 93.41"/><rect class="f" x="302.7" y="84.91" width="8.45" height="8.44" transform="translate(201.17 390.61) rotate(-86.95)"/><polyline class="f" points="310.52 93.31 306.53 88.88 302.54 84.43"/><polyline class="f" points="310.97 84.88 306.53 88.88 302.09 92.86"/><line class="h" x1="303.26" y1="70.98" x2="315.3" y2="71.62"/><path class="j" d="M268.31,199.65c1.33,1.81.09,3.29-2.74,3.29h-5.45c-2.83,0-6.24-1.48-7.56-3.29l-6.64-9.09-8.77-12c-1.33-1.81-.09-3.29,2.74-3.29h5.45c2.83,0,6.23,1.48,7.56,3.29Z" transform="translate(-0.39 -0.26)"/><path class="k" d="M245.92,190.56s2.17,41.83-23.74,41.83H170.35c-25.91,0-23.7-40.13-23.7-40.13l10-13.73c1.33-1.81.09-3.29-2.74-3.29h-5.45a9.59,9.59,0,0,0-1.82.18l10.64-30.85s1.68-5.63,18.56-5.63h40.44c16.81,0,18.49,5.63,18.49,5.63l9.28,26.93,1.28,3.74h-5.45c-2.83,0-4.07,1.48-2.74,3.29Z" transform="translate(-0.39 -0.26)"/><path class="k" d="M187.46,126.24H170.71c-5.12,0-6.08-6.24-6.08-6.24V105c0-6.4,6.39-7.63,6.39-7.63h6.51a21.49,21.49,0,0,0,5.91-3.09c2.88-2.15,4.76-4.79,10.61-4.79h4.42c5.85,0,9.2,2.64,12.08,4.79a21.11,21.11,0,0,0,6.65,3.09h4.3s6.4,1.23,6.4,7.63v15s-1,6.24-6.08,6.24H187.46Z" transform="translate(-0.39 -0.26)"/><path class="j" d="M153.92,175.24c2.83,0,4.07,1.48,2.74,3.29l-10,13.73-5.4,7.39c-1.32,1.81-4.73,3.29-7.56,3.29h-5.44c-2.84,0-4.08-1.48-2.75-3.29l15.41-21.12a9.85,9.85,0,0,1,5.74-3.11,9.59,9.59,0,0,1,1.82-.18Z" transform="translate(-0.39 -0.26)"/><path class="i" d="M196.56,247h-.46" transform="translate(-0.39 -0.26)"/><path class="l" d="M217.2,97.41a21.11,21.11,0,0,1-6.65-3.09c-2.88-2.15-6.23-4.79-12.08-4.79h-4.42c-5.85,0-7.73,2.64-10.61,4.79a21.49,21.49,0,0,1-5.91,3.09H171s-6.39,1.23-6.39,7.63v15s1,6.24,6.08,6.24h51.11c5.12,0,6.08-6.24,6.08-6.24V105c0-6.4-6.4-7.63-6.4-7.63h-4.3" transform="translate(-0.39 -0.26)"/><line class="l" x1="146.26" y1="175.16" x2="147.42" y2="171.78"/><path class="l" d="M245.34,175.24l-1.28-3.74-9.28-26.93s-1.68-5.61-18.49-5.63H175.85c-16.88,0-18.56,5.63-18.56,5.63l-10.64,30.85" transform="translate(-0.39 -0.26)"/><path class="l" d="M204.85,125.73s0,.18,0,.51c-.08,2.42-.17,12.7,4.15,12.7" transform="translate(-0.39 -0.26)"/><path class="l" d="M187.45,125.73s0,.18,0,.51c.09,2.42.17,12.7-4.15,12.7" transform="translate(-0.39 -0.26)"/><path class="e" d="M146.65,175.42a9.59,9.59,0,0,1,1.82-.18h5.45c2.83,0,4.07,1.48,2.74,3.29l-10,13.73" transform="translate(-0.39 -0.26)"/><path class="l" d="M146.65,192.26l-5.4,7.39c-1.32,1.81-4.73,3.29-7.56,3.29h-5.44c-2.84,0-4.08-1.48-2.75-3.29l15.41-21.12a9.85,9.85,0,0,1,5.74-3.11" transform="translate(-0.39 -0.26)"/><path class="e" d="M245.92,190.56l6.64,9.09c1.32,1.81,4.73,3.29,7.56,3.29h5.45c2.83,0,4.07-1.48,2.74-3.29L252.9,178.53c-1.33-1.81-4.73-3.29-7.56-3.29h-5.45c-2.83,0-4.07,1.48-2.74,3.29Z" transform="translate(-0.39 -0.26)"/><path class="l" d="M146.65,192.26s-2.21,40.13,23.7,40.13h25.92" transform="translate(-0.39 -0.26)"/><path class="l" d="M245.92,190.56s2.17,41.83-23.74,41.83H196.27" transform="translate(-0.39 -0.26)"/><path class="m" d="M166.73,182.9h0l-16.71-3-2.76-.49s2.41-13.36,3.48-22.43,8.81-10.42,8.81-10.42l25.22-3.26c-4.42,1.31-7.24,3.3-7.24,5.54,0,3.9,8.6,7.06,19.23,7.06S216,152.76,216,148.86c0-2.24-2.83-4.24-7.24-5.54l25.22,3.26s7.75,1.33,8.81,10.42,3.48,22.43,3.48,22.43l-3.85.68-15.62,2.79h0l2.32,36.59a109.86,109.86,0,0,1-32.31,5.34,110,110,0,0,1-32.33-5.34Z" transform="translate(-0.39 -0.26)"/><polygon class="n" points="241.99 179.86 240.41 219.23 228.66 219.23 226.34 182.64 226.37 182.64 241.99 179.86"/><path class="n" d="M196.74,141.78l12,1.54c4.41,1.3,7.24,3.3,7.24,5.54,0,3.9-8.61,7.06-19.22,7.06s-19.23-3.16-19.23-7.06c0-2.24,2.82-4.23,7.24-5.54Z" transform="translate(-0.39 -0.26)"/><polygon class="n" points="166.34 182.64 164.02 219.23 151.21 219.23 149.61 179.66 166.32 182.64 166.34 182.64"/><path class="o" d="M208.72,143.32c4.41,1.3,7.24,3.3,7.24,5.54,0,3.9-8.61,7.06-19.22,7.06s-19.23-3.16-19.23-7.06c0-2.24,2.82-4.23,7.24-5.54a47.41,47.41,0,0,1,24,0Z" transform="translate(-0.39 -0.26)"/><polyline class="o" points="167.5 164.49 166.34 182.64 164.02 219.23"/><polyline class="o" points="225.19 164.49 226.34 182.64 228.66 219.23"/><path class="p" d="M229.05,219.49a109.86,109.86,0,0,1-32.31,5.34" transform="translate(-0.39 -0.26)"/><polyline class="q" points="241.99 179.86 240.41 219.23 228.66 219.23"/><path class="p" d="M164.41,219.49a110,110,0,0,0,32.33,5.34" transform="translate(-0.39 -0.26)"/><polyline class="q" points="149.61 179.66 151.21 219.23 164.02 219.23"/><path class="r" d="M196.74,141.78l-12,1.54-25.22,3.26s-7.75,1.33-8.81,10.42-3.48,22.43-3.48,22.43l2.76.49,16.71,3" transform="translate(-0.39 -0.26)"/><path class="r" d="M196.74,141.78l12,1.54,25.22,3.26s7.75,1.33,8.81,10.42,3.48,22.43,3.48,22.43l-3.85.68-15.62,2.79" transform="translate(-0.39 -0.26)"/><path class="n" d="M204.58,111.84c-2.5-.07-4.58,1.37-4.63,3.22s1.94,3.4,4.45,3.47,4.59-1.38,4.64-3.23S207.09,111.9,204.58,111.84Zm-4,33.56c.27,1.8-.34,3.7-4.1,3.7-2.85,0-4.23-1.09-4.84-2.41-7.32.07-14.11-1.51-14.5-12.05s1.05-15,1.05-15h0a89.72,89.72,0,0,0,13.45-8.1A9.54,9.54,0,0,1,190,118a48.41,48.41,0,0,0,13-8h0c.25,0,6.61.3,6.74-1s-3.62-1.85-3.8-1.88a25.86,25.86,0,0,0,4.46-6.24c.57,6,3.9,10,5.48,11.91,1,1.2,2.08,5.21,2.61,9.94.67,6.12.34,13.43-2.61,17.3-5.23,6.85-15.18,5.37-15.18,5.37Zm-13.13-11.88c1.19,1,10.83,8.35,14.26-.1C201.7,133.42,194,138.58,187.44,133.52Z" transform="translate(-0.39 -0.26)"/><path class="s" d="M180.87,115.44l-8.49,3.44-4,1.61a37.88,37.88,0,0,0,3.54-4.15c-7.19-18.64-3.81-42.11,21.29-41.85,13.07.14,18.83,5.09,21.35,9.8,11.37,2.62,9.75,17.9,6.87,25.14a42.28,42.28,0,0,0-3,13.28c-.53-4.73-1.64-8.74-2.61-9.94-1.58-2-4.91-6-5.48-11.91a25.86,25.86,0,0,1-4.46,6.24h0a38.38,38.38,0,0,1-2.93,2.85h0a48.41,48.41,0,0,1-13,8,9.54,9.54,0,0,0,1.68-6.47,89.72,89.72,0,0,1-13.45,8.1C178.26,119.51,179.38,117.88,180.87,115.44Z" transform="translate(-0.39 -0.26)"/><path class="s" d="M205.87,107.1c.18,0,3.92.61,3.8,1.88s-6.49,1-6.74,1a38.38,38.38,0,0,0,2.93-2.85Z" transform="translate(-0.39 -0.26)"/><path class="j" d="M202.78,115.72a1.1,1.1,0,1,1-.06,2.1c-.79,0-1.42-.51-1.4-1.09S202,115.69,202.78,115.72Z" transform="translate(-0.39 -0.26)"/><path class="c" d="M202.72,117.82a1.1,1.1,0,1,0,.06-2.1c-.8,0-1.45.43-1.46,1S201.93,117.8,202.72,117.82Zm1.68.71c-2.51-.07-4.5-1.62-4.45-3.47s2.13-3.29,4.63-3.22,4.51,1.61,4.46,3.46S206.92,118.59,204.4,118.53Z" transform="translate(-0.39 -0.26)"/><path class="b" d="M201.7,133.42c-3.43,8.45-13.07,1.06-14.26.1C194,138.58,201.7,133.42,201.7,133.42Z" transform="translate(-0.39 -0.26)"/><path class="s" d="M172.38,118.88l8.49-3.44c-1.49,2.44-2.61,4.07-2.69,4.19h0s-1.44,4.46-1.05,15l-4.31,3C172.9,137.45,175,133.57,172.38,118.88Z" transform="translate(-0.39 -0.26)"/><path class="q" d="M191.5,142.18a7.1,7.1,0,0,0,.13,4.51c.61,1.32,2,2.41,4.84,2.41,3.76,0,4.37-1.9,4.1-3.7a9.83,9.83,0,0,0-1.23-3.22" transform="translate(-0.39 -0.26)"/><path class="t" d="M218.42,122.71c-.53-4.73-1.64-8.74-2.61-9.94-1.58-2-4.91-6-5.48-11.91a20.43,20.43,0,0,1,.91-8.11" transform="translate(-0.39 -0.26)"/><path class="q" d="M200.63,145.38s10,1.48,15.18-5.37c2.95-3.87,3.28-11.18,2.61-17.3" transform="translate(-0.39 -0.26)"/><path class="t" d="M190,118a9.54,9.54,0,0,0,1.68-6.47" transform="translate(-0.39 -0.26)"/><path class="t" d="M202.92,110a48.41,48.41,0,0,1-13,8h0" transform="translate(-0.39 -0.26)"/><path class="t" d="M205.86,107.1a38.38,38.38,0,0,1-2.93,2.85" transform="translate(-0.39 -0.26)"/><path class="t" d="M210.33,100.86a25.86,25.86,0,0,1-4.46,6.24" transform="translate(-0.39 -0.26)"/><path class="t" d="M178.18,119.64h0c.08-.12,1.2-1.75,2.69-4.19,3.92-6.38,10.45-18.22,8-22.69" transform="translate(-0.39 -0.26)"/><path class="t" d="M206,91.34a29.48,29.48,0,0,1-9,15.76,59,59,0,0,1-5.36,4.42h0a89.72,89.72,0,0,1-13.45,8.1" transform="translate(-0.39 -0.26)"/><path class="t" d="M168.38,120.49a37.88,37.88,0,0,0,3.54-4.15c3.1-4.15,7.14-11,7.31-18.88" transform="translate(-0.39 -0.26)"/><polyline class="t" points="180.48 115.18 171.99 118.62 167.99 120.23 167.99 120.24"/><path class="t" d="M218.42,122.71a42.28,42.28,0,0,1,3-13.28c2.88-7.24,4.5-22.52-6.87-25.14h0" transform="translate(-0.39 -0.26)"/><path class="t" d="M216.47,92.75a16.18,16.18,0,0,0-1.91-8.46c-2.52-4.71-8.28-9.66-21.35-9.8-25.1-.26-28.48,23.21-21.29,41.85" transform="translate(-0.39 -0.26)"/><path class="t" d="M172.82,137.6c.08-.15,2.21-4-.44-18.72" transform="translate(-0.39 -0.26)"/><polyline class="t" points="176.74 134.38 172.43 137.34 172.43 137.34"/><path class="q" d="M178.18,119.64s-1.44,4.46-1.05,15,7.18,12.12,14.5,12.05" transform="translate(-0.39 -0.26)"/><path class="q" d="M193.3,122.3s-2.55,6,2.54,6,4.06-6,4.06-6" transform="translate(-0.39 -0.26)"/><path class="t" d="M202.92,110h0c.25,0,6.61.3,6.74-1s-3.62-1.85-3.8-1.88h0" transform="translate(-0.39 -0.26)"/><path class="p" d="M187.44,133.52c1.19,1,10.83,8.35,14.26-.1C201.7,133.42,194,138.58,187.44,133.52Z" transform="translate(-0.39 -0.26)"/><path class="p" d="M187.44,133.52l-.06-.06,0,0h0" transform="translate(-0.39 -0.26)"/><path class="f" d="M204.18,116.81a1.28,1.28,0,0,1-1.46,1c-.79,0-1.42-.51-1.4-1.09s.66-1,1.46-1A1.28,1.28,0,0,1,204.18,116.81Z" transform="translate(-0.39 -0.26)"/><path class="p" d="M209,115.3c0,1.85-2.12,3.29-4.64,3.23s-4.5-1.62-4.45-3.47,2.13-3.29,4.63-3.22S209.09,113.45,209,115.3Z" transform="translate(-0.39 -0.26)"/><rect class="u" y="195.54" width="385.91" height="83.2"/><line class="v" y1="195.54" x2="385.73" y2="195.54"/><path class="w" d="M284.35,175.79c6.48,0,11.72,2.34,11.72,5.23l-.09.65a3.51,3.51,0,0,1-1,1.6c-1.88-1.76-5.92-3-10.59-3s-8.68,1.21-10.57,3a3.62,3.62,0,0,1-1-1.6l-.09-.65C272.64,178.13,277.89,175.79,284.35,175.79Z" transform="translate(-0.39 -0.26)"/><path d="M273.78,183.27c1.89-1.77,5.91-3,10.57-3s8.71,1.22,10.59,3c-1.88,1.76-5.92,3-10.59,3S275.66,185,273.78,183.27Z" transform="translate(-0.39 -0.26)"/><path class="c" d="M288.49,166.92c.73.79-1.66,4.52-1.66,4.52.31-2.41-.69-1.87-1-4s2-3.64,2-3.64S287.76,166.14,288.49,166.92Z" transform="translate(-0.39 -0.26)"/><path class="c" d="M282.11,162c1.22,1.31-2.78,7.54-2.78,7.54.52-4-1.15-3.11-1.69-6.72s3.38-6.07,3.38-6.07S280.89,160.65,282.11,162Z" transform="translate(-0.39 -0.26)"/><path class="x" d="M284.35,186.25c4.67,0,8.71-1.22,10.59-3a3.51,3.51,0,0,0,1-1.6l-1.83,13-1.53,10.8c0,2.89-3.7,5.23-8.27,5.23s-8.25-2.34-8.25-5.23l-1.53-10.8-1.84-13a3.62,3.62,0,0,0,1,1.6C275.66,185,279.69,186.25,284.35,186.25Z" transform="translate(-0.39 -0.26)"/><path class="y" d="M296.07,181a2.43,2.43,0,0,1-.09.65,3.51,3.51,0,0,1-1,1.6c-1.88,1.76-5.92,3-10.59,3s-8.69-1.22-10.57-3a3.62,3.62,0,0,1-1-1.6,2.43,2.43,0,0,1-.09-.65c0-2.89,5.25-5.23,11.71-5.23S296.07,178.13,296.07,181Z" transform="translate(-0.39 -0.26)"/><path class="i" d="M273.56,183.48a2.18,2.18,0,0,1,.22-.21c1.89-1.77,5.91-3,10.57-3s8.71,1.22,10.59,3" transform="translate(-0.39 -0.26)"/><path class="y" d="M272.64,181l.09.65,1.84,13,1.53,10.8c0,2.89,3.7,5.23,8.25,5.23s8.27-2.34,8.27-5.23l1.53-10.8,1.83-13,.09-.65" transform="translate(-0.39 -0.26)"/><path class="z" d="M69.64,229.73c-.44-.86-.08-1.92,1.11-2.79l41.14-30.15a7.58,7.58,0,0,1,6.72-.9l60.56,26.39a2.45,2.45,0,0,1,1.32,1.16h0l.13.9a2.82,2.82,0,0,1-1.28,1.82l-41.13,30.15a7.54,7.54,0,0,1-6.72.89L70.93,230.83A2.48,2.48,0,0,1,69.64,229.73Zm87.07-13.46c.52-.37.49-.87,0-1.11l-17.23-7.49a2.15,2.15,0,0,0-1.91.25l-9,6.61L129,219l14.09,6.13a2.15,2.15,0,0,0,1.91-.25Zm-3,20.8c1.55-1.13,1.48-2.63-.15-3.35l-24.05-10.47,3.32,29.12Z" transform="translate(-0.39 -0.26)"/><path class="c" d="M156.67,215.16c.53.24.56.74,0,1.11L145,224.85a2.15,2.15,0,0,1-1.91.25L129,219l-.5-4.44,9-6.61a2.15,2.15,0,0,1,1.91-.25Z" transform="translate(-0.39 -0.26)"/><path class="c" d="M153.56,233.72c1.63.72,1.7,2.22.15,3.35l-20.88,15.3-3.32-29.12Z" transform="translate(-0.39 -0.26)"/><path class="b" d="M181,226.5c.33.83-.06,1.82-1.19,2.65L138.71,259.3a7.58,7.58,0,0,1-6.71.9L71.44,233.81A2.13,2.13,0,0,1,70,232.15h0l-.33-2.42a2.48,2.48,0,0,0,1.29,1.1l60.56,26.38a7.54,7.54,0,0,0,6.72-.89l41.13-30.15a2.82,2.82,0,0,0,1.28-1.82l.27,2Z" transform="translate(-0.39 -0.26)"/><path class="aa" d="M180.49,223.44a2.45,2.45,0,0,0-1.32-1.16l-60.56-26.39a7.58,7.58,0,0,0-6.72.9L70.75,226.94c-1.19.87-1.55,1.93-1.11,2.79a2.48,2.48,0,0,0,1.29,1.1l60.56,26.38a7.54,7.54,0,0,0,6.72-.89l41.13-30.15a2.82,2.82,0,0,0,1.28-1.82,1.47,1.47,0,0,0-.13-.9" transform="translate(-0.39 -0.26)"/><path class="aa" d="M70,232a1.1,1.1,0,0,0,0,.18,2.13,2.13,0,0,0,1.46,1.66L132,260.2a7.58,7.58,0,0,0,6.71-.9l41.14-30.15c1.13-.83,1.52-1.82,1.19-2.65" transform="translate(-0.39 -0.26)"/><polyline class="ab" points="69.1 228.41 69.25 229.47 69.58 231.9 69.65 232.44"/><polyline class="ab" points="180.1 223.19 180.22 224.09 180.5 226.1"/><line class="aa" x1="180.1" y1="223.19" x2="180.1" y2="223.19"/><path class="ab" d="M129,219l14.09,6.13a2.15,2.15,0,0,0,1.91-.25l11.69-8.58c.52-.37.49-.87,0-1.11l-17.23-7.49a2.15,2.15,0,0,0-1.91.25l-9,6.61" transform="translate(-0.39 -0.26)"/><path class="ab" d="M132.83,252.37l20.88-15.3c1.55-1.13,1.48-2.63-.15-3.35l-24.05-10.47" transform="translate(-0.39 -0.26)"/><path class="z" d="M58.64,174.68a2.36,2.36,0,0,1,1.91.12L121,201.36a7.61,7.61,0,0,1,3.9,5.54l5.78,50.68A2.68,2.68,0,0,1,130,260h0l-.29.19a2.25,2.25,0,0,1-2-.08L67.25,233.53a7.54,7.54,0,0,1-3.9-5.54l-5.78-50.68C57.41,176,57.85,175,58.64,174.68Zm37.6,47.63c3.79,1.43,6.4-.31,5.83-3.87s-4.11-7.61-7.91-9-6.41.31-5.83,3.87S92.44,220.89,96.24,222.31Z" transform="translate(-0.39 -0.26)"/><path class="b" d="M102.07,218.44c.57,3.56-2,5.3-5.83,3.87s-7.34-5.47-7.91-9,2-5.29,5.83-3.87S101.49,214.87,102.07,218.44Z" transform="translate(-0.39 -0.26)"/><path class="b" d="M130,260a2.68,2.68,0,0,0,.68-2.4l-5.78-50.68a7.61,7.61,0,0,0-3.9-5.54L60.55,174.8a2.36,2.36,0,0,0-1.91-.12L61,173.11a2.25,2.25,0,0,1,2.07,0l60.48,26.57a7.55,7.55,0,0,1,3.9,5.53l5.78,50.68a2.58,2.58,0,0,1-.76,2.46h0Z" transform="translate(-0.39 -0.26)"/><path class="aa" d="M130,260a1.12,1.12,0,0,1-.29.19,2.25,2.25,0,0,1-2-.08L67.25,233.53a7.54,7.54,0,0,1-3.9-5.54l-5.78-50.68c-.16-1.34.28-2.29,1.07-2.63a2.36,2.36,0,0,1,1.91.12L121,201.36a7.61,7.61,0,0,1,3.9,5.54l5.78,50.68A2.68,2.68,0,0,1,130,260" transform="translate(-0.39 -0.26)"/><polyline class="aa" points="60.62 172.85 58.25 174.42 57.82 174.71"/><polyline class="aa" points="132.08 258.13 129.63 259.72 129.63 259.72 129.34 259.91"/><path class="aa" d="M61,173.11a2.25,2.25,0,0,1,2.07,0l60.48,26.57a7.55,7.55,0,0,1,3.9,5.53l5.78,50.68a2.58,2.58,0,0,1-.76,2.46" transform="translate(-0.39 -0.26)"/><path class="ab" d="M102.07,218.44c.57,3.56-2,5.3-5.83,3.87s-7.34-5.47-7.91-9,2-5.29,5.83-3.87S101.49,214.87,102.07,218.44Z" transform="translate(-0.39 -0.26)"/><polygon class="b" points="249 228.76 263.52 243.86 258.99 246.37 249 228.76"/><polygon class="b" points="258.99 246.37 244.02 254.65 227.03 260.19 212.16 244.71 202.17 227.1 217.14 218.82 234.13 213.28 249 228.76 258.99 246.37"/><polygon class="b" points="244.02 254.65 229.45 262.7 227.03 260.19 244.02 254.65"/><polygon class="b" points="231.71 210.76 234.13 213.28 217.14 218.82 231.71 210.76"/><polygon class="b" points="202.17 227.1 212.16 244.71 197.64 229.6 202.17 227.1"/><polyline class="e" points="234.13 213.28 239.28 211.6 249 228.76"/><polyline class="e" points="202.17 227.1 200.55 224.23 217.14 218.82"/><polyline class="e" points="227.03 260.19 221.88 261.87 212.16 244.71"/><polyline class="e" points="258.99 246.37 260.61 249.24 244.02 254.65"/><polygon class="e" points="249 228.76 263.52 243.86 258.99 246.37 244.02 254.65 229.45 262.7 227.03 260.19 212.16 244.71 197.64 229.6 202.17 227.1 217.14 218.82 231.71 210.76 234.13 213.28 249 228.76"/><rect class="j" x="311.39" y="229.79" width="10.97" height="3.09"/><rect class="b" x="278.69" y="229.79" width="32.7" height="3.09"/><polygon class="aa" points="311.39 229.79 322.36 229.79 322.36 232.88 311.39 232.88 278.69 232.88 278.69 229.79 311.39 229.79"/><line class="aa" x1="311.39" y1="229.79" x2="311.39" y2="232.88"/><polygon class="j" points="306.35 243.24 305.38 246.21 294.84 243.6 294.84 243.59 295.81 240.63 306.35 243.24"/><polygon class="aa" points="295.81 240.63 306.35 243.24 305.38 246.21 294.84 243.6 263.39 235.81 264.36 232.84 295.81 240.63"/><line class="aa" x1="295.81" y1="240.63" x2="294.84" y2="243.59"/><path class="i" d="M208.46,234.66c-2.55,0-4.63-1.58-4.63-3.51s2.08-3.51,4.63-3.51a6.12,6.12,0,0,1,1.8.27" transform="translate(-0.39 -0.26)"/><path class="i" d="M210.26,227.91" transform="translate(-0.39 -0.26)"/><path class="i" d="M217.4,230c-2.55,0-4.62-1.57-4.62-3.51s2.07-3.51,4.62-3.51,4.63,1.57,4.63,3.51a2.7,2.7,0,0,1-.23,1.09" transform="translate(-0.39 -0.26)"/><path class="i" d="M221.8,227.54" transform="translate(-0.39 -0.26)"/><path class="i" d="M224.14,224.32a3.53,3.53,0,0,1-2.42-3.09c0-1.94,2.07-3.51,4.63-3.51s4.62,1.57,4.62,3.51" transform="translate(-0.39 -0.26)"/><polygon class="f" points="260.35 243.71 230.23 260.37 226.85 256.85 256.97 240.19 260.35 243.71"/><polygon class="f" points="254.87 237.77 248.54 241.27 245.16 237.76 251.49 234.26 254.87 237.77"/><polygon class="f" points="246.26 242.52 239.93 246.02 236.55 242.51 242.88 239.01 246.26 242.52"/><line class="f" x1="249.47" y1="232.59" x2="223.66" y2="246.81"/><line class="f" x1="247.9" y1="231.4" x2="222.1" y2="245.62"/><line class="f" x1="246.34" y1="230.22" x2="220.53" y2="244.44"/><line class="f" x1="245.55" y1="228.43" x2="219.75" y2="242.65"/><path class="b" d="M79.61,80.54h0a4,4,0,0,1-4.49-.38,4.81,4.81,0,0,0,.33,4.5H57c-5-8.42-5.67-20.37-5.67-20.37H76A56,56,0,0,0,79.61,80.54Z" transform="translate(-0.39 -0.26)"/><path class="c" d="M79.6,80.55a13.88,13.88,0,0,0-4.16,4.12,4.81,4.81,0,0,1-.33-4.5A4,4,0,0,0,79.6,80.55Z" transform="translate(-0.39 -0.26)"/><path class="ac" d="M79.6,80.55a4,4,0,0,1-4.49-.38,4.81,4.81,0,0,0,.33,4.5" transform="translate(-0.39 -0.26)"/><path class="ad" d="M79.61,80.54A56,56,0,0,1,76,64.3H51.3s.62,12,5.67,20.37H75.44" transform="translate(-0.39 -0.26)"/><path class="ad" d="M79.61,80.54h0a13.88,13.88,0,0,0-4.16,4.12" transform="translate(-0.39 -0.26)"/><path class="b" d="M107,64a56.44,56.44,0,0,0,4,16.14h0a4,4,0,0,1-4.49-.26A4.8,4.8,0,0,0,107,84.4l-18.47.5c-5.28-8.29-6.21-20.22-6.21-20.22Z" transform="translate(-0.39 -0.26)"/><path class="c" d="M111.07,80.17a13.64,13.64,0,0,0-4,4.23,4.8,4.8,0,0,1-.45-4.49A4,4,0,0,0,111.07,80.17Z" transform="translate(-0.39 -0.26)"/><path class="ac" d="M111.07,80.17a4,4,0,0,1-4.49-.26A4.8,4.8,0,0,0,107,84.4" transform="translate(-0.39 -0.26)"/><path class="ad" d="M111.08,80.16A56.44,56.44,0,0,1,107,64l-24.68.66s.93,11.93,6.21,20.22L107,84.4" transform="translate(-0.39 -0.26)"/><path class="ad" d="M111.08,80.16h0a13.64,13.64,0,0,0-4,4.23" transform="translate(-0.39 -0.26)"/><polygon class="b" points="141.34 81.35 141.34 81.36 141.33 81.36 141.34 81.35"/><path class="b" d="M141.73,81.61h0a4,4,0,0,1-4.42-.74,4.82,4.82,0,0,0,0,4.52L118.84,84c-4.39-8.79-4.09-20.75-4.09-20.75l24.62,1.9A56.13,56.13,0,0,0,141.73,81.61Z" transform="translate(-0.39 -0.26)"/><path class="c" d="M137.27,80.89a4,4,0,0,0,4.42.74,13.92,13.92,0,0,0-4.44,3.78A4.82,4.82,0,0,1,137.27,80.89Z" transform="translate(-0.39 -0.26)"/><path class="ac" d="M141.69,81.63a4,4,0,0,1-4.42-.74,4.82,4.82,0,0,0,0,4.52" transform="translate(-0.39 -0.26)"/><path class="ad" d="M141.73,81.62h0" transform="translate(-0.39 -0.26)"/><path class="ad" d="M141.73,81.61h0" transform="translate(-0.39 -0.26)"/><path class="ad" d="M141.73,81.62h0a56.13,56.13,0,0,1-2.36-16.47l-24.62-1.9s-.3,12,4.09,20.75l18.41,1.42" transform="translate(-0.39 -0.26)"/><path class="ad" d="M141.69,81.63a13.92,13.92,0,0,0-4.44,3.78" transform="translate(-0.39 -0.26)"/><path class="ac" d="M141.72,81.62h0" transform="translate(-0.39 -0.26)"/><path class="ad" d="M141.73,81.61h0" transform="translate(-0.39 -0.26)"/><path class="b" d="M79.76,105.24h0a4,4,0,0,1-4.5-.27,4.81,4.81,0,0,0,.44,4.49h0l-18.46.45C52,101.64,51.06,89.7,51.06,89.7l24.68-.61A56.24,56.24,0,0,0,79.76,105.24Z" transform="translate(-0.39 -0.26)"/><path class="c" d="M79.75,105.25a13.85,13.85,0,0,0-4.06,4.22,4.81,4.81,0,0,1-.44-4.49A4,4,0,0,0,79.75,105.25Z" transform="translate(-0.39 -0.26)"/><polygon class="b" points="75.3 109.21 75.3 109.22 75.3 109.22 75.3 109.21"/><path class="ac" d="M79.75,105.25a4,4,0,0,1-4.5-.27,4.81,4.81,0,0,0,.44,4.49h0" transform="translate(-0.39 -0.26)"/><path class="ad" d="M79.76,105.24a56.24,56.24,0,0,1-4-16.15l-24.68.61s.9,11.94,6.17,20.23l18.46-.45h0" transform="translate(-0.39 -0.26)"/><path class="ad" d="M79.76,105.24h0a13.85,13.85,0,0,0-4.06,4.22h0" transform="translate(-0.39 -0.26)"/><path class="b" d="M109.28,108.51h0a4,4,0,0,1-4.3-1.35,4.83,4.83,0,0,0-.66,4.47h0l-18-4c-3.11-9.32-1.12-21.13-1.12-21.13l24.1,5.35A56.4,56.4,0,0,0,109.28,108.51Z" transform="translate(-0.39 -0.26)"/><path class="c" d="M109.27,108.52a13.68,13.68,0,0,0-5,3.12,4.83,4.83,0,0,1,.66-4.47A4,4,0,0,0,109.27,108.52Z" transform="translate(-0.39 -0.26)"/><polygon class="b" points="103.92 111.38 103.92 111.39 103.92 111.39 103.92 111.38"/><path class="ac" d="M109.27,108.52a4,4,0,0,1-4.3-1.35,4.83,4.83,0,0,0-.66,4.47h0" transform="translate(-0.39 -0.26)"/><path class="ad" d="M109.28,108.51a56.4,56.4,0,0,1,0-16.64l-24.1-5.35s-2,11.81,1.12,21.13l18,4h0" transform="translate(-0.39 -0.26)"/><path class="ad" d="M109.28,108.51h0a13.68,13.68,0,0,0-5,3.12h0" transform="translate(-0.39 -0.26)"/><path class="b" d="M76,112a56.07,56.07,0,0,0,3.61,16.25h0a4,4,0,0,1-4.49-.39,4.83,4.83,0,0,0,.33,4.51H57C51.92,123.9,51.3,112,51.3,112Z" transform="translate(-0.39 -0.26)"/><path class="c" d="M75.44,132.33a4.83,4.83,0,0,1-.33-4.51,4,4,0,0,0,4.49.39A13.88,13.88,0,0,0,75.44,132.33Z" transform="translate(-0.39 -0.26)"/><path class="ac" d="M79.6,128.21a4,4,0,0,1-4.49-.39,4.83,4.83,0,0,0,.33,4.51" transform="translate(-0.39 -0.26)"/><path class="ad" d="M79.61,128.2A56.07,56.07,0,0,1,76,112H51.3s.62,12,5.67,20.38H75.44" transform="translate(-0.39 -0.26)"/><path class="ad" d="M79.61,128.2h0a13.88,13.88,0,0,0-4.16,4.12" transform="translate(-0.39 -0.26)"/><path class="b" d="M113.94,129.54h0l0,0Z" transform="translate(-0.39 -0.26)"/><path class="b" d="M113.94,129.54l0,0h0a4,4,0,0,1-4.47.19,4.82,4.82,0,0,0,.91,4.43L92,136.57c-6.11-7.7-8.27-19.47-8.27-19.47l24.48-3.2A56.32,56.32,0,0,0,113.94,129.54Z" transform="translate(-0.39 -0.26)"/><path class="c" d="M109.43,129.75a4,4,0,0,0,4.47-.19,13.9,13.9,0,0,0-3.56,4.62A4.82,4.82,0,0,1,109.43,129.75Z" transform="translate(-0.39 -0.26)"/><path class="ac" d="M113.9,129.56a4,4,0,0,1-4.47.19,4.82,4.82,0,0,0,.91,4.43" transform="translate(-0.39 -0.26)"/><path class="ad" d="M113.94,129.54l0,0" transform="translate(-0.39 -0.26)"/><path class="ad" d="M113.94,129.54h0a56.32,56.32,0,0,1-5.7-15.64l-24.48,3.2s2.16,11.77,8.27,19.47l18.31-2.39" transform="translate(-0.39 -0.26)"/><path class="ad" d="M113.9,129.56a13.9,13.9,0,0,0-3.56,4.62" transform="translate(-0.39 -0.26)"/><line class="ac" x1="113.51" y1="129.31" x2="113.51" y2="129.31"/><path class="ad" d="M113.94,129.54l0,0" transform="translate(-0.39 -0.26)"/><path class="b" d="M139.37,103.36h0Z" transform="translate(-0.39 -0.26)"/><path class="b" d="M139.37,103.36l0,0a4,4,0,0,1-4.48-.18,4.83,4.83,0,0,0,.54,4.49l-18.45.85c-5.44-8.18-6.61-20.09-6.61-20.09L135,87.3A56.49,56.49,0,0,0,139.37,103.36Z" transform="translate(-0.39 -0.26)"/><path class="c" d="M134.86,103.2a4,4,0,0,0,4.48.18,13.75,13.75,0,0,0-3.94,4.31A4.83,4.83,0,0,1,134.86,103.2Z" transform="translate(-0.39 -0.26)"/><path class="ac" d="M139.34,103.38a4,4,0,0,1-4.48-.18,4.83,4.83,0,0,0,.54,4.49" transform="translate(-0.39 -0.26)"/><path class="ad" d="M139.37,103.37h0" transform="translate(-0.39 -0.26)"/><path class="ad" d="M139.37,103.37h0A56.49,56.49,0,0,1,135,87.3l-24.66,1.15s1.17,11.91,6.61,20.09l18.45-.85" transform="translate(-0.39 -0.26)"/><path class="ad" d="M139.37,103.36l0,0a13.75,13.75,0,0,0-3.94,4.31" transform="translate(-0.39 -0.26)"/><polygon class="b" points="201.41 239.44 199.07 238.12 220.85 213.02 223.19 214.34 201.41 239.44"/><polygon class="c" points="240.31 259.14 238.14 257.92 251.28 242.79 253.44 244.01 240.31 259.14"/><polygon class="d" points="224.74 249.48 211.63 242.11 227.39 235.18 224.74 249.48"/><polygon class="d" points="224.74 249.48 227.39 235.18 243.16 228.25 224.74 249.48"/><polygon class="d" points="211.63 242.11 230.05 220.89 227.39 235.18 211.63 242.11"/><polygon class="d" points="212.42 238.29 207.63 235.6 210.87 231.86 215.66 234.56 212.42 238.29"/><polygon class="d" points="216.65 233.41 211.86 230.72 215.1 226.99 219.89 229.68 216.65 233.41"/><polygon class="d" points="243.16 228.25 227.39 235.18 230.05 220.89 243.16 228.25"/><polygon class="d" points="220.88 228.54 216.09 225.85 219.33 222.11 224.12 224.81 220.88 228.54"/><polygon class="b" points="254.22 243.11 252.05 241.89 253.52 240.21 255.68 241.42 254.22 243.11"/><polygon class="d" points="225.11 223.67 220.32 220.97 223.56 217.24 228.35 219.93 225.11 223.67"/><polygon class="c" points="251.59 237.3 247.87 235.21 250.38 232.32 254.1 234.4 251.59 237.3"/><polygon class="b" points="256.5 239.56 255.33 239.98 255.42 238.95 255.5 237.91 256.59 238.53 257.67 239.13 256.5 239.56"/><polygon class="b" points="257.53 236.52 258.7 236.09 258.61 237.12 258.52 238.15 257.44 237.54 256.36 236.93 257.53 236.52"/><path class="b" d="M257.92,236.78l-1.17.41,1.08.61,1.08.61.09-1,.1-1Zm-4.09,7.48-2.16-1.21-13.13,15.13,2.16,1.22Zm2.24-2.58-2.16-1.22-1.47,1.69,2.17,1.22Zm6.48-5.18-21.78,25.11-4.44-2.5L258.11,234Zm-6.83,3.74,1.17-.42,1.17-.43-1.08-.61-1.08-.61-.09,1Z" transform="translate(-0.39 -0.26)"/><path class="b" d="M212.82,238.55l3.24-3.74-4.79-2.69L208,235.86Zm38-6-2.52,2.89,3.72,2.09,2.51-2.9ZM224,217.5l-3.24,3.73,4.79,2.7,3.24-3.74Zm-6.9,16.17,3.24-3.73-4.8-2.69L212.25,231Zm13.39-12.52L212,242.37l13.11,7.37,18.42-21.23ZM201.8,239.7l21.78-25.1L258.11,234l-21.78,25.1Zm19.47-10.9,3.24-3.73-4.79-2.7-3.24,3.74Z" transform="translate(-0.39 -0.26)"/><polygon class="e" points="201.41 239.44 199.07 238.12 220.85 213.02 223.19 214.34 257.72 233.75 262.16 236.25 240.38 261.35 235.94 258.85 201.41 239.44"/><line class="f" x1="201.41" y1="239.44" x2="223.19" y2="214.34"/><line class="f" x1="257.72" y1="233.75" x2="235.94" y2="258.85"/><polygon class="g" points="258.7 236.09 258.61 237.12 258.52 238.15 257.44 237.54 256.36 236.93 257.53 236.52 258.7 236.09"/><polygon class="g" points="255.33 239.98 255.42 238.95 255.5 237.91 256.59 238.53 257.67 239.13 256.5 239.56 255.33 239.98"/><polygon class="g" points="254.22 243.11 255.68 241.42 253.52 240.21 252.05 241.89 254.22 243.11"/><polygon class="g" points="238.14 257.92 251.28 242.79 253.44 244.01 240.31 259.14 238.14 257.92"/><polygon class="f" points="247.87 235.21 250.38 232.32 254.1 234.4 251.59 237.3 247.87 235.21"/><polygon class="f" points="211.63 242.11 230.05 220.89 243.16 228.25 224.74 249.48 211.63 242.11"/><line class="e" x1="233.82" y1="254.58" x2="236.87" y2="251.06"/><line class="e" x1="238.58" y1="249.1" x2="241.63" y2="245.58"/><line class="e" x1="243.33" y1="243.62" x2="246.39" y2="240.1"/><polyline class="f" points="211.63 242.11 227.39 235.18 243.16 228.25"/><polyline class="f" points="224.74 249.48 227.39 235.18 230.05 220.89"/><line class="h" x1="247.2" y1="230.53" x2="239.05" y2="239.91"/><polygon class="i" points="220.32 220.97 223.56 217.24 228.35 219.93 225.11 223.67 220.32 220.97"/><polygon class="i" points="216.09 225.85 219.33 222.11 224.12 224.81 220.88 228.54 216.09 225.85"/><polygon class="i" points="211.86 230.72 215.1 226.99 219.89 229.68 216.65 233.41 211.86 230.72"/><polygon class="i" points="207.63 235.6 210.87 231.86 215.66 234.56 212.42 238.29 207.63 235.6"/></svg>