<svg xmlns="http://www.w3.org/2000/svg" viewBox="0 0 398.24 278.49"><defs><style>.a{fill:#dddfe8;}.b{fill:#f37739;}.c,.d,.f,.g{fill:none;}.c,.d{stroke:#000;stroke-miterlimit:10;}.d,.f{stroke-width:2px;}.e{fill:#fff;}.f,.g{stroke:#231f20;stroke-linecap:round;stroke-linejoin:round;}.h{fill:#231f20;}</style></defs><title>designer</title><path d="M351.38,166.72c7.17,0,13.36,1.88,16.25,4.58-2.89,2.71-9.08,4.58-16.25,4.58S338,174,335.15,171.3C338,168.59,344.23,166.72,351.38,166.72Z" transform="translate(-13.53 -5)"/><path d="M299.35,188.73a71.19,71.19,0,0,0-2.76-18.47l24,18.47Z" transform="translate(-13.53 -5)"/><path class="a" d="M275.57,62.66s8.56,1.66,8.56,10.23v24s-1.28,8.35-8.13,8.35h-9.21l-.35-.15a43.1,43.1,0,0,0,4-19.11c-.27-12-6.49-19-13.56-23.11l.1-.18Z" transform="translate(-13.53 -5)"/><path class="a" d="M291.71,157.75a51.91,51.91,0,0,0-19.35-21.06c-10.62-6.41-13.26-11.22-12.53-16.31,19.3,0,21.22,6.46,21.22,6.46Z" transform="translate(-13.53 -5)"/><path class="a" d="M198.09,62.66h18.59c-7.2,4.08-13.6,11.13-13.87,23.29a43.29,43.29,0,0,0,4.06,19.26h-9.2c-6.85,0-8.14-8.35-8.14-8.35v-24C189.53,64.32,198.09,62.66,198.09,62.66Z" transform="translate(-13.53 -5)"/><path class="a" d="M192.1,126.84s1.93-6.46,21.31-6.46c.74,5.08-1.92,9.9-12.54,16.31a52.15,52.15,0,0,0-19.62,21.62Z" transform="translate(-13.53 -5)"/><path d="M176.65,170.27a70.78,70.78,0,0,0-2.75,18.46H155.27Z" transform="translate(-13.53 -5)"/><path class="b" d="M266.79,105.21H276c6.85,0,8.13-8.35,8.13-8.35v-24c0-8.57-8.56-10.23-8.56-10.23H257l-.1.18c-8.31-4.83-17.8-5.64-20.23-5.78h-.06c-2.39.14-11.68.93-19.91,5.6H198.09s-8.56,1.66-8.56,10.23v24s1.29,8.35,8.14,8.35h9.2c2.72,6.11,5.9,10.74,6.54,15.17-19.38,0-21.31,6.46-21.31,6.46l-10.85,31.47,0,.06a68.24,68.24,0,0,0-4.57,11.9l-21.38,18.46H14.83s-12-68.12,37.22-94.06S82.76,81,133.1,32.67C192.13-24,464.35-3.74,402.76,188.73H366.42l2.82-19.89a3.7,3.7,0,0,0,.14-1c0-4.43-8.06-8-18-8s-18,3.6-18,8a3.7,3.7,0,0,0,.14,1l2.82,19.89H320.57l-24-18.47a67.34,67.34,0,0,0-4.88-12.51l-10.66-30.91s-1.92-6.44-21.22-6.46c.64-4.47,3.89-9.14,6.61-15.32Zm88.4,47.93s3.67-5.73,2.54-6.93-1-4.82-1-4.82-3.61,2.25-3.11,5.58S355.66,149.44,355.19,153.14Zm-11.52-3s6.14-9.56,4.26-11.57-1.66-8.06-1.66-8.06-6,3.78-5.2,9.31S344.47,144,343.67,150.18Z" transform="translate(-13.53 -5)"/><polyline class="c" points="1.3 183.73 141.73 183.73 160.37 183.73 184.54 183.73 261.73 183.73 285.81 183.73 307.04 183.73 322.83 183.73"/><path class="c" d="M181.22,158.37a68.24,68.24,0,0,0-4.57,11.9,70.78,70.78,0,0,0-2.75,18.46" transform="translate(-13.53 -5)"/><path class="c" d="M236.59,57.06c-2.39.14-11.68.93-19.91,5.6-7.2,4.08-13.6,11.13-13.87,23.29a43.29,43.29,0,0,0,4.06,19.26c2.72,6.11,5.9,10.74,6.54,15.17.74,5.08-1.92,9.9-12.54,16.31a52.15,52.15,0,0,0-19.62,21.62" transform="translate(-13.53 -5)"/><path class="c" d="M237.18,57l-.53,0" transform="translate(-13.53 -5)"/><path class="d" d="M369.38,167.85a3.7,3.7,0,0,1-.14,1,5.37,5.37,0,0,1-1.61,2.46c-2.89,2.71-9.08,4.58-16.25,4.58S338,174,335.15,171.3a5.29,5.29,0,0,1-1.61-2.46,3.7,3.7,0,0,1-.14-1c0-4.43,8.06-8,18-8S369.38,163.42,369.38,167.85Z" transform="translate(-13.53 -5)"/><path class="c" d="M334.81,171.62c.11-.1.22-.22.34-.32,2.89-2.71,9.08-4.58,16.23-4.58s13.36,1.88,16.25,4.58" transform="translate(-13.53 -5)"/><path class="d" d="M333.4,167.85l.14,1,2.82,19.89,2.34,16.58c0,4.44,5.68,8,12.68,8s12.69-3.6,12.69-8l2.35-16.58,2.82-19.89.14-1" transform="translate(-13.53 -5)"/><path class="c" d="M346.27,130.55s-6,3.78-5.2,9.31,3.4,4.14,2.6,10.32c0,0,6.14-9.56,4.26-11.57S346.27,130.55,346.27,130.55Z" transform="translate(-13.53 -5)"/><path class="c" d="M356.74,141.39s-3.61,2.25-3.11,5.58,2,2.47,1.56,6.17c0,0,3.67-5.73,2.54-6.93S356.74,141.39,356.74,141.39Z" transform="translate(-13.53 -5)"/><path class="c" d="M225.72,108.11s2.05,4.83,10.9,5h.56" transform="translate(-13.53 -5)"/><path class="c" d="M227,84.41a3.18,3.18,0,0,1-6.27,0" transform="translate(-13.53 -5)"/><path class="c" d="M236.07,57l.52,0h.06c2.43.14,11.92.95,20.23,5.78C264,67,270.17,74,270.44,86a43.1,43.1,0,0,1-4,19.11c-2.72,6.18-6,10.85-6.61,15.32-.73,5.09,1.91,9.9,12.53,16.31a51.91,51.91,0,0,1,19.35,21.06,67.34,67.34,0,0,1,4.88,12.51,71.19,71.19,0,0,1,2.76,18.47" transform="translate(-13.53 -5)"/><path class="c" d="M247.53,108.11s-2.05,4.83-10.91,5h-.55" transform="translate(-13.53 -5)"/><path class="c" d="M246.25,84.41a3.17,3.17,0,0,0,6.26,0" transform="translate(-13.53 -5)"/><polyline class="c" points="141.73 183.73 163.12 165.28 163.13 165.27"/><line class="c" x1="283.05" y1="165.27" x2="307.04" y2="183.73"/><path class="d" d="M216.68,62.66H198.09s-8.56,1.66-8.56,10.23v24s1.29,8.35,8.14,8.35h9.2" transform="translate(-13.53 -5)"/><path class="d" d="M181.22,158.37l0-.06,10.85-31.47s1.93-6.46,21.31-6.46" transform="translate(-13.53 -5)"/><path class="d" d="M257,62.66h18.59s8.56,1.66,8.56,10.23v24s-1.28,8.35-8.13,8.35h-9.21" transform="translate(-13.53 -5)"/><path class="d" d="M291.92,158.37l-.21-.62-10.66-30.91s-1.92-6.44-21.22-6.46h-.1" transform="translate(-13.53 -5)"/><path class="c" d="M247.53,108.11c0,1.48-1.85,7.71-11.46,7.71-8.13,0-10.35-6.23-10.35-7.71" transform="translate(-13.53 -5)"/><path class="c" d="M198.07,188.73s-2.35-28.68,14.35-34.3" transform="translate(-13.53 -5)"/><path class="c" d="M275.26,188.73s2.36-28.68-14.34-34.3" transform="translate(-13.53 -5)"/><line class="c" x1="389.23" y1="183.73" x2="352.89" y2="183.73"/><path class="a" d="M214.05,236.61a4.25,4.25,0,0,1-2.15,2.4l-64.65,36.91a11,11,0,0,1-9.88.2L53.91,227.83A3.63,3.63,0,0,1,52.22,226c-.51-1.32.2-2.82,2.08-3.89L119,185.23c2.83-1.61,7.26-1.7,9.87-.19l83.47,48.29C213.8,234.2,214.38,235.42,214.05,236.61Zm-33.33-15.7c.8-.45.85-1.18.11-1.61L157.1,205.57a3.16,3.16,0,0,0-2.81.05l-14.17,8.09v6.53l19.41,11.23a3.16,3.16,0,0,0,2.81-.06Zm-7.8,29.68c2.43-1.39,2.59-3.59.34-4.89l-33.14-19.18v42.79Z" transform="translate(-13.53 -5)"/><path class="e" d="M180.83,219.3c.74.43.69,1.16-.11,1.61l-18.38,10.5a3.16,3.16,0,0,1-2.81.06l-19.41-11.23v-6.53l14.17-8.09a3.16,3.16,0,0,1,2.81-.05Z" transform="translate(-13.53 -5)"/><path class="e" d="M173.26,245.7c2.25,1.3,2.09,3.5-.34,4.89l-32.8,18.72V226.52Z" transform="translate(-13.53 -5)"/><path class="e" d="M214.12,239.54l.18.23c.34,1.26-.39,2.63-2.16,3.64L147.5,280.33c-2.83,1.62-7.28,1.7-9.88.19L54.14,232.23a3.2,3.2,0,0,1-1.84-2.6v0L52.22,226a3.63,3.63,0,0,0,1.69,1.79l83.46,48.29a11,11,0,0,0,9.88-.2L211.9,239a4.25,4.25,0,0,0,2.15-2.4Z" transform="translate(-13.53 -5)"/><path class="f" d="M214.05,236.61c.33-1.19-.25-2.41-1.76-3.28L128.82,185c-2.61-1.51-7-1.42-9.87.19L54.3,222.15c-1.88,1.07-2.59,2.57-2.08,3.89a3.63,3.63,0,0,0,1.69,1.79l83.46,48.29a11,11,0,0,0,9.88-.2L211.9,239A4.25,4.25,0,0,0,214.05,236.61Z" transform="translate(-13.53 -5)"/><path class="f" d="M52.3,229.63a3.2,3.2,0,0,0,1.84,2.6l83.48,48.29c2.6,1.51,7,1.43,9.88-.19l64.64-36.92c1.77-1,2.5-2.38,2.16-3.64" transform="translate(-13.53 -5)"/><path class="f" d="M52.32,229.33a2.28,2.28,0,0,0,0,.26" transform="translate(-13.53 -5)"/><line class="g" x1="38.77" y1="224.63" x2="38.79" y2="225.4"/><line class="f" x1="38.77" y1="224.59" x2="38.77" y2="224.63"/><polyline class="g" points="38.65 219.45 38.69 221.04 38.77 224.59"/><polyline class="g" points="200.49 230.25 200.51 231.61 200.58 234.54"/><path class="g" d="M140.12,220.24l19.41,11.23a3.16,3.16,0,0,0,2.81-.06l18.38-10.5c.8-.45.85-1.18.11-1.61L157.1,205.57a3.16,3.16,0,0,0-2.81.05l-14.17,8.09" transform="translate(-13.53 -5)"/><path class="g" d="M140.12,269.31l32.8-18.72c2.43-1.39,2.59-3.59.34-4.89l-33.14-19.18" transform="translate(-13.53 -5)"/><path class="a" d="M136.18,202.06v74.45a3.88,3.88,0,0,1-1.4,3.38h0l-.44.21a3.32,3.32,0,0,1-2.88-.44L48.12,231.12c-2.6-1.5-4.73-5.41-4.73-8.66V148a3.88,3.88,0,0,1,1.35-3.33l.59-.3a3.39,3.39,0,0,1,2.79.47l83.33,48.54A11,11,0,0,1,136.18,202.06ZM92,219.66c5.28,2.7,9.35.62,9.1-4.65s-4.7-11.72-10-14.42-9.33-.61-9.1,4.65S86.75,217,92,219.66Z" transform="translate(-13.53 -5)"/><path class="e" d="M101.11,215c.25,5.27-3.82,7.35-9.1,4.65s-9.72-9.15-10-14.42,3.84-7.34,9.1-4.65S100.87,209.74,101.11,215Z" transform="translate(-13.53 -5)"/><path class="e" d="M134.78,279.89a3.88,3.88,0,0,0,1.4-3.38V202.06a11,11,0,0,0-4.73-8.67L48.12,144.85a3.39,3.39,0,0,0-2.79-.47l3.73-1.9a3.3,3.3,0,0,1,3,.4l83.33,48.54a11,11,0,0,1,4.73,8.67v74.44c0,1.71-.58,2.91-1.52,3.45Z" transform="translate(-13.53 -5)"/><path class="f" d="M134.77,279.9a2,2,0,0,1-.44.21,3.32,3.32,0,0,1-2.88-.44L48.12,231.12c-2.6-1.5-4.73-5.41-4.73-8.66V148a3.88,3.88,0,0,1,1.35-3.33,1.74,1.74,0,0,1,.59-.3,3.39,3.39,0,0,1,2.79.47l83.33,48.54a11,11,0,0,1,4.73,8.67v74.45a3.88,3.88,0,0,1-1.4,3.38" transform="translate(-13.53 -5)"/><polyline class="f" points="35.53 137.48 31.8 139.39 31.2 139.68 31.16 139.7"/><polyline class="f" points="125.07 272.99 121.25 274.89 121.24 274.9 120.79 275.12"/><path class="f" d="M49.06,142.48a3.3,3.3,0,0,1,3,.4l83.33,48.54a11,11,0,0,1,4.73,8.67v74.44c0,1.71-.58,2.91-1.52,3.45" transform="translate(-13.53 -5)"/><path class="g" d="M101.11,215c.25,5.27-3.82,7.35-9.1,4.65s-9.72-9.15-10-14.42,3.84-7.34,9.1-4.65S100.87,209.74,101.11,215Z" transform="translate(-13.53 -5)"/><polygon class="e" points="277.55 221.13 295.83 246.21 290.12 250.37 277.55 221.13"/><polygon class="e" points="277.55 221.13 290.12 250.37 271.28 264.1 249.87 273.31 231.13 247.61 218.56 218.37 237.4 204.63 258.81 195.43 277.55 221.13"/><polygon class="e" points="271.28 264.1 252.91 277.49 249.87 273.31 271.28 264.1"/><polygon class="e" points="255.76 191.24 258.81 195.43 237.4 204.63 255.76 191.24"/><polygon class="e" points="231.13 247.61 212.85 222.53 218.56 218.37 231.13 247.61"/><polyline class="f" points="258.81 195.43 265.3 192.63 277.55 221.13"/><polyline class="f" points="218.56 218.37 216.51 213.62 237.4 204.63"/><polyline class="f" points="249.87 273.31 243.38 276.1 231.13 247.61"/><polyline class="f" points="290.12 250.37 292.16 255.12 271.28 264.1"/><polygon class="f" points="277.55 221.13 295.83 246.21 290.12 250.37 271.28 264.1 252.91 277.49 249.87 273.31 231.13 247.61 212.85 222.53 218.56 218.37 237.4 204.63 255.76 191.24 258.81 195.43 277.55 221.13"/><rect class="h" x="356.12" y="229.9" width="13.81" height="4.47"/><rect class="e" x="314.94" y="229.9" width="41.18" height="4.47"/><polygon class="f" points="356.12 229.9 369.93 229.9 369.93 234.37 356.12 234.37 314.94 234.37 314.94 229.9 356.12 229.9"/><line class="f" x1="356.12" y1="229.9" x2="356.12" y2="234.37"/><rect class="h" x="353.82" y="247.69" width="4.47" height="13.81" transform="translate(0.24 522.42) rotate(-74.12)"/><polygon class="f" points="336.49 245.56 349.77 249.33 348.55 253.63 335.27 249.86 295.66 238.59 296.89 234.3 336.49 245.56"/><line class="f" x1="336.49" y1="245.56" x2="335.27" y2="249.86"/><path class="c" d="M239.52,235.49a5.83,5.83,0,1,1,0-11.66,5.94,5.94,0,0,1,2.27.46" transform="translate(-13.53 -5)"/><path class="c" d="M241.79,224.29" transform="translate(-13.53 -5)"/><path class="c" d="M250.78,227.69a5.83,5.83,0,1,1,5.83-5.83,5.74,5.74,0,0,1-.29,1.82" transform="translate(-13.53 -5)"/><path class="c" d="M256.32,223.68" transform="translate(-13.53 -5)"/><path class="c" d="M259.27,218.32a5.83,5.83,0,1,1,8.6-5.12" transform="translate(-13.53 -5)"/><rect class="g" x="260.8" y="258.25" width="46.95" height="7.21" transform="translate(-113.23 212.73) rotate(-36.09)"/><rect class="g" x="287.42" y="237.47" width="9.87" height="7.21" transform="translate(-99.44 213.5) rotate(-36.09)"/><rect class="g" x="276.57" y="245.36" width="9.87" height="7.21" transform="translate(-106.17 208.63) rotate(-36.09)"/><line class="g" x1="278.13" y1="227.49" x2="245.63" y2="251.1"/><line class="g" x1="276.16" y1="225.52" x2="243.65" y2="249.13"/><line class="g" x1="274.19" y1="223.55" x2="241.68" y2="247.16"/><line class="g" x1="273.2" y1="220.59" x2="240.7" y2="244.2"/></svg>