<svg xmlns="http://www.w3.org/2000/svg" viewBox="0 0 386 279"><defs><style>.a{fill:#25a9e0;}.b{fill:#231f20;}.c{fill:#a6a8ab;}.ac,.d,.e,.f,.i,.j,.k,.l,.p,.q,.v,.w,.z{fill:none;}.d{stroke:#000;}.ac,.d,.e,.f,.i,.j,.k,.l,.p,.q,.v,.w{stroke-linecap:round;stroke-linejoin:round;}.e{stroke:#6d6e70;}.ac,.e,.f,.k,.l,.p,.v,.z{stroke-width:2px;}.f{stroke:#231f20;}.g{fill:#006838;}.h{fill:#fee1b9;}.i,.l{stroke:#003a1d;}.j,.k{stroke:#d1b088;}.m{fill:#af6038;}.n{fill:#eacca7;}.o{fill:#fff;}.p,.q{stroke:#603813;}.r{fill:#e6e7e8;}.s{fill:#808184;}.t{fill:#d0d2d3;}.u{fill:#f1f1f2;}.v,.w{stroke:#58595b;}.x{fill:#929497;}.y{fill:#58595b;}.z{stroke:#808184;stroke-miterlimit:10;}.aa{fill:#716558;}.ab{fill:#c1b49a;}.ac{stroke:#493e34;}</style></defs><title>developer</title><rect class="a" width="386" height="195.21"/><path class="b" d="M272.8,199.08c1.33,1.83.08,3.32-2.77,3.32h-5.5c-2.85,0-6.28-1.49-7.6-3.32l-6.69-9.15-8.84-12.12c-1.33-1.82-.08-3.31,2.77-3.31h5.49c2.85,0,6.28,1.49,7.61,3.31Z"/><path class="c" d="M250.24,189.93s2.18,42.13-23.91,42.13h-52.2c-26.09,0-23.87-40.43-23.87-40.43l10.09-13.82c1.33-1.82.08-3.31-2.77-3.31h-5.5a9.59,9.59,0,0,0-1.82.18L161,143.61s1.69-5.67,18.69-5.67H220.4c16.93,0,18.62,5.67,18.62,5.67l9.35,27.12,1.29,3.77h-5.49c-2.85,0-4.1,1.49-2.77,3.31Z"/><path class="c" d="M208.85,125.14H174.48c-5.15,0-6.12-6.28-6.12-6.28V103.79c0-6.44,6.44-7.69,6.44-7.69h6.56a21.7,21.7,0,0,0,6-3.1c2.89-2.17,4.78-4.84,10.68-4.84h4.44c5.9,0,9.28,2.67,12.18,4.84a21.12,21.12,0,0,0,6.69,3.1h4.33s6.45,1.25,6.45,7.69v15.07s-1,6.28-6.12,6.28H208.85Z"/><path class="b" d="M157.58,174.5c2.85,0,4.1,1.49,2.77,3.31l-10.09,13.82-5.44,7.45c-1.33,1.83-4.76,3.32-7.61,3.32h-5.49c-2.85,0-4.1-1.49-2.77-3.32l15.53-21.27a9.86,9.86,0,0,1,5.78-3.13,9.59,9.59,0,0,1,1.82-.18Z"/><path class="d" d="M200.52,246.72h-.45"/><path class="e" d="M221.31,96.1a21.12,21.12,0,0,1-6.69-3.1c-2.9-2.17-6.28-4.84-12.18-4.84H198c-5.9,0-7.79,2.67-10.68,4.84a21.7,21.7,0,0,1-6,3.1H174.8s-6.44,1.25-6.44,7.69v15.07s1,6.28,6.12,6.28H226c5.15,0,6.12-6.28,6.12-6.28V103.79c0-6.44-6.45-7.69-6.45-7.69h-4.33"/><line class="f" x1="150.26" y1="174.68" x2="151.43" y2="171.27"/><path class="e" d="M249.66,174.5l-1.29-3.77L239,143.61s-1.69-5.66-18.62-5.67H179.67c-17,0-18.69,5.67-18.69,5.67l-10.72,31.07"/><path class="e" d="M208.88,124.63s0,.18,0,.51c-.07,2.44-.16,12.8,4.19,12.8"/><path class="e" d="M191.35,124.63s0,.18,0,.51c.09,2.43.18,12.8-4.18,12.8"/><path class="e" d="M150.26,191.63s-2.22,40.43,23.87,40.43h26.1"/><path class="f" d="M150.26,191.63l-5.44,7.45c-1.33,1.83-4.76,3.32-7.61,3.32h-5.49c-2.85,0-4.1-1.49-2.77-3.32l15.53-21.27a9.86,9.86,0,0,1,5.78-3.13,9.59,9.59,0,0,1,1.82-.18h5.5c2.85,0,4.1,1.49,2.77,3.31Z"/><path class="e" d="M250.24,189.93s2.18,42.13-23.91,42.13h-26.1"/><path class="f" d="M250.24,189.93l6.69,9.15c1.32,1.83,4.75,3.32,7.6,3.32H270c2.85,0,4.1-1.49,2.77-3.32l-15.53-21.27c-1.33-1.82-4.76-3.31-7.61-3.31h-5.49c-2.85,0-4.1,1.49-2.77,3.31Z"/><path class="g" d="M170.49,182.21h0l-16.83-3-2.77-.49s2.42-13.45,3.49-22.6,8.88-10.49,8.88-10.49l25.35-3.27c-4.42,1.31-7.25,3.31-7.25,5.56,0,3.94,8.67,7.12,19.37,7.12s19.37-3.18,19.37-7.12c0-2.25-2.83-4.25-7.24-5.56l25.34,3.27s7.81,1.35,8.88,10.49,3.5,22.6,3.5,22.6l-3.87.69-15.74,2.8h0l2.33,36.86a110.82,110.82,0,0,1-32.55,5.37,110.8,110.8,0,0,1-32.54-5.37Z"/><polygon class="h" points="246.68 179.41 245.08 219.07 233.25 219.07 230.92 182.21 230.94 182.21 246.68 179.41"/><path class="h" d="M188.58,142.36l12.12-1.56,12.13,1.56c4.41,1.31,7.24,3.31,7.24,5.56,0,3.94-8.67,7.12-19.37,7.12s-19.37-3.18-19.37-7.12C181.33,145.67,184.16,143.67,188.58,142.36Z"/><polygon class="h" points="170.49 182.21 168.16 219.07 155.24 219.07 153.63 179.21 170.46 182.21 170.49 182.21"/><path class="i" d="M212.83,142.36c4.41,1.31,7.24,3.31,7.24,5.56,0,3.94-8.67,7.12-19.37,7.12s-19.37-3.18-19.37-7.12c0-2.25,2.83-4.25,7.25-5.56a47.9,47.9,0,0,1,24.25,0Z"/><polyline class="i" points="171.65 163.92 170.49 182.21 168.16 219.07"/><polyline class="i" points="229.75 163.92 230.92 182.21 233.25 219.07"/><path class="j" d="M233.25,219.07a110.82,110.82,0,0,1-32.55,5.37"/><polyline class="k" points="246.68 179.41 245.08 219.07 233.25 219.07"/><path class="j" d="M168.16,219.07a110.8,110.8,0,0,0,32.54,5.37"/><polyline class="k" points="153.63 179.21 155.24 219.07 168.16 219.07"/><path class="l" d="M200.7,140.8l-12.12,1.56-25.35,3.27s-7.81,1.35-8.88,10.49-3.49,22.6-3.49,22.6l2.77.49,16.83,3"/><path class="l" d="M200.7,140.8l12.13,1.56,25.34,3.27s7.81,1.35,8.88,10.49,3.5,22.6,3.5,22.6l-3.87.69-15.74,2.8"/><path class="h" d="M222.28,108.33s4.31-3,4.31,2.42-5,8.41-5,8.41A21.9,21.9,0,0,1,222.28,108.33Z"/><path class="m" d="M209.8,106c2.93.61,5.19,1.62,5,2.27s-2.61.67-5.53.06-5.19-1.62-5-2.26S206.88,105.36,209.8,106Z"/><path class="n" d="M210.19,110.43c2.37.47,4,2.27,3.65,4a7.54,7.54,0,0,0-8.56-1.71C205.63,111,207.82,110,210.19,110.43Z"/><path class="b" d="M211.13,113.54c.75.15,1.26.71,1.15,1.26a1.24,1.24,0,0,1-1.55.73c-.74-.15-1.26-.72-1.15-1.27A1.24,1.24,0,0,1,211.13,113.54Z"/><path class="o" d="M212.28,114.8c.11-.55-.4-1.11-1.15-1.26a1.24,1.24,0,0,0-1.55.72c-.11.55.41,1.12,1.15,1.27A1.24,1.24,0,0,0,212.28,114.8Zm1.56-.36c-.34,1.74-2.54,2.77-4.91,2.3s-4-2.27-3.65-4a7.54,7.54,0,0,1,8.56,1.71Z"/><path class="h" d="M200.93,131.45c4.58,0,8.29,2.08,8.29,4.67s-3.71,4.66-8.29,4.66-8.29-2.09-8.29-4.66S196.35,131.45,200.93,131.45Z"/><path class="m" d="M176.49,122.39a23,23,0,0,0,.37-5.11,21.6,21.6,0,0,0-1.52-6.45,47.57,47.57,0,0,0-4.83-9.1,15.66,15.66,0,0,1,3.62,2.15,12.84,12.84,0,0,1,1.93,3s-2.5-8-2.61-13.51,0-6.93,0-6.93L177.87,96A40.36,40.36,0,0,1,176,85.83c-.11-4.74-2.78-10.11-2.94-10.43l8.41,13.19-.51-15.74,3.28,5.69.22-11.05L190.62,77l4.6-15.19,7.19,15.53L210,70l-.15,9.28,10.62-9.11-3.17,10.59,7.09-4.89-1.28,5.58,7.75-1.62-5.13,12,4.88-2.59-4.41,6.43,3.19,1.18s-1.59,1-5.9,8.74a18,18,0,0,0-1.25,2.75,21.9,21.9,0,0,0-.72,10.83c.41,2.74,1.1,5.22,1.51,7.2a26.79,26.79,0,0,1,0,9.76l-2.72-4.66a16.28,16.28,0,0,1,0,5.51,54.59,54.59,0,0,1-2.83,6.87l-.8-7.72-2.84,11.59-3.18-5.11L207.17,149l-1.93-2.84-2.83,4.77-1.48-7.5-3.29,8.18-2-2.73L194,152.13a18,18,0,0,1-1.3-4L189.46,145l-1.82,5.34a11.47,11.47,0,0,0-2.5-6.36,6.72,6.72,0,0,1-1.51-5.27l.15-.74a4.8,4.8,0,0,0-.15.74l-1.1,5.27L180,137l-2.92,5.17L179,131.92l-2.14,2.28V127l-3.19,3.62A29.76,29.76,0,0,0,176.49,122.39Zm42.83-1.59c.12-6.47-2.27-7.38-.45-20.1h-2.73l2.39-7.38-4.21,3.18V91.28l-4,7V89.23l-3.18,6.82L206,89.23l-3.63,7.5V89.8l-2.28,3.75-2.49-4.32-1.59,8.06-3.3-5.45.11,6-2.6-4.31L188,102.63l-6-9.08s1,11.92,0,17.2-3.06,12.77-1.36,18.57l1.82-4.21v6.34l1.87-2,1.14,7,1-5.8,1.82,4.43,2.38-5.78,1.59,2.94.45-5.33,2.61,2.61,3.69-3.87h0a6.9,6.9,0,0,0,3.46.7,5.3,5.3,0,0,0,2.65-.65l2.57,3.61,1.36-3,1.37,7,1.47-4.88,1.14,3.63,1.59-5.79,2.38,4.2S219.21,127.27,219.32,120.8Zm-10.1,15.32c0-2.59-3.71-4.67-8.29-4.67s-8.29,2.08-8.29,4.67,3.71,4.66,8.29,4.66S209.22,138.69,209.22,136.12Z"/><path class="h" d="M213.84,114.44c.35-1.74-1.28-3.54-3.65-4s-4.56.56-4.91,2.3,1.28,3.53,3.65,4S213.5,116.18,213.84,114.44Zm-8.67,11.27a5.3,5.3,0,0,1-2.65.65,6.9,6.9,0,0,1-3.46-.7h0l-3.69,3.87-2.61-2.61-.45,5.33-1.59-2.94-2.38,5.78-1.82-4.43-1,5.8-1.14-7-1.87,2v-6.34l-1.82,4.21c-1.7-5.8.34-13.29,1.36-18.57s0-17.2,0-17.2l6,9.08,2.28-9.08,2.6,4.31-.11-6,3.3,5.45,1.59-8.06,2.49,4.32,2.28-3.75v6.93l3.63-7.5,1.13,6.82,3.18-6.82v9.08l4-7V96.5l4.21-3.18-2.39,7.38h2.73c-1.82,12.72.57,13.63.45,20.1s-2.27,9.76-2.27,9.76l-2.38-4.2-1.59,5.79-1.14-3.63-1.47,4.88-1.37-7-1.36,3Zm9.68-17.47c.14-.65-2.12-1.66-5-2.27s-5.4-.58-5.53.07,2.12,1.65,5,2.26S214.72,108.88,214.85,108.24Zm-23.83.05c2.9-.69,5.13-1.77,5-2.41s-2.63-.6-5.54.1-5.13,1.78-5,2.42S188.11,109,191,108.29Zm.86,8.45c2.37-.47,4-2.26,3.67-4s-2.54-2.78-4.91-2.31-4,2.25-3.67,4S189.51,117.2,191.88,116.74Z"/><path class="m" d="M196,105.88c.15.64-2.08,1.72-5,2.41s-5.39.75-5.54.11,2.08-1.73,5-2.42S195.84,105.24,196,105.88Z"/><path class="n" d="M195.55,112.74a10.12,10.12,0,0,0-4.91-.45,5.2,5.2,0,0,0-3.67,2.14c-.34-1.75,1.3-3.54,3.67-4S195.21,111,195.55,112.74Z"/><path class="b" d="M194.39,114.27c.11.55-.41,1.11-1.15,1.26a1.24,1.24,0,0,1-1.55-.73c-.11-.55.41-1.11,1.15-1.26S194.29,113.72,194.39,114.27Z"/><path class="o" d="M192.84,113.54c-.74.15-1.26.71-1.15,1.26a1.24,1.24,0,0,0,1.55.73c.74-.15,1.26-.71,1.15-1.26S193.59,113.4,192.84,113.54Zm2.71-.8c.34,1.74-1.3,3.53-3.67,4s-4.56-.57-4.91-2.31a5.2,5.2,0,0,1,3.67-2.14A10.12,10.12,0,0,1,195.55,112.74Z"/><path class="h" d="M176.86,117.28a23,23,0,0,1-.37,5.11,7.69,7.69,0,0,1-4.86-6.7c-.39-5.23,3.71-4.86,3.71-4.86A21.6,21.6,0,0,1,176.86,117.28Z"/><path class="p" d="M199.05,125.67l-3.69,3.87-2.61-2.61-.45,5.33-1.59-2.94-2.38,5.78-1.82-4.43-1,5.8-1.14-7-1.87,2v-6.34l-1.82,4.21c-1.7-5.8.34-13.29,1.36-18.57s0-17.2,0-17.2l6,9.08,2.28-9.08,2.6,4.31-.11-6,3.3,5.45,1.59-8.06,2.49,4.32,2.28-3.75v6.93l3.63-7.5,1.13,6.82,3.18-6.82v9.08l4-7V96.5l4.21-3.18-2.39,7.38h2.73c-1.82,12.72.57,13.63.45,20.1s-2.27,9.76-2.27,9.76l-2.38-4.2-1.59,5.79-1.14-3.63-1.47,4.88-1.37-7-1.36,3-2.57-3.61"/><path class="k" d="M199,118.42a8.57,8.57,0,0,0-1.36,4.53,2.89,2.89,0,0,0,1.42,2.71,6.9,6.9,0,0,0,3.46.7,5.3,5.3,0,0,0,2.65-.65,3.77,3.77,0,0,0,2-3.32,7.44,7.44,0,0,0-1.36-4"/><path class="p" d="M192.64,136.12c0,2.57,3.71,4.66,8.29,4.66s8.29-2.09,8.29-4.66-3.71-4.67-8.29-4.67S192.64,133.53,192.64,136.12Z"/><path class="j" d="M196.62,135.83s4.93,4.06,8.42,0"/><path class="p" d="M192.64,141.92v5.56a4.18,4.18,0,0,0,.06.68,18,18,0,0,0,1.3,4l1.63-3.29,2-4.08"/><path class="k" d="M222.28,108.33s4.31-3,4.31,2.42-5,8.41-5,8.41"/><path class="k" d="M175.34,110.83s-4.1-.37-3.71,4.86a7.69,7.69,0,0,0,4.86,6.7h0"/><line class="p" x1="181.42" y1="88.59" x2="182.99" y2="91.05"/><line class="p" x1="173.01" y1="75.4" x2="181.42" y2="88.59"/><path class="p" d="M177.88,96.05v0A40.36,40.36,0,0,1,176,85.83c-.11-4.74-2.78-10.11-2.94-10.43a0,0,0,0,1,0,0"/><path class="p" d="M170.5,101.72h0a15.66,15.66,0,0,1,3.62,2.15,12.84,12.84,0,0,1,1.93,3s-2.5-8-2.61-13.51,0-6.93,0-6.93L177.87,96"/><path class="p" d="M173.69,130.66a29.76,29.76,0,0,0,2.8-8.27,23,23,0,0,0,.37-5.11,21.6,21.6,0,0,0-1.52-6.45,47.57,47.57,0,0,0-4.83-9.1"/><polyline class="p" points="183.78 137.94 183.78 137.95 183.63 138.69 182.53 143.96 180 136.97 177.08 142.14 179.02 131.92 176.88 134.2 176.88 127.04 173.69 130.66 173.68 130.68"/><path class="p" d="M192.7,148.16,189.46,145l-1.82,5.34a11.47,11.47,0,0,0-2.5-6.36,6.72,6.72,0,0,1-1.51-5.27,4.8,4.8,0,0,1,.15-.74"/><polyline class="p" points="181.42 88.59 181.42 88.58 180.91 72.86"/><path class="p" d="M220.34,131.45h0l2.72,4.66a26.79,26.79,0,0,0,0-9.76c-.41-2-1.1-4.46-1.51-7.2a21.9,21.9,0,0,1,.72-10.83,18,18,0,0,1,1.25-2.75c4.31-7.72,5.9-8.74,5.9-8.74l-3.19-1.18"/><path class="p" d="M195.63,148.84l2,2.73,3.29-8.18,1.48,7.5,2.83-4.77,1.93,2.84,3.52-6.36,3.18,5.11,2.84-11.59.8,7.72a54.59,54.59,0,0,0,2.83-6.87,16.28,16.28,0,0,0,0-5.51"/><polyline class="p" points="188.92 86.73 184.19 78.54 180.91 72.86"/><line class="p" x1="184.19" y1="78.54" x2="184.41" y2="67.49"/><polyline class="p" points="196.07 85.29 190.62 76.97 184.41 67.49"/><line class="p" x1="190.62" y1="76.97" x2="195.22" y2="61.78"/><polyline class="p" points="204.67 82.22 202.41 77.31 195.22 61.78"/><line class="p" x1="202.41" y1="77.31" x2="210.04" y2="69.96"/><polyline class="p" points="209.79 85.2 209.89 79.24 210.04 69.96"/><line class="p" x1="209.89" y1="79.24" x2="220.51" y2="70.13"/><line class="p" x1="217.34" y1="80.72" x2="220.51" y2="70.13"/><line class="p" x1="215.66" y1="86.31" x2="217.34" y2="80.72"/><polyline class="p" points="224.43 75.83 217.34 80.72 217.34 80.72"/><polyline class="p" points="220.89 91.33 223.16 81.41 224.43 75.83"/><line class="p" x1="230.9" y1="79.79" x2="223.15" y2="81.41"/><polyline class="p" points="220.89 94.4 225.77 91.82 230.65 89.23"/><line class="p" x1="230.9" y1="79.79" x2="225.77" y2="91.82"/><path class="q" d="M196,105.88c.15.64-2.08,1.72-5,2.41s-5.39.75-5.54.11,2.08-1.73,5-2.42S195.84,105.24,196,105.88Z"/><polyline class="p" points="222.66 100.87 226.23 95.66 226.24 95.66 230.65 89.23"/><path class="j" d="M195.55,112.74c.34,1.74-1.3,3.53-3.67,4s-4.56-.57-4.91-2.31,1.3-3.54,3.67-4S195.21,111,195.55,112.74Z"/><path class="j" d="M213.84,114.44c-.34,1.74-2.54,2.77-4.91,2.3s-4-2.27-3.65-4,2.54-2.77,4.91-2.3S214.19,112.7,213.84,114.44Z"/><path class="q" d="M214.85,108.24c-.13.64-2.61.67-5.53.06s-5.19-1.62-5-2.26,2.61-.68,5.53-.07S215,107.59,214.85,108.24Z"/><path class="j" d="M187,114.43a5.2,5.2,0,0,1,3.67-2.14,10.12,10.12,0,0,1,4.91.45"/><path class="j" d="M205.28,112.73a7.54,7.54,0,0,1,8.56,1.71"/><rect class="r" y="195.21" width="386" height="83.79"/><path class="s" d="M244.45,233.9c8,0,10.44-2.42,10.42-5.89,3.73,11-4.06,12.2-4.06,12.2H133.64s-7.78-1.17-4.06-12.2c0,3.47,2.38,5.89,10.43,5.89H244.45Z"/><path class="t" d="M244.67,214.49l-1.74-4.38H169.2l-.28,1.76-.41,2.62-.45,2.79-.44,2.75h79.25l-1.08-2.74ZM254.87,228c0,3.47-2.38,5.89-10.42,5.89H140c-8,0-10.45-2.42-10.43-5.89,0-3.17,2.1-7.2,3.75-11.06a61.87,61.87,0,0,1,3.53-7.16,7.39,7.39,0,0,1,6.36-3.62h98a7.42,7.42,0,0,1,6.36,3.62,62.16,62.16,0,0,1,3.52,7.16C252.78,220.81,254.85,224.84,254.87,228Zm-6.59,1.62-2.37-4.46h-78l-.79,4.46h81.18Zm-86.55-14.22,1.26-5.3H143.61l-2.53,5.3-2.2,4.62h21.74ZM157,226.55c0-1.71-1.91-3.09-4.27-3.09s-4.28,1.38-4.28,3.09,1.91,3.08,4.28,3.08S157,228.25,157,226.55Zm-13.4,0c0-1.71-1.92-3.09-4.28-3.09s-4.28,1.38-4.28,3.09,1.92,3.08,4.28,3.08S143.61,228.25,143.61,226.55Z"/><polygon class="c" points="245.91 225.17 248.28 229.63 238.05 229.63 238.05 225.17 245.91 225.17"/><polygon class="c" points="245.79 217.29 246.88 220.03 238.05 220.03 238.05 217.29 245.79 217.29"/><polygon class="o" points="244.68 214.49 245.79 217.29 238.05 217.29 238.05 214.49 244.68 214.49"/><polygon class="c" points="242.93 210.11 244.68 214.49 238.05 214.49 238.05 210.11 242.93 210.11"/><rect class="c" x="230.17" y="225.17" width="7.88" height="4.45"/><rect class="o" x="230.17" y="217.29" width="7.88" height="2.74"/><rect class="c" x="230.17" y="214.49" width="7.88" height="2.8"/><rect class="o" x="230.17" y="210.11" width="7.88" height="4.38"/><rect class="c" x="222.28" y="225.17" width="7.88" height="4.45"/><rect class="c" x="222.28" y="217.29" width="7.88" height="2.74"/><rect class="o" x="222.28" y="214.49" width="7.88" height="2.8"/><polygon class="u" points="230.17 210.11 230.17 214.49 222.28 214.49 214.4 214.49 206.52 214.49 198.63 214.49 190.75 214.49 182.86 214.49 182.86 211.87 182.86 210.11 230.17 210.11"/><rect class="c" x="214.4" y="225.17" width="7.88" height="4.45"/><rect class="o" x="214.4" y="217.29" width="7.88" height="2.74"/><rect class="c" x="214.4" y="214.49" width="7.88" height="2.8"/><rect class="c" x="206.52" y="225.17" width="7.88" height="4.45"/><rect class="c" x="206.52" y="217.29" width="7.88" height="2.74"/><rect class="o" x="206.52" y="214.49" width="7.88" height="2.8"/><rect class="c" x="198.63" y="225.17" width="7.88" height="4.45"/><rect class="o" x="198.63" y="217.29" width="7.88" height="2.74"/><rect class="c" x="198.63" y="214.49" width="7.88" height="2.8"/><rect class="c" x="190.75" y="225.17" width="7.88" height="4.45"/><rect class="c" x="190.75" y="217.29" width="7.88" height="2.74"/><rect class="o" x="190.75" y="214.49" width="7.88" height="2.8"/><rect class="c" x="182.86" y="225.17" width="7.88" height="4.45"/><rect class="o" x="182.86" y="217.29" width="7.88" height="2.74"/><rect class="c" x="182.86" y="214.49" width="7.88" height="2.8"/><rect class="c" x="174.98" y="225.17" width="7.88" height="4.45"/><rect class="c" x="174.98" y="217.29" width="7.88" height="2.74"/><rect class="o" x="174.98" y="214.49" width="7.88" height="2.8"/><rect class="c" x="174.98" y="211.87" width="7.88" height="2.63"/><rect class="o" x="174.98" y="210.11" width="7.88" height="1.76"/><polygon class="c" points="174.98 225.17 174.98 229.63 167.1 229.63 167.89 225.17 174.98 225.17"/><polygon class="o" points="174.98 217.29 174.98 220.03 167.62 220.03 168.06 217.28 168.1 217.29 174.98 217.29"/><polygon class="c" points="174.98 214.49 174.98 217.29 168.1 217.29 168.06 217.28 168.51 214.49 174.98 214.49"/><polygon class="o" points="174.98 211.87 174.98 214.49 168.51 214.49 168.92 211.87 174.98 211.87"/><polygon class="c" points="174.98 210.11 174.98 211.87 168.92 211.87 169.2 210.11 174.98 210.11"/><polygon class="o" points="162.99 210.11 161.73 215.41 154.85 215.41 155.81 210.79 155.81 210.11 162.99 210.11"/><polygon class="o" points="161.73 215.41 160.62 220.03 153.89 220.03 154.85 215.41 161.73 215.41"/><path class="u" d="M152.74,223.46c2.36,0,4.27,1.38,4.27,3.09s-1.91,3.08-4.27,3.08-4.28-1.38-4.28-3.08S150.37,223.46,152.74,223.46Z"/><polygon class="o" points="155.81 210.11 155.81 210.79 154.85 215.41 147.9 215.41 150.03 210.11 155.81 210.11"/><polygon class="c" points="154.85 215.41 153.89 220.03 146.04 220.03 147.9 215.41 154.85 215.41"/><polygon class="c" points="150.03 210.11 147.9 215.41 141.08 215.41 143.61 210.11 150.03 210.11"/><polygon class="c" points="147.9 215.41 146.04 220.03 138.88 220.03 141.08 215.41 147.9 215.41"/><path class="u" d="M139.33,223.46c2.36,0,4.28,1.38,4.28,3.09s-1.92,3.08-4.28,3.08-4.28-1.38-4.28-3.08S137,223.46,139.33,223.46Z"/><path class="v" d="M191.79,206.17H143.22a7.39,7.39,0,0,0-6.36,3.62,61.87,61.87,0,0,0-3.53,7.16c-1.65,3.86-3.72,7.89-3.75,11.06,0,3.47,2.38,5.89,10.43,5.89h51.78"/><path class="v" d="M191.79,240.21H133.64s-7.78-1.17-4.06-12.2h0"/><path class="v" d="M191.79,206.17h49.45a7.42,7.42,0,0,1,6.36,3.62,62.16,62.16,0,0,1,3.52,7.16c1.66,3.86,3.73,7.89,3.75,11.06,0,3.47-2.38,5.89-10.42,5.89H191.79"/><path class="v" d="M191.79,240.21h59s7.79-1.17,4.06-12.2h0"/><polygon class="w" points="238.05 229.63 248.28 229.63 245.91 225.17 238.05 225.17 230.17 225.17 222.28 225.17 214.4 225.17 206.52 225.17 198.63 225.17 190.75 225.17 182.86 225.17 174.98 225.17 167.89 225.17 167.1 229.63 174.98 229.63 182.86 229.63 190.75 229.63 198.63 229.63 206.52 229.63 214.4 229.63 222.28 229.63 230.17 229.63 238.05 229.63"/><polygon class="w" points="245.79 217.29 246.88 220.03 238.05 220.03 230.17 220.03 222.28 220.03 214.4 220.03 206.52 220.03 198.63 220.03 190.75 220.03 182.86 220.03 174.98 220.03 167.62 220.03 168.06 217.28 168.51 214.49 168.92 211.87 169.2 210.11 174.98 210.11 182.86 210.11 230.17 210.11 238.05 210.11 242.93 210.11 244.68 214.49 245.79 217.29"/><polygon class="w" points="141.08 215.41 143.61 210.11 150.03 210.11 155.81 210.11 162.99 210.11 161.73 215.41 160.62 220.03 153.89 220.03 146.04 220.03 138.88 220.03 141.08 215.41"/><path class="w" d="M143.61,226.55c0,1.7-1.92,3.08-4.28,3.08s-4.28-1.38-4.28-3.08,1.92-3.09,4.28-3.09S143.61,224.84,143.61,226.55Z"/><path class="w" d="M157,226.55c0,1.7-1.91,3.08-4.27,3.08s-4.28-1.38-4.28-3.08,1.91-3.09,4.28-3.09S157,224.84,157,226.55Z"/><line class="w" x1="174.98" y1="229.63" x2="174.98" y2="225.17"/><line class="w" x1="182.86" y1="229.63" x2="182.86" y2="225.17"/><line class="w" x1="190.75" y1="229.63" x2="190.75" y2="225.17"/><line class="w" x1="198.63" y1="229.63" x2="198.63" y2="225.17"/><line class="w" x1="206.52" y1="229.63" x2="206.52" y2="225.17"/><line class="w" x1="214.4" y1="229.63" x2="214.4" y2="225.17"/><line class="w" x1="222.28" y1="229.63" x2="222.28" y2="225.17"/><line class="w" x1="230.17" y1="229.63" x2="230.17" y2="225.17"/><line class="w" x1="238.05" y1="229.63" x2="238.05" y2="225.17"/><polyline class="w" points="146.04 220.03 147.9 215.41 150.03 210.11"/><polyline class="w" points="153.89 220.03 154.85 215.41 155.81 210.79"/><polyline class="w" points="141.08 215.41 147.9 215.41 154.85 215.41 161.73 215.41"/><polyline class="w" points="245.79 217.29 238.05 217.29 230.17 217.29 222.28 217.29 214.4 217.29 206.52 217.29 198.63 217.29 190.75 217.29 182.86 217.29 174.98 217.29 168.1 217.29"/><polyline class="w" points="168.5 214.49 168.51 214.49 174.98 214.49 182.86 214.49 190.75 214.49 198.63 214.49 206.52 214.49 214.4 214.49 222.28 214.49 230.17 214.49 238.05 214.49 244.68 214.49 244.7 214.49"/><polyline class="w" points="182.86 211.87 174.98 211.87 168.92 211.87 168.9 211.87"/><polyline class="w" points="174.98 220.03 174.98 217.29 174.98 214.49 174.98 211.87 174.98 210.11"/><polyline class="w" points="182.86 220.03 182.86 217.29 182.86 214.49 182.86 211.87 182.86 210.11"/><polyline class="w" points="190.75 220.03 190.75 217.29 190.75 214.49"/><polyline class="w" points="198.63 220.03 198.63 217.29 198.63 214.49"/><polyline class="w" points="206.52 220.03 206.52 217.29 206.52 214.49"/><polyline class="w" points="214.4 220.03 214.4 217.29 214.4 214.49"/><polyline class="w" points="222.28 220.03 222.28 217.29 222.28 214.49"/><polyline class="w" points="230.17 220.03 230.17 217.29 230.17 214.49 230.17 210.11"/><polyline class="w" points="238.05 220.03 238.05 217.29 238.05 214.49 238.05 210.11"/><path class="x" d="M273,214.07c.13,5.59,2.28,7.16,2.28,7.16l.43,2.39H269s-1.11.39-3.48-4c-.13-.25-.27-.51-.41-.79-2.66-5.18-3-7.06-.95-7.91a18.39,18.39,0,0,1,6.94-1.41Z"/><path class="t" d="M275.25,221.23s-2.15-1.57-2.28-7.16c0,0,2-.67,3.39,2.52S275.25,221.23,275.25,221.23Z"/><path class="x" d="M273,214.07l-1.83-4.52a16.7,16.7,0,0,1,10.86,4h0q.38,1.38.69,2.91a18.35,18.35,0,0,1,.38,7.18h-7.4l-.43-2.39s2.48-1.46,1.11-4.64S273,214.07,273,214.07Z"/><path class="u" d="M265.56,219.66c2.37,4.35,3.48,4,3.48,4h14c-.56,2.82-2.09,3.23-2.09,3.23H270.81c-4.18,0-5.83-4.16-5.83-4.16l-1.15-2.05Z"/><path class="u" d="M265.15,218.87c.14.28.28.54.41.79l-1.73,1-6.73-11.91s-1.11-7.44,9.5-7.44c9.48,0,13.29,4.56,15.41,12.24h0a16.7,16.7,0,0,0-10.86-4A18.39,18.39,0,0,0,264.2,211C262.15,211.81,262.49,213.69,265.15,218.87Z"/><path class="y" d="M265,222.69s1.65,4.16,5.83,4.16H281L278.76,229H268.57s-2.06-.08-6-6.5-4.88-8.45-4.88-8.45l-.6-5.34,6.73,11.91Z"/><path class="w" d="M263.83,220.64l1.15,2.05s1.65,4.16,5.83,4.16H281s1.53-.41,2.09-3.23a18.35,18.35,0,0,0-.38-7.18q-.31-1.53-.69-2.91c-2.12-7.68-5.93-12.24-15.41-12.24-10.61,0-9.5,7.44-9.5,7.44Z"/><path class="w" d="M281,226.85,278.76,229H268.57s-2.06-.08-6-6.5-4.88-8.45-4.88-8.45l-.6-5.34"/><path class="w" d="M283.07,223.62H269s-1.11.39-3.48-4c-.13-.25-.27-.51-.41-.79-2.66-5.18-3-7.06-.95-7.91a18.39,18.39,0,0,1,6.94-1.41,16.7,16.7,0,0,1,10.86,4"/><path class="w" d="M273,214.07s2-.67,3.39,2.52-1.11,4.64-1.11,4.64S273.1,219.66,273,214.07Z"/><line class="w" x1="272.97" y1="214.07" x2="271.14" y2="209.55"/><polyline class="w" points="275.25 221.23 275.68 223.62 275.68 223.63"/><line class="z" y1="195.21" x2="386" y2="195.21"/><path class="aa" d="M123.38,175.05c6.52,0,11.81,2.36,11.81,5.26l-.09.66a3.54,3.54,0,0,1-1.06,1.61c-1.89-1.77-6-3-10.66-3s-8.75,1.22-10.65,3a3.43,3.43,0,0,1-1-1.61l-.09-.66C111.59,177.41,116.87,175.05,123.38,175.05Z"/><path d="M123.38,179.58c4.7,0,8.77,1.23,10.66,3-1.89,1.78-6,3-10.66,3s-8.76-1.23-10.65-3C114.63,180.8,118.69,179.58,123.38,179.58Z"/><path class="u" d="M127.55,166.12c.74.79-1.67,4.54-1.67,4.54.31-2.42-.7-1.87-1-4s2-3.67,2-3.67S126.82,165.33,127.55,166.12Z"/><path class="u" d="M121.12,161.13c1.23,1.32-2.8,7.59-2.8,7.59.53-4.05-1.15-3.13-1.7-6.77s3.41-6.1,3.41-6.1S119.89,159.8,121.12,161.13Z"/><path class="ab" d="M134,182.58A3.54,3.54,0,0,0,135.1,181l-1.85,13-1.54,10.88c0,2.91-3.73,5.27-8.33,5.27s-8.32-2.36-8.32-5.27L113.53,194l-1.85-13a3.43,3.43,0,0,0,1,1.61c1.89,1.78,6,3,10.65,3S132.15,184.36,134,182.58Z"/><path class="ac" d="M135.19,180.31a3,3,0,0,1-.09.66,3.54,3.54,0,0,1-1.06,1.61c-1.89,1.78-6,3-10.66,3s-8.76-1.23-10.65-3a3.43,3.43,0,0,1-1-1.61,2.5,2.5,0,0,1-.09-.66c0-2.9,5.28-5.26,11.79-5.26S135.19,177.41,135.19,180.31Z"/><path class="d" d="M112.51,182.79a2.18,2.18,0,0,1,.22-.21c1.9-1.78,6-3,10.65-3s8.77,1.23,10.66,3"/><path class="ac" d="M111.59,180.31l.09.66,1.85,13,1.53,10.88c0,2.91,3.73,5.27,8.32,5.27s8.33-2.36,8.33-5.27L133.25,194l1.85-13,.09-.66"/><polygon class="x" points="129.6 84.12 112.86 148.41 110.61 147.63 127.33 83.41 129.6 84.12"/><path class="t" d="M127.33,83.41l-16.72,64.22L28,121.16,44.75,57ZM92.18,106.75c1.81-6-2.71-12.69-10.1-14.91s-14.84.85-16.66,6.87,2.72,12.69,10.1,14.91S90.37,112.77,92.18,106.75Z"/><polygon class="x" points="112.7 152.59 112.7 217.28 109.22 218.68 109.22 154.46 112.7 152.59"/><polygon class="u" points="112.7 152.59 109.22 154.46 26.64 127.99 29.43 125.9 112.7 152.59"/><path class="t" d="M109.22,154.46v64.22L26.64,192.21V128ZM81,177.8c1.81-6-2.71-12.69-10.1-14.91s-14.84.84-16.65,6.86,2.72,12.69,10.1,14.92S79.22,183.82,81,177.8Z"/><path class="u" d="M82.08,91.84c7.39,2.22,11.91,8.9,10.1,14.91s-9.27,9.09-16.66,6.87-11.9-8.9-10.1-14.91S74.69,89.62,82.08,91.84Z"/><path class="u" d="M70.93,162.89c7.39,2.22,11.91,8.89,10.1,14.91s-9.26,9.09-16.65,6.87-11.9-8.91-10.1-14.92S63.54,160.66,70.93,162.89Z"/><polygon class="e" points="109.22 218.68 26.64 192.21 26.64 127.99 109.22 154.46 109.22 218.68"/><polyline class="e" points="28.04 121.16 44.75 56.95 127.33 83.41 110.61 147.63"/><line class="e" x1="110.61" y1="147.63" x2="28.04" y2="121.16"/><polyline class="e" points="109.22 218.68 112.7 217.28 112.7 152.59 29.43 125.9 26.64 127.99"/><line class="e" x1="112.7" y1="152.59" x2="109.22" y2="154.46"/><polyline class="e" points="127.33 83.41 129.6 84.12 112.86 148.41 110.61 147.63"/><path class="e" d="M81,177.8c-1.81,6-9.26,9.09-16.65,6.87s-11.9-8.91-10.1-14.92,9.26-9.09,16.65-6.86S82.84,171.78,81,177.8Z"/><path class="e" d="M92.18,106.75c-1.81,6-9.27,9.09-16.66,6.87s-11.9-8.9-10.1-14.91,9.27-9.09,16.66-6.87S94,100.74,92.18,106.75Z"/><path class="c" d="M28.42,226.35a7.4,7.4,0,0,1,.29-2.44c1.92-6.35,12.71-9.06,26.49-7.49v15.46c-1,3.43,2.71,7.59,8.37,9.28s11.06.3,12.09-3.13V221.4c16.15,6,27.3,15.56,26.77,23.08a7,7,0,0,1-.28,1.52c-2.57,8.53-21.08,10.5-41.36,4.4C42.38,244.85,28.85,234.58,28.42,226.35Z"/><path class="c" d="M80.65,96.58c4.18,1.25,6.74,5,5.71,8.42a5.81,5.81,0,0,1-3.22,3.56h0l-7.48,1.82V96.47A9,9,0,0,1,80.65,96.58Z"/><path class="c" d="M67.3,86.84c5.65,1.69,9.39,5.86,8.36,9.28S69.21,101,63.57,99.25c-4.37-1.31-7.6-4.09-8.37-6.87V90C56.24,86.54,61.65,85.14,67.3,86.84Z"/><path class="u" d="M75.66,96.47V238c-1,3.43-6.45,4.84-12.09,3.13s-9.4-5.85-8.37-9.28V92.38c.77,2.78,4,5.56,8.37,6.87,5.64,1.7,11.06.3,12.09-3.13Z"/><path class="s" d="M28.42,226.35c.43,8.23,14,18.5,32.37,24.05,20.28,6.1,38.79,4.13,41.36-4.4a7,7,0,0,0,.28-1.52v6.2h-.1a6.46,6.46,0,0,1-.18.76c-2.57,8.53-21.08,10.49-41.36,4.4-18-5.43-31.38-15.4-32.32-23.54h0Z"/><polyline class="e" points="102.43 244.48 102.43 250.68 102.43 250.7"/><path class="e" d="M75.66,221.4c16.15,6,27.3,15.56,26.77,23.08a7,7,0,0,1-.28,1.52c-2.57,8.53-21.08,10.5-41.36,4.4-18.41-5.55-31.94-15.82-32.37-24.05a7.4,7.4,0,0,1,.29-2.44c1.92-6.35,12.71-9.06,26.49-7.49"/><path class="e" d="M75.66,96.12c-1,3.43-6.45,4.83-12.09,3.13-4.37-1.31-7.6-4.09-8.37-6.87a4.39,4.39,0,0,1,0-2.41c1-3.43,6.45-4.83,12.1-3.13S76.69,92.7,75.66,96.12Z"/><path class="e" d="M102.33,250.68a6.46,6.46,0,0,1-.18.76c-2.57,8.53-21.08,10.49-41.36,4.4-18-5.43-31.38-15.4-32.32-23.54"/><polyline class="e" points="28.42 225.91 28.42 226.35 28.42 232.3 28.42 232.31"/><polyline class="e" points="55.2 231.88 55.2 216.41 55.2 92.38 55.2 89.97"/><polyline class="e" points="75.66 238.03 75.66 221.4 75.66 110.37 75.66 96.47 75.66 96.12"/><path class="e" d="M75.66,238c-1,3.43-6.45,4.84-12.09,3.13s-9.4-5.85-8.37-9.28"/><line class="e" x1="83.14" y1="108.55" x2="75.66" y2="110.37"/><path class="e" d="M75.66,96.47a9,9,0,0,1,5,.11c4.18,1.25,6.74,5,5.71,8.42a5.81,5.81,0,0,1-3.22,3.56"/><polygon class="x" points="260.02 84.12 276.75 148.41 279 147.63 262.28 83.41 260.02 84.12"/><path class="t" d="M262.28,83.41,279,147.63l82.58-26.47L344.86,57Zm35.15,23.34c-1.81-6,2.72-12.69,10.1-14.91s14.85.85,16.66,6.87-2.72,12.69-10.1,14.91S299.25,112.77,297.43,106.75Z"/><polygon class="x" points="276.91 152.59 276.91 217.28 280.39 218.68 280.39 154.46 276.91 152.59"/><polygon class="u" points="276.91 152.59 280.39 154.46 362.97 127.99 360.18 125.9 276.91 152.59"/><path class="t" d="M280.39,154.46v64.22L363,192.21V128Zm28.19,23.34c-1.81-6,2.71-12.69,10.1-14.91s14.84.84,16.65,6.86-2.71,12.69-10.1,14.92S310.39,183.82,308.58,177.8Z"/><path class="u" d="M307.53,91.84c-7.38,2.22-11.91,8.9-10.1,14.91s9.27,9.09,16.66,6.87,11.91-8.9,10.1-14.91S314.92,89.62,307.53,91.84Z"/><path class="u" d="M318.68,162.89c-7.39,2.22-11.91,8.89-10.1,14.91s9.26,9.09,16.65,6.87,11.91-8.91,10.1-14.92S326.07,160.66,318.68,162.89Z"/><polygon class="e" points="280.39 218.68 362.97 192.21 362.97 127.99 280.39 154.46 280.39 218.68"/><polyline class="e" points="361.58 121.16 344.86 56.95 262.28 83.41 279 147.63"/><line class="e" x1="279" y1="147.63" x2="361.58" y2="121.16"/><polyline class="e" points="280.39 218.68 276.91 217.28 276.91 152.59 360.18 125.9 362.97 127.99"/><line class="e" x1="276.91" y1="152.59" x2="280.39" y2="154.46"/><polyline class="e" points="262.28 83.41 260.02 84.12 276.75 148.41 279 147.63"/><path class="e" d="M308.58,177.8c1.81,6,9.26,9.09,16.65,6.87s11.91-8.91,10.1-14.92-9.26-9.09-16.65-6.86S306.77,171.78,308.58,177.8Z"/><path class="e" d="M297.43,106.75c1.82,6,9.27,9.09,16.66,6.87s11.91-8.9,10.1-14.91-9.27-9.09-16.66-6.87S295.62,100.74,297.43,106.75Z"/><path class="c" d="M361.19,226.35a7.14,7.14,0,0,0-.29-2.44c-1.92-6.35-12.71-9.06-26.49-7.49v15.46c1,3.43-2.71,7.59-8.37,9.28S315,241.46,314,238V221.4c-16.15,6-27.3,15.56-26.77,23.08a7,7,0,0,0,.28,1.52c2.57,8.53,21.08,10.5,41.36,4.4C347.24,244.85,360.77,234.58,361.19,226.35Z"/><path class="c" d="M309,96.58c-4.18,1.25-6.73,5-5.71,8.42a5.79,5.79,0,0,0,3.23,3.56h0l7.47,1.82V96.47A9,9,0,0,0,309,96.58Z"/><path class="c" d="M322.32,86.84c-5.66,1.69-9.4,5.86-8.37,9.28S320.4,101,326,99.25c4.37-1.31,7.6-4.09,8.37-6.87V90C333.38,86.54,328,85.14,322.32,86.84Z"/><path class="u" d="M314,96.47V238c1,3.43,6.45,4.84,12.09,3.13s9.4-5.85,8.37-9.28V92.38c-.77,2.78-4,5.56-8.37,6.87-5.64,1.7-11.06.3-12.09-3.13Z"/><path class="s" d="M361.19,226.35c-.42,8.23-13.95,18.5-32.37,24.05-20.28,6.1-38.79,4.13-41.36-4.4a7,7,0,0,1-.28-1.52v6.2h.1c.05.26.11.51.18.76,2.57,8.53,21.08,10.49,41.36,4.4,18-5.43,31.38-15.4,32.32-23.54h.05Z"/><polyline class="e" points="287.18 244.48 287.18 250.68 287.18 250.7"/><path class="e" d="M314,221.4c-16.15,6-27.3,15.56-26.77,23.08a7,7,0,0,0,.28,1.52c2.57,8.53,21.08,10.5,41.36,4.4,18.42-5.55,31.95-15.82,32.37-24.05a7.14,7.14,0,0,0-.29-2.44c-1.92-6.35-12.71-9.06-26.49-7.49"/><path class="e" d="M314,96.12c1,3.43,6.45,4.83,12.09,3.13,4.37-1.31,7.6-4.09,8.37-6.87a4.29,4.29,0,0,0,0-2.41c-1-3.43-6.45-4.83-12.09-3.13S312.92,92.7,314,96.12Z"/><path class="e" d="M287.28,250.68c.05.26.11.51.18.76,2.57,8.53,21.08,10.49,41.36,4.4,18-5.43,31.38-15.4,32.32-23.54"/><polyline class="e" points="361.19 225.91 361.19 226.35 361.19 232.3 361.19 232.31"/><polyline class="e" points="334.41 231.88 334.41 216.41 334.41 92.38 334.41 89.97"/><polyline class="e" points="313.95 238.03 313.95 221.4 313.95 110.37 313.95 96.47 313.95 96.12"/><path class="e" d="M314,238c1,3.43,6.45,4.84,12.09,3.13s9.4-5.85,8.37-9.28"/><line class="e" x1="306.48" y1="108.55" x2="313.95" y2="110.37"/><path class="e" d="M314,96.47a9,9,0,0,0-5,.11c-4.18,1.25-6.73,5-5.71,8.42a5.79,5.79,0,0,0,3.23,3.56"/></svg>