<svg xmlns="http://www.w3.org/2000/svg" viewBox="0 0 415.68 270.25"><defs><style>.a{fill:#dddfe8;}.b{fill:#f37739;}.c,.d,.e{fill:none;}.c,.d{stroke:#000;stroke-miterlimit:10;}.d{stroke-width:2px;}.e{stroke:#231f20;stroke-linecap:round;stroke-linejoin:round;}</style></defs><title>developer</title><path class="a" d="M412,255.27H341.79V161.44l45-11.4c40.34,16.89,25.2,49,25.2,49H400.31V190.6l-26.5,4.08v26.71h26.5v-8H412S431,233.17,412,255.27Z" transform="translate(-4.74 -9.22)"/><path class="a" d="M371.77,37S387.31,43.2,393,75.26l-11,3.65-2.66-8L355.44,83.05l8.39,25.37L389,100.1l-2.53-7.63,11.05-3.65s10.8,24.11-6.2,44.24l-52.78,17L306.61,78.5Z" transform="translate(-4.74 -9.22)"/><path class="a" d="M324.37,253.32a23.29,23.29,0,0,1,.48,9.11h-9.39l-.54-3s3.15-1.85,1.41-5.89-4.3-3.2-4.3-3.2l-2.32-5.73a21.18,21.18,0,0,1,13.77,5h0C323.81,250.8,324.1,252,324.37,253.32Z" transform="translate(-4.74 -9.22)"/><path class="a" d="M314.92,259.4l.54,3h-8.41s-1.42.49-4.42-5l-.52-1c-3.37-6.57-3.81-9-1.2-10a23.19,23.19,0,0,1,8.8-1.79l2.32,5.73C312.19,257.4,314.92,259.4,314.92,259.4Z" transform="translate(-4.74 -9.22)"/><path d="M276.44,202.66l24.33,18.73H279.24A71.72,71.72,0,0,0,276.44,202.66Z" transform="translate(-4.74 -9.22)"/><path class="a" d="M263.81,103.89v24.32s-1.3,8.47-8.25,8.47h-9.34l-.36-.16a43.77,43.77,0,0,0,4.06-19.38c-.27-12.16-6.58-19.27-13.75-23.44l.1-.18h18.85S263.81,95.2,263.81,103.89Z" transform="translate(-4.74 -9.22)"/><path class="a" d="M260.68,158.62,271.49,190a52.6,52.6,0,0,0-19.62-21.36c-10.77-6.51-13.45-11.38-12.71-16.55C258.73,152.08,260.68,158.62,260.68,158.62Z" transform="translate(-4.74 -9.22)"/><path class="a" d="M205.06,270.47h66.79c10.2,0,13.25-3.07,13.22-7.47,4.73,14-5.15,15.47-5.15,15.47H131.31S121.44,277,126.16,263c0,4.4,3,7.47,13.23,7.47Z" transform="translate(-4.74 -9.22)"/><path class="a" d="M176.54,93.52h18.85c-7.3,4.14-13.79,11.29-14.07,23.62a44,44,0,0,0,4.12,19.54h-9.33c-7,0-8.26-8.47-8.26-8.47V103.89C167.85,95.2,176.54,93.52,176.54,93.52Z" transform="translate(-4.74 -9.22)"/><path class="a" d="M192.07,152.06c.75,5.16-1.94,10-12.71,16.55a52.9,52.9,0,0,0-19.91,21.92l11-31.91S172.42,152.06,192.07,152.06Z" transform="translate(-4.74 -9.22)"/><path class="b" d="M215.59,87.84c-2.43.14-11.85.94-20.2,5.68H176.54s-8.69,1.68-8.69,10.37v24.32s1.31,8.47,8.26,8.47h9.33c2.76,6.19,6,10.89,6.63,15.38-19.65,0-21.61,6.56-21.61,6.56l-11,31.91,0,.07a69,69,0,0,0-4.63,12.07L133.1,221.39h-5.83l2.86-20.17a3.85,3.85,0,0,0,.14-1c0-4.49-8.17-8.14-18.25-8.14s-18.24,3.65-18.24,8.14a3.85,3.85,0,0,0,.14,1l2.86,20.17H79.44V161.44L34.49,150s-10.77-5.32-4.57-17L82.7,150,114.63,78.5,49.47,37s152.62-62.49,322.3,0L306.61,78.5,338.53,150l52.78-17s5-1.72,4.93,6.56C396.1,150,386.75,150,386.75,150l-45,11.4v59.95h-41l-24.33-18.73A67.19,67.19,0,0,0,271.49,190l-10.81-31.35s-1.95-6.54-21.52-6.56c.65-4.52,3.94-9.27,6.7-15.54l.36.16h9.34c6.95,0,8.25-8.47,8.25-8.47V103.89c0-8.69-8.69-10.37-8.69-10.37H236.27l-.1.18c-8.43-4.9-18.06-5.72-20.52-5.86Zm-99.71,97.45s3.72-5.81,2.58-7-1-4.89-1-4.89-3.66,2.29-3.15,5.66S116.36,181.54,115.88,185.29Zm-11.68-3s6.22-9.7,4.32-11.74-1.69-8.17-1.69-8.17-6.11,3.83-5.27,9.44S105,176,104.2,182.29Z" transform="translate(-4.74 -9.22)"/><path d="M133.1,221.39l21.69-18.72A71.84,71.84,0,0,0,152,221.39Z" transform="translate(-4.74 -9.22)"/><path d="M128.5,203.71c-2.93,2.75-9.21,4.65-16.48,4.65s-13.54-1.9-16.47-4.65c2.94-2.75,9.21-4.64,16.47-4.64S125.57,201,128.5,203.71Z" transform="translate(-4.74 -9.22)"/><path class="a" d="M114.63,78.5,82.7,150l-52.78-17c-15-32.88-6.2-44.24-6.2-44.24l11.05,3.65-2.52,7.63,25.16,8.32,8.38-25.37L41.92,70.87l-2.66,8-11-3.65C33,41.25,49.47,37,49.47,37Z" transform="translate(-4.74 -9.22)"/><path class="a" d="M79.44,221.39v33.88H9.29c-10.23-23.07,0-41.92,0-41.92H20.93v8h26.5V194.68l-26.5-4.08v8.47H9.29c0-56.2,25.2-49,25.2-49l44.95,11.4Z" transform="translate(-4.74 -9.22)"/><polyline class="c" points="122.53 212.17 128.36 212.17 147.26 212.17 171.78 212.17 250.07 212.17 274.5 212.17 296.03 212.17 337.05 212.17"/><path class="d" d="M205.06,235.29h-61.6a9.38,9.38,0,0,0-8.07,4.6,78.36,78.36,0,0,0-4.47,9.08c-2.1,4.89-4.73,10-4.76,14,0,4.4,3,7.47,13.23,7.47h65.67" transform="translate(-4.74 -9.22)"/><path class="d" d="M205.06,278.47H131.31S121.44,277,126.16,263v0" transform="translate(-4.74 -9.22)"/><path class="c" d="M159.42,190.6a69,69,0,0,0-4.63,12.07A71.84,71.84,0,0,0,152,221.39" transform="translate(-4.74 -9.22)"/><path class="c" d="M215.59,87.84c-2.43.14-11.85.94-20.2,5.68-7.3,4.14-13.79,11.29-14.07,23.62a44,44,0,0,0,4.12,19.54c2.76,6.19,6,10.89,6.63,15.38.75,5.16-1.94,10-12.71,16.55a52.9,52.9,0,0,0-19.91,21.92" transform="translate(-4.74 -9.22)"/><path class="c" d="M216.18,87.82l-.53,0" transform="translate(-4.74 -9.22)"/><path class="d" d="M130.27,200.21a3.85,3.85,0,0,1-.14,1,5.42,5.42,0,0,1-1.63,2.49c-2.93,2.75-9.21,4.65-16.48,4.65s-13.54-1.9-16.47-4.65a5.42,5.42,0,0,1-1.63-2.49,3.85,3.85,0,0,1-.14-1c0-4.49,8.17-8.14,18.24-8.14S130.27,195.72,130.27,200.21Z" transform="translate(-4.74 -9.22)"/><path class="c" d="M95.21,204c.11-.11.22-.23.34-.33,2.94-2.75,9.21-4.64,16.47-4.64s13.55,1.9,16.48,4.64" transform="translate(-4.74 -9.22)"/><path class="d" d="M93.78,200.21l.14,1,2.86,20.17,2.38,16.82c0,4.5,5.76,8.15,12.86,8.15s12.87-3.65,12.87-8.15l2.38-16.82,2.86-20.17.14-1" transform="translate(-4.74 -9.22)"/><path class="c" d="M106.83,162.38s-6.11,3.83-5.27,9.44,3.45,4.2,2.64,10.47c0,0,6.22-9.7,4.32-11.74S106.83,162.38,106.83,162.38Z" transform="translate(-4.74 -9.22)"/><path class="c" d="M117.45,173.37s-3.66,2.29-3.15,5.66,2.06,2.51,1.58,6.26c0,0,3.72-5.81,2.58-7S117.45,173.37,117.45,173.37Z" transform="translate(-4.74 -9.22)"/><path class="c" d="M204.56,139.62s2.08,4.9,11.06,5.09h.56" transform="translate(-4.74 -9.22)"/><path class="c" d="M205.86,115.58a3.22,3.22,0,0,1-6.36,0" transform="translate(-4.74 -9.22)"/><polyline class="c" points="16.19 204.13 16.19 212.17 42.69 212.17 42.69 185.46 16.19 181.38 16.19 189.85"/><polyline class="c" points="30.03 83.25 27.51 90.88 52.67 99.2 61.05 73.83 37.18 61.65 34.52 69.69"/><path class="d" d="M205.06,235.29h62.72a9.39,9.39,0,0,1,8.07,4.6,80,80,0,0,1,4.47,9.08c2.1,4.89,4.72,10,4.75,14,0,4.4-3,7.47-13.22,7.47H205.06" transform="translate(-4.74 -9.22)"/><path class="d" d="M205.06,278.47h74.86S289.8,277,285.07,263v0" transform="translate(-4.74 -9.22)"/><path class="c" d="M215.06,87.82l.53,0h.06c2.46.14,12.09,1,20.52,5.86,7.17,4.17,13.48,11.28,13.75,23.44a43.77,43.77,0,0,1-4.06,19.38c-2.76,6.27-6.05,11-6.7,15.54-.74,5.17,1.94,10,12.71,16.55A52.6,52.6,0,0,1,271.49,190a67.19,67.19,0,0,1,4.95,12.69,71.72,71.72,0,0,1,2.8,18.73" transform="translate(-4.74 -9.22)"/><path class="c" d="M226.68,139.62s-2.08,4.9-11.06,5.09h-.56" transform="translate(-4.74 -9.22)"/><path class="c" d="M225.38,115.58a3.21,3.21,0,0,0,6.35,0" transform="translate(-4.74 -9.22)"/><polyline class="c" points="395.57 204.13 395.57 212.17 369.07 212.17 369.07 185.46 395.57 181.38 395.57 189.85"/><polyline class="c" points="381.72 83.25 384.25 90.88 359.09 99.2 350.7 73.83 374.58 61.65 377.24 69.69"/><line class="c" x1="92.04" y1="212.17" x2="74.7" y2="212.17"/><polyline class="c" points="128.36 212.17 150.05 193.45 150.06 193.44"/><line class="c" x1="271.7" y1="193.44" x2="296.03" y2="212.17"/><path class="d" d="M195.39,93.52H176.54s-8.69,1.68-8.69,10.37v24.32s1.31,8.47,8.26,8.47h9.33" transform="translate(-4.74 -9.22)"/><path class="d" d="M159.42,190.6l0-.07,11-31.91s2-6.56,21.61-6.56" transform="translate(-4.74 -9.22)"/><path class="d" d="M236.27,93.52h18.85s8.69,1.68,8.69,10.37v24.32s-1.3,8.47-8.25,8.47h-9.34" transform="translate(-4.74 -9.22)"/><path class="d" d="M271.71,190.6l-.22-.63-10.81-31.35s-1.95-6.54-21.52-6.56h-.1" transform="translate(-4.74 -9.22)"/><path class="c" d="M226.68,139.62c0,1.5-1.87,7.82-11.62,7.82-8.25,0-10.5-6.32-10.5-7.82" transform="translate(-4.74 -9.22)"/><path class="c" d="M176.52,221.39s-2.39-29.09,14.55-34.79" transform="translate(-4.74 -9.22)"/><path class="c" d="M254.81,221.39s2.39-29.09-14.55-34.79" transform="translate(-4.74 -9.22)"/><polygon class="c" points="259 255.83 271.97 255.83 268.97 250.18 259 250.18 249 250.18 239 250.18 229 250.18 219 250.18 209 250.18 199 250.18 189 250.18 179 250.18 170.01 250.18 169.01 255.83 179 255.83 189 255.83 199 255.83 209 255.83 219 255.83 229 255.83 239 255.83 249 255.83 259 255.83"/><polygon class="c" points="268.81 240.18 270.19 243.66 259 243.66 249 243.66 239 243.66 229 243.66 219 243.66 209 243.66 199 243.66 189 243.66 179 243.66 169.67 243.66 170.22 240.17 170.79 236.63 171.32 233.3 171.67 231.07 179 231.07 189 231.07 249 231.07 259 231.07 265.19 231.07 267.4 236.63 268.81 240.18"/><polygon class="c" points="136 237.8 139.21 231.07 147.36 231.07 154.68 231.07 163.79 231.07 162.19 237.8 160.79 243.66 152.25 243.66 142.29 243.66 133.21 243.66 136 237.8"/><path class="c" d="M144,261.14c0,2.16-2.43,3.91-5.42,3.91s-5.43-1.75-5.43-3.91,2.43-3.91,5.43-3.91S144,259,144,261.14Z" transform="translate(-4.74 -9.22)"/><path class="c" d="M161,261.14c0,2.16-2.43,3.91-5.42,3.91s-5.43-1.75-5.43-3.91,2.43-3.91,5.43-3.91S161,259,161,261.14Z" transform="translate(-4.74 -9.22)"/><line class="c" x1="179" y1="255.83" x2="179" y2="250.18"/><line class="c" x1="189" y1="255.83" x2="189" y2="250.18"/><line class="c" x1="199" y1="255.83" x2="199" y2="250.18"/><line class="c" x1="209" y1="255.83" x2="209" y2="250.18"/><line class="c" x1="219" y1="255.83" x2="219" y2="250.18"/><line class="c" x1="229" y1="255.83" x2="229" y2="250.18"/><line class="c" x1="239" y1="255.83" x2="239" y2="250.18"/><line class="c" x1="249" y1="255.83" x2="249" y2="250.18"/><line class="c" x1="259" y1="255.83" x2="259" y2="250.18"/><polyline class="c" points="142.29 243.66 144.65 237.8 147.36 231.07"/><polyline class="c" points="152.25 243.66 153.47 237.8 154.68 231.94"/><polyline class="c" points="136 237.8 144.65 237.8 153.47 237.8 162.19 237.8"/><polyline class="c" points="268.81 240.18 259 240.18 249 240.18 239 240.18 229 240.18 219 240.18 209 240.18 199 240.18 189 240.18 179 240.18 170.28 240.18"/><polyline class="c" points="170.78 236.63 170.79 236.63 179 236.63 189 236.63 199 236.63 209 236.63 219 236.63 229 236.63 239 236.63 249 236.63 259 236.63 267.4 236.63 267.43 236.63"/><polyline class="c" points="189 233.3 179 233.3 171.32 233.3 171.29 233.3"/><polyline class="c" points="179 243.66 179 240.18 179 236.63 179 233.3 179 231.07"/><polyline class="c" points="189 243.66 189 240.18 189 236.63 189 233.3 189 231.07"/><polyline class="c" points="199 243.66 199 240.18 199 236.63"/><polyline class="c" points="209 243.66 209 240.18 209 236.63"/><polyline class="c" points="219 243.66 219 240.18 219 236.63"/><polyline class="c" points="229 243.66 229 240.18 229 236.63"/><polyline class="c" points="239 243.66 239 240.18 239 236.63"/><polyline class="c" points="249 243.66 249 240.18 249 236.63 249 231.07"/><polyline class="c" points="259 243.66 259 240.18 259 236.63 259 231.07"/><path class="c" d="M300.43,258.65l1.46,2.6s2.1,5.27,7.4,5.27H322.2s1.94-.52,2.65-4.09a23.29,23.29,0,0,0-.48-9.11c-.27-1.29-.56-2.52-.88-3.69C320.81,239.89,316,234.1,304,234.1c-13.46,0-12.05,9.44-12.05,9.44Z" transform="translate(-4.74 -9.22)"/><path class="c" d="M322.2,266.52l-2.83,2.76H306.45s-2.61-.11-7.6-8.25-6.19-10.72-6.19-10.72l-.76-6.77" transform="translate(-4.74 -9.22)"/><path class="c" d="M324.84,262.43H307.05s-1.42.49-4.42-5l-.52-1c-3.37-6.57-3.81-9-1.2-10a23.19,23.19,0,0,1,8.8-1.79,21.18,21.18,0,0,1,13.77,5" transform="translate(-4.74 -9.22)"/><path class="c" d="M312,250.31s2.56-.85,4.3,3.2-1.41,5.89-1.41,5.89S312.19,257.4,312,250.31Z" transform="translate(-4.74 -9.22)"/><line class="c" x1="307.29" y1="241.09" x2="304.97" y2="235.36"/><polyline class="c" points="310.18 250.18 310.72 253.21 310.72 253.22"/><path class="e" d="M28.21,75.26l11,3.65,12.87,4.25s3.6,7.09-4.49,13.57L34.77,92.47,23.72,88.82" transform="translate(-4.74 -9.22)"/><path class="e" d="M393,75.26l-11,3.65-12.87,4.25s-3.61,7.09,4.48,13.57l12.87-4.26,11.05-3.65" transform="translate(-4.74 -9.22)"/><path class="c" d="M412,213.35h-25.2c-5.65-8.68,0-14.28,0-14.28H412" transform="translate(-4.74 -9.22)"/><polyline class="d" points="382.01 140.82 337.05 152.22 337.05 212.17 337.05 246.05 407.21 246.05"/><polyline class="d" points="367.03 27.77 301.87 69.28 333.79 140.82 386.57 123.84"/><polyline class="d" points="25.18 123.84 77.96 140.82 109.89 69.28 44.73 27.77"/><polyline class="d" points="4.55 246.05 74.7 246.05 74.7 212.17 74.7 152.22 29.75 140.82"/><path class="c" d="M9.29,199.07h25.2s5.64,5.6,0,14.28H9.29" transform="translate(-4.74 -9.22)"/></svg>