<svg xmlns="http://www.w3.org/2000/svg" viewBox="0 0 387 278.81"><defs><style>.a{fill:#25a9e0;}.b{fill:#231f20;}.c{fill:#a6a8ab;}.d{fill:#bbbdbf;}.e,.f,.g,.j,.m,.o,.t,.u,.v{fill:none;}.e,.f,.v{stroke:#000;}.e,.f,.g,.j,.m,.t,.u,.v{stroke-linecap:round;stroke-linejoin:round;}.f,.g,.o{stroke-width:2px;}.g,.j,.m,.t,.u{stroke:#231f20;}.h{fill:#a87c4f;}.i{fill:#fee1b9;}.k{fill:#716558;}.l{fill:#fff;}.m,.v{stroke-width:0.5px;}.n{fill:#e6e7e8;}.o{stroke:#808184;stroke-miterlimit:10;}.p{fill:#f1f1f2;}.q{fill:#c1b49a;}.r{fill:#dddfe8;}.s{fill:#d0d2d3;}.t{stroke-width:5px;}.u{stroke-width:6px;}</style></defs><title>researcher</title><rect class="a" width="386.83" height="195.59"/><path class="b" d="M261.54,199.47c1.33,1.81.09,3.29-2.75,3.29h-5.45c-2.84,0-6.24-1.48-7.55-3.29l-6.64-9.09-8.79-12c-1.32-1.82-.08-3.29,2.76-3.29h5.44c2.84,0,6.24,1.47,7.56,3.29Z" transform="translate(0 -0.03)"/><path class="c" d="M239.15,190.38s2.15,41.84-23.76,41.84H163.56c-25.69,0-23.75-39.44-23.72-40.14h0l10-13.72c1.32-1.82.08-3.29-2.75-3.29h-5.46a9.59,9.59,0,0,0-1.82.18l1.17-3.39,9.48-27.47s1.69-5.64,18.57-5.64h40.45c16.81,0,18.49,5.64,18.49,5.64l9.28,26.93,1.28,3.75h-5.44c-2.84,0-4.08,1.47-2.76,3.29Z" transform="translate(0 -0.03)"/><path class="d" d="M180.67,126H163.9c-5.11,0-6.08-6.23-6.08-6.23v-15c0-6.4,6.4-7.64,6.4-7.64h6.52a21.77,21.77,0,0,0,5.91-3.08c2.88-2.17,4.75-4.8,10.61-4.8h4.42c5.85,0,9.2,2.63,12.08,4.8a21.22,21.22,0,0,0,6.65,3.08h4.31s6.4,1.24,6.4,7.64v15s-1,6.23-6.08,6.23H180.67Z" transform="translate(0 -0.03)"/><path class="b" d="M147.12,175.06c2.83,0,4.07,1.47,2.75,3.29l-10,13.72h0l-5.39,7.39c-1.33,1.81-4.73,3.29-7.56,3.29h-5.45c-2.83,0-4.08-1.48-2.76-3.29l15.43-21.12a10.61,10.61,0,0,1,7.55-3.29Z" transform="translate(0 -0.03)"/><path class="e" d="M189.77,246.78l-.46,0" transform="translate(0 -0.03)"/><path class="f" d="M210.41,97.2a21.22,21.22,0,0,1-6.65-3.08c-2.88-2.17-6.23-4.8-12.08-4.8h-4.42c-5.86,0-7.73,2.63-10.61,4.8a21.77,21.77,0,0,1-5.91,3.08h-6.52s-6.4,1.24-6.4,7.64v15s1,6.23,6.08,6.23H215c5.11,0,6.08-6.23,6.08-6.23v-15c0-6.4-6.4-7.64-6.4-7.64h-4.31" transform="translate(0 -0.03)"/><line class="f" x1="139.84" y1="175.21" x2="141.01" y2="171.82"/><path class="f" d="M238.56,175.06l-1.28-3.75L228,144.38s-1.68-5.62-18.49-5.64H169.06c-16.88,0-18.57,5.64-18.57,5.64L141,171.85" transform="translate(0 -0.03)"/><path class="f" d="M198.07,125.53s0,.18,0,.5c-.08,2.41-.17,12.71,4.16,12.71" transform="translate(0 -0.03)"/><path class="f" d="M180.65,125.53s0,.18,0,.5c.09,2.41.16,12.71-4.16,12.71" transform="translate(0 -0.03)"/><path class="g" d="M139.84,192.08l-5.39,7.39c-1.33,1.81-4.73,3.29-7.56,3.29h-5.45c-2.83,0-4.08-1.48-2.76-3.29l15.43-21.12a10.61,10.61,0,0,1,7.55-3.29h5.46c2.83,0,4.07,1.47,2.75,3.29l-10,13.72" transform="translate(0 -0.03)"/><path class="g" d="M239.15,190.38l6.64,9.09c1.31,1.81,4.71,3.29,7.55,3.29h5.45c2.84,0,4.08-1.48,2.75-3.29l-15.42-21.12c-1.32-1.82-4.72-3.29-7.56-3.29h-5.44c-2.84,0-4.08,1.47-2.76,3.29Z" transform="translate(0 -0.03)"/><path class="f" d="M139.84,192.08c0,.7-2,40.14,23.72,40.14h25.92" transform="translate(0 -0.03)"/><path class="g" d="M139.84,192.07h0" transform="translate(0 -0.03)"/><path class="f" d="M239.15,190.38s2.15,41.84-23.76,41.84H189.48" transform="translate(0 -0.03)"/><path class="h" d="M159.94,180.37h0l-16.71-3-2.76-.49s2.41-13.36,3.47-22.45S152.73,144,152.73,144l25.19-3.24c-4.4,1.3-7.21,3.29-7.21,5.52,0,3.91,8.61,7.08,19.24,7.08s19.22-3.17,19.22-7.08c0-2.23-2.81-4.22-7.2-5.52L227.16,144s7.75,1.34,8.81,10.42,3.48,22.45,3.48,22.45l-3.85.68h0L220,180.37h0l2.32,36.6A110,110,0,0,1,190,222.31,110,110,0,0,1,157.62,217Z" transform="translate(0 -0.03)"/><polygon class="i" points="235.6 177.56 234.02 216.94 222.27 216.94 219.95 180.34 219.98 180.34 235.6 177.56"/><path class="i" d="M190,139.24l12,1.55c4.39,1.3,7.2,3.29,7.2,5.52,0,3.91-8.61,7.08-19.22,7.08s-19.24-3.17-19.24-7.08c0-2.23,2.81-4.22,7.21-5.52Z" transform="translate(0 -0.03)"/><polygon class="i" points="159.94 180.34 157.62 216.94 144.8 216.94 143.2 177.36 159.91 180.34 159.94 180.34"/><path class="j" d="M202,140.79c4.39,1.3,7.2,3.29,7.2,5.52,0,3.91-8.61,7.08-19.22,7.08s-19.24-3.17-19.24-7.08c0-2.23,2.81-4.22,7.21-5.52a47.42,47.42,0,0,1,24.05,0Z" transform="translate(0 -0.03)"/><path class="g" d="M190,139.24l-12,1.55L152.73,144s-7.74,1.34-8.82,10.42-3.47,22.45-3.47,22.45l2.76.49,16.71,3" transform="translate(0 -0.03)"/><line class="g" x1="235.6" y1="177.56" x2="219.98" y2="180.34"/><path class="g" d="M190,139.24l12,1.55L227.16,144s7.75,1.34,8.81,10.42,3.48,22.45,3.48,22.45l-3.85.68" transform="translate(0 -0.03)"/><polyline class="j" points="161.09 162.17 159.94 180.34 157.62 216.94"/><polyline class="j" points="218.79 162.17 219.95 180.34 222.27 216.94"/><path class="j" d="M222.27,217A110,110,0,0,1,190,222.31" transform="translate(0 -0.03)"/><polyline class="g" points="235.6 177.55 235.6 177.56 234.02 216.94 222.27 216.94"/><path class="j" d="M157.62,217A110,110,0,0,0,190,222.31" transform="translate(0 -0.03)"/><polyline class="g" points="143.2 177.36 144.8 216.94 157.62 216.94"/><path class="k" d="M209.36,110.35a45.23,45.23,0,0,0-1.59,12.86c-.05-1.24-.16-3.34-.35-5.73A69.73,69.73,0,0,0,205.75,106c-.43-1.55-.95-2.66-1.57-3-3-1.51-8.53-5.39-8.53-9.73,0,0-3.06,2.69-11.17,4-7.19,1.19-11.77,2.73-12.1,8.67a16.15,16.15,0,0,0,.09,2.55,32.7,32.7,0,0,1-.32,8.89,38.4,38.4,0,0,1-1.77,7s-.87-6.05-2.71-14.05c-.7-3-1.54-6.35-2.53-9.73-3.59-12.26-.89-22,16.6-24.08s19,8.08,19,8.08,4.95-5.16,10.17-1.49c9.57,6.72,3.18,17,.83,21.3A28.53,28.53,0,0,0,209.36,110.35Z" transform="translate(0 -0.03)"/><path class="i" d="M209.36,110.35s4.24,2.24,4.09,8.67a9.76,9.76,0,0,1-5.63,8.68h-.22c.08-.87.14-1.94.22-3.29a1.09,1.09,0,0,0,0-.12c0-.16,0-.46,0-.88,0-.06,0-.12,0-.19A45.23,45.23,0,0,1,209.36,110.35Z" transform="translate(0 -0.03)"/><path class="i" d="M194.64,147.41c-.28,2.24-1.45,4.48-5,4.48s-4.77-2.24-5-4.49h-.07c-7.1.64-6.62-2.82-10.81-8.95a21.33,21.33,0,0,1-3.33-10.76,21.66,21.66,0,0,1,0-3.3,38.4,38.4,0,0,0,1.77-7l.23,0h12.55a1.91,1.91,0,0,0,1.9-1.9V111a2.29,2.29,0,0,1,2.09-1.8c1.68,0,2.7,1,2.7,1.8v3.82c0,2.8,3,2.68,3,2.68h12.77c.19,2.39.3,4.49.35,5.73,0,.07,0,.13,0,.19,0,.42,0,.72,0,.88a1.09,1.09,0,0,1,0,.12c-.08,1.35-.14,2.42-.22,3.29-.43,5.12-1,3.25-3.27,11.82-2.69,10-9.68,7.9-9.68,7.9Z" transform="translate(0 -0.03)"/><path class="i" d="M205.75,106h-11.1c-3.15,0-3,2.07-3,2.07V111c0-.78-1-1.8-2.7-1.8a2.29,2.29,0,0,0-2.09,1.8V108.7c0-2.69-3-2.7-3-2.7H172.38c.33-5.94,4.91-7.48,12.1-8.67,8.11-1.34,11.17-4,11.17-4,0,4.34,5.54,8.22,8.53,9.73C204.8,103.34,205.32,104.45,205.75,106Z" transform="translate(0 -0.03)"/><path class="i" d="M207.41,117.48H194.65s-3,.12-3-2.68v-6.73s-.12-2.07,3-2.07h11.1a69.73,69.73,0,0,1,1.67,11.48Zm-8.5-1.73c2.21.06,4-1.22,4.08-2.84s-1.71-3-3.92-3-4,1.21-4.08,2.83S196.71,115.69,198.91,115.75Z" transform="translate(0 -0.03)"/><path class="b" d="M197.29,113.27c.7,0,1.25.45,1.23,1s-.58.91-1.28.89-1.25-.45-1.24-1A1.15,1.15,0,0,1,197.29,113.27Z" transform="translate(0 -0.03)"/><path class="l" d="M198.91,115.75c-2.2-.06-4-1.43-3.92-3.06s1.87-2.89,4.08-2.83,4,1.42,3.92,3S201.12,115.81,198.91,115.75Zm-1.67-.62c.7,0,1.27-.38,1.28-.89s-.53-.95-1.23-1a1.15,1.15,0,0,0-1.29.9C196,114.68,196.54,115.11,197.24,115.13Z" transform="translate(0 -0.03)"/><path class="i" d="M184.93,117.48H172.38l-.23,0a32.7,32.7,0,0,0,.32-8.89,16.15,16.15,0,0,1-.09-2.55h11.46s3,0,3,2.7v6.88A1.91,1.91,0,0,1,184.93,117.48Zm-5.3-1.73c2.21.06,4-1.22,4.07-2.84s-1.7-3-3.91-3-4,1.21-4.08,2.83S177.42,115.69,179.63,115.75Z" transform="translate(0 -0.03)"/><path class="b" d="M178,113.27c.7,0,1.25.45,1.23,1s-.58.91-1.28.89-1.25-.45-1.24-1A1.14,1.14,0,0,1,178,113.27Z" transform="translate(0 -0.03)"/><path class="l" d="M178,115.13c.7,0,1.27-.38,1.28-.89s-.53-.95-1.23-1a1.14,1.14,0,0,0-1.29.9C176.71,114.68,177.26,115.11,178,115.13Zm1.67.62c-2.21-.06-4-1.43-3.92-3.06s1.87-2.89,4.08-2.83,4,1.42,3.91,3S181.84,115.81,179.63,115.75Z" transform="translate(0 -0.03)"/><path class="i" d="M170.34,127.7h0s-5.93-2-5.93-7.78a15.55,15.55,0,0,1,3.27-9.57c1.84,8,2.71,14.05,2.71,14.05A21.66,21.66,0,0,0,170.34,127.7Z" transform="translate(0 -0.03)"/><path class="g" d="M184.88,142.92a13.2,13.2,0,0,0-.33,4.48c.28,2.25,1.45,4.49,5,4.49s4.76-2.24,5-4.48a13,13,0,0,0-.33-4.49" transform="translate(0 -0.03)"/><path class="g" d="M207.77,123.21c-.05-1.24-.16-3.34-.35-5.73A69.73,69.73,0,0,0,205.75,106c-.43-1.55-.95-2.66-1.57-3-3-1.51-8.53-5.39-8.53-9.73,0,0-3.06,2.69-11.17,4-7.19,1.19-11.77,2.73-12.1,8.67a16.15,16.15,0,0,0,.09,2.55,32.7,32.7,0,0,1-.32,8.89,38.4,38.4,0,0,1-1.77,7s-.87-6.05-2.71-14.05c-.7-3-1.54-6.35-2.53-9.73-3.59-12.26-.89-22,16.6-24.08s19,8.08,19,8.08,4.95-5.16,10.17-1.49c9.57,6.72,3.18,17,.83,21.3a28.53,28.53,0,0,0-2.38,5.92,45.23,45.23,0,0,0-1.59,12.86" transform="translate(0 -0.03)"/><path class="g" d="M207.82,124.4a1.09,1.09,0,0,0,0-.12c0-.16,0-.46,0-.88" transform="translate(0 -0.03)"/><path class="g" d="M207.78,123.4c0,.42,0,.72,0,.88" transform="translate(0 -0.03)"/><path class="g" d="M207.78,123.4c0-.06,0-.12,0-.19" transform="translate(0 -0.03)"/><path class="g" d="M170.38,124.4a21.66,21.66,0,0,0,0,3.3,21.33,21.33,0,0,0,3.33,10.76c4.19,6.13,3.71,9.59,10.81,8.95" transform="translate(0 -0.03)"/><path class="g" d="M194.65,147.41s7,2.12,9.68-7.9c2.3-8.57,2.84-6.7,3.27-11.82.08-.87.14-1.94.22-3.29" transform="translate(0 -0.03)"/><path class="g" d="M167.67,110.35a15.55,15.55,0,0,0-3.27,9.57c0,5.83,5.93,7.78,5.93,7.78" transform="translate(0 -0.03)"/><path class="g" d="M209.36,110.35s4.24,2.24,4.09,8.67a9.76,9.76,0,0,1-5.63,8.68" transform="translate(0 -0.03)"/><path class="j" d="M186.54,120.37s-3.3,7.33,3.06,7.33,3-7.33,3-7.33" transform="translate(0 -0.03)"/><path class="g" d="M172.38,106h11.46s3,0,3,2.7v6.88a1.91,1.91,0,0,1-1.9,1.9H172.38" transform="translate(0 -0.03)"/><path class="g" d="M207.41,117.48H194.65s-3,.12-3-2.68v-6.73s-.12-2.07,3-2.07h11.1" transform="translate(0 -0.03)"/><path class="g" d="M186.83,111a2.29,2.29,0,0,1,2.09-1.8c1.68,0,2.7,1,2.7,1.8" transform="translate(0 -0.03)"/><path class="j" d="M183.2,136a35.6,35.6,0,0,0,6.69.87,8.45,8.45,0,0,0,4.83-1.44" transform="translate(0 -0.03)"/><path class="m" d="M198.52,114.24c0,.51-.58.91-1.28.89s-1.25-.45-1.24-1a1.15,1.15,0,0,1,1.29-.9C198,113.29,198.54,113.72,198.52,114.24Z" transform="translate(0 -0.03)"/><path class="j" d="M203,112.91c-.05,1.62-1.87,2.9-4.08,2.84s-4-1.43-3.92-3.06,1.87-2.89,4.08-2.83S203,111.28,203,112.91Z" transform="translate(0 -0.03)"/><path class="m" d="M179.24,114.24c0,.51-.58.91-1.28.89s-1.25-.45-1.24-1a1.14,1.14,0,0,1,1.29-.9C178.71,113.29,179.26,113.72,179.24,114.24Z" transform="translate(0 -0.03)"/><path class="j" d="M183.7,112.91c0,1.62-1.86,2.9-4.07,2.84s-4-1.43-3.92-3.06,1.87-2.89,4.08-2.83S183.75,111.28,183.7,112.91Z" transform="translate(0 -0.03)"/><rect class="n" y="195.59" width="387" height="83.22"/><line class="o" y1="195.59" x2="386.83" y2="195.59"/><path class="k" d="M277.59,175.6c6.47,0,11.72,2.35,11.72,5.23l-.09.65a3.41,3.41,0,0,1-1,1.6c-1.89-1.76-5.92-3-10.59-3s-8.69,1.21-10.58,3a3.51,3.51,0,0,1-1.05-1.6l-.09-.65C265.87,178,271.12,175.6,277.59,175.6Z" transform="translate(0 -0.03)"/><path d="M277.59,180.1c4.67,0,8.7,1.22,10.59,3-1.89,1.77-5.92,3-10.59,3s-8.7-1.22-10.58-3C268.9,181.31,272.93,180.1,277.59,180.1Z" transform="translate(0 -0.03)"/><path class="p" d="M281.73,166.73c.73.79-1.66,4.52-1.66,4.52.31-2.41-.69-1.86-1-4s2-3.64,2-3.64S281,166,281.73,166.73Z" transform="translate(0 -0.03)"/><path class="p" d="M275.34,161.78c1.22,1.31-2.77,7.54-2.77,7.54.52-4-1.15-3.11-1.7-6.72s3.39-6.07,3.39-6.07S274.12,160.46,275.34,161.78Z" transform="translate(0 -0.03)"/><path class="q" d="M267.8,194.44l-1.84-13a3.51,3.51,0,0,0,1.05,1.6c1.88,1.77,5.92,3,10.58,3s8.7-1.22,10.59-3a3.41,3.41,0,0,0,1-1.6l-1.83,13-1.53,10.8c0,2.89-3.7,5.24-8.27,5.24s-8.26-2.35-8.26-5.24Z" transform="translate(0 -0.03)"/><path class="f" d="M289.31,180.83a2.37,2.37,0,0,1-.09.65,3.41,3.41,0,0,1-1,1.6c-1.89,1.77-5.92,3-10.59,3s-8.7-1.22-10.58-3a3.51,3.51,0,0,1-1.05-1.6,2.83,2.83,0,0,1-.09-.65c0-2.88,5.25-5.23,11.72-5.23S289.31,178,289.31,180.83Z" transform="translate(0 -0.03)"/><path class="e" d="M266.79,183.29a2.18,2.18,0,0,1,.22-.21c1.89-1.77,5.92-3,10.58-3s8.7,1.22,10.59,3" transform="translate(0 -0.03)"/><path class="f" d="M265.87,180.83l.09.65,1.84,13,1.53,10.8c0,2.89,3.7,5.24,8.26,5.24s8.27-2.35,8.27-5.24l1.53-10.8,1.83-13,.09-.65" transform="translate(0 -0.03)"/><path class="r" d="M49.89,228.86c-.46-.85-.11-1.92,1.07-2.82l40.6-30.88a7.57,7.57,0,0,1,6.7-1l61,25.32a2.43,2.43,0,0,1,1.34,1.14l.14.92a2.86,2.86,0,0,1-1.24,1.83l-40.61,30.88a7.51,7.51,0,0,1-6.69,1l-61-25.31A2.49,2.49,0,0,1,49.89,228.86Zm86.84-15c.51-.38.47-.88-.07-1.11l-17.35-7.19a2.1,2.1,0,0,0-1.9.29l-8.9,6.76.58,4.43,14.19,5.89a2.15,2.15,0,0,0,1.91-.28Zm-2.63,20.86c1.52-1.17,1.43-2.67-.21-3.35l-24.23-10.05,3.84,29.07Z" transform="translate(0 -0.03)"/><path class="p" d="M136.66,212.74c.54.23.58.73.07,1.11l-11.54,8.79a2.15,2.15,0,0,1-1.91.28L109.09,217l-.58-4.43,8.9-6.76a2.1,2.1,0,0,1,1.9-.29Z" transform="translate(0 -0.03)"/><path class="p" d="M133.89,231.36c1.64.68,1.73,2.18.21,3.35l-20.6,15.67-3.84-29.07Z" transform="translate(0 -0.03)"/><path class="l" d="M161.09,223.51l.15.14c.34.82,0,1.82-1.14,2.67L119.5,257.2a7.57,7.57,0,0,1-6.7,1l-61-25.32a2.17,2.17,0,0,1-1.49-1.61v0l-.38-2.41a2.49,2.49,0,0,0,1.31,1.07l61,25.31a7.51,7.51,0,0,0,6.69-1l40.61-30.88a2.86,2.86,0,0,0,1.24-1.83Z" transform="translate(0 -0.03)"/><path class="g" d="M160.64,220.6a2.43,2.43,0,0,0-1.34-1.14l-61-25.32a7.57,7.57,0,0,0-6.7,1L51,226c-1.18.9-1.53,2-1.07,2.82a2.49,2.49,0,0,0,1.31,1.07l61,25.31a7.51,7.51,0,0,0,6.69-1l40.61-30.88a2.86,2.86,0,0,0,1.24-1.83A1.54,1.54,0,0,0,160.64,220.6Z" transform="translate(0 -0.03)"/><path class="g" d="M50.27,231.29a2.17,2.17,0,0,0,1.49,1.61l61,25.32a7.57,7.57,0,0,0,6.7-1l40.6-30.88c1.11-.85,1.48-1.85,1.14-2.67" transform="translate(0 -0.03)"/><path class="g" d="M50.26,231.09a1.09,1.09,0,0,0,0,.18" transform="translate(0 -0.03)"/><line class="j" x1="50.27" y1="231.26" x2="50.35" y2="231.79"/><line class="g" x1="50.27" y1="231.24" x2="50.27" y2="231.26"/><polyline class="j" points="49.73 227.77 49.89 228.83 50.27 231.25"/><polyline class="j" points="160.64 220.57 160.78 221.5 161.09 223.48"/><path class="j" d="M109.09,217l14.19,5.89a2.15,2.15,0,0,0,1.91-.28l11.54-8.79c.51-.38.47-.88-.07-1.11l-17.35-7.19a2.1,2.1,0,0,0-1.9.29l-8.9,6.76" transform="translate(0 -0.03)"/><path class="j" d="M113.5,250.38l20.6-15.67c1.52-1.17,1.43-2.67-.21-3.35l-24.23-10.05" transform="translate(0 -0.03)"/><path class="r" d="M110.82,258a2.15,2.15,0,0,1-2.29.15l-61-25.5a7.51,7.51,0,0,1-4-5.47l-6.68-50.57a2.71,2.71,0,0,1,.59-2.36l.43-.3a2.38,2.38,0,0,1,1.91.09l61,25.5a7.53,7.53,0,0,1,4,5.46l6.68,50.58a2.67,2.67,0,0,1-.63,2.41ZM76.36,221c3.82,1.37,6.4-.42,5.76-4s-4.25-7.55-8.07-8.9-6.39.42-5.76,4S72.54,219.61,76.36,221Z" transform="translate(0 -0.03)"/><path class="l" d="M82.12,217c.64,3.55-1.94,5.34-5.76,4s-7.43-5.34-8.07-8.89,1.95-5.34,5.76-4S81.49,213.43,82.12,217Z" transform="translate(0 -0.03)"/><path class="l" d="M110.83,258a2.67,2.67,0,0,0,.63-2.41L104.78,205a7.53,7.53,0,0,0-4-5.46l-61-25.5a2.38,2.38,0,0,0-1.91-.09l2.34-1.61a2.27,2.27,0,0,1,2.07,0l61,25.49a7.57,7.57,0,0,1,4,5.47L114,253.93a2.6,2.6,0,0,1-.73,2.48h0Z" transform="translate(0 -0.03)"/><path class="g" d="M110.82,258a2.15,2.15,0,0,1-2.29.15l-61-25.5a7.51,7.51,0,0,1-4-5.47l-6.68-50.57a2.71,2.71,0,0,1,.59-2.36,1.39,1.39,0,0,1,.43-.3,2.38,2.38,0,0,1,1.91.09l61,25.5a7.53,7.53,0,0,1,4,5.46l6.68,50.58a2.67,2.67,0,0,1-.63,2.41" transform="translate(0 -0.03)"/><polyline class="g" points="40.25 172.35 37.91 173.96 37.48 174.26"/><polyline class="g" points="113.24 256.37 110.83 258 110.82 258.01 110.53 258.2"/><path class="g" d="M40.25,172.38a2.27,2.27,0,0,1,2.07,0l61,25.49a7.57,7.57,0,0,1,4,5.47L114,253.93a2.6,2.6,0,0,1-.73,2.48" transform="translate(0 -0.03)"/><path class="j" d="M82.12,217c.64,3.55-1.94,5.34-5.76,4s-7.43-5.34-8.07-8.89,1.95-5.34,5.76-4S81.49,213.43,82.12,217Z" transform="translate(0 -0.03)"/><polygon class="l" points="333.54 177.35 349.4 185.36 346.85 187.96 333.54 177.35"/><polygon class="l" points="349.4 185.36 349.4 187.6 349.4 187.6 348.08 188.94 346.85 187.96 349.4 185.36"/><polygon class="l" points="348.7 189.44 349.05 189.71 347.3 190.85 348.7 189.44"/><polygon class="l" points="348.7 189.44 347.3 190.85 344.19 192.88 348.08 188.94 348.7 189.44"/><polygon class="l" points="332.3 207.19 349.4 189.84 349.4 190.97 332.3 208.31 332.3 207.75 332.3 207.19 332.3 207.19"/><polygon class="l" points="346.85 187.96 348.08 188.94 344.19 192.88 338.02 196.91 346.85 187.96"/><polygon class="l" points="332.3 208.31 349.4 190.97 349.4 192.09 332.3 209.43 332.3 208.87 332.3 208.31"/><polygon class="l" points="333.54 177.35 346.85 187.96 338.02 196.91 330.51 201.81 317.11 195.03 303.82 184.43 312.66 175.47 320.15 170.58 333.54 177.35"/><polygon class="l" points="332.3 212.79 349.4 195.45 349.4 196.57 332.3 213.92 332.3 213.36 332.3 212.79"/><polygon class="l" points="349.4 198.81 332.3 216.16 332.3 215.6 332.3 215.04 349.4 197.69 349.4 198.81"/><polygon class="l" points="322.85 168.82 333.54 177.35 320.15 170.58 322.85 168.82"/><polygon class="l" points="349.4 211.15 349.4 213.39 332.3 230.74 332.3 229.05 332.3 228.49 332.3 228.49 349.4 211.15"/><polygon class="l" points="338.02 196.91 332.3 202.71 330.51 201.81 338.02 196.91"/><polygon class="l" points="318.37 169.68 320.15 170.58 312.66 175.47 318.37 169.68"/><polygon class="l" points="332.3 204.39 332.3 202.71 338.02 196.91 344.19 192.88 332.3 204.94 332.3 204.39"/><polygon class="l" points="332.3 205.51 332.3 204.94 344.19 192.88 347.3 190.85 332.3 206.07 332.3 205.51"/><polygon class="l" points="330.51 201.81 329.06 202.75 322.86 199.62 317.11 195.03 330.51 201.81"/><polygon class="l" points="332.3 206.63 332.3 206.07 332.3 206.07 347.3 190.85 349.05 189.71 348.7 189.44 349.4 188.72 349.4 189.84 332.3 207.19 332.3 206.63"/><polygon class="l" points="332.3 208.87 301.26 193.19 301.26 192.07 332.3 207.75 332.3 207.75 332.3 208.31 332.3 208.87 332.3 208.87"/><polygon class="l" points="322.86 199.62 329.06 202.75 328.1 203.38 326.7 202.68 322.86 199.62"/><polygon class="l" points="332.3 210 332.3 209.43 349.4 192.09 349.4 193.21 332.3 210.55 332.3 210"/><polygon class="l" points="332.3 211.12 301.26 195.43 301.26 194.31 332.3 210 332.3 210.55 332.3 211.11 332.3 211.12"/><polygon class="l" points="332.3 211.11 332.3 210.55 349.4 193.21 349.4 194.33 332.3 211.67 332.3 211.12 332.3 211.11"/><polygon class="l" points="332.3 212.24 332.3 211.67 349.4 194.33 349.4 195.45 332.3 212.79 332.3 212.24"/><polygon class="l" points="328.1 203.38 327.81 203.57 326.7 202.68 328.1 203.38"/><polygon class="l" points="301.26 196.55 332.3 212.24 332.3 212.79 332.3 213.36 301.26 197.67 301.26 196.55"/><polygon class="l" points="332.3 206.63 301.26 190.95 301.26 189.83 326.7 202.68 327.81 203.57 328.1 203.38 332.3 205.51 332.3 206.07 332.3 206.07 332.3 206.63"/><polygon class="l" points="332.3 214.48 301.26 198.8 301.26 197.67 332.3 213.36 332.3 213.92 332.3 213.92 332.3 214.48"/><polygon class="l" points="332.3 214.48 332.3 213.92 332.3 213.92 349.4 196.57 349.4 197.69 332.3 215.04 332.3 214.48"/><polygon class="l" points="332.3 215.6 301.26 199.92 301.26 198.8 332.3 214.48 332.3 215.04 332.3 215.6 332.3 215.6"/><polygon class="l" points="332.3 216.72 301.26 201.04 301.26 199.92 332.3 215.6 332.3 215.6 332.3 216.16 332.3 216.72 332.3 216.72"/><polygon class="l" points="312.66 175.47 303.82 184.43 301.62 182.67 312.66 175.47"/><polygon class="l" points="332.3 217.28 332.3 216.72 332.3 216.16 349.4 198.81 349.4 199.94 332.3 217.28"/><polygon class="l" points="332.3 218.4 332.3 217.84 332.3 217.28 349.4 199.94 349.4 201.06 332.3 218.4"/><polygon class="l" points="332.3 218.4 349.4 201.06 349.4 202.18 349.4 202.18 332.3 219.52 332.3 218.96 332.3 218.4"/><polygon class="l" points="332.3 220.08 301.27 204.4 301.26 203.28 332.3 218.96 332.3 219.52 332.3 220.08"/><polygon class="l" points="322.86 199.62 301.26 188.71 301.26 187.03 317.11 195.03 322.86 199.62"/><polygon class="l" points="349.4 203.3 332.3 220.64 332.3 220.08 332.3 219.52 349.4 202.18 349.4 203.3 349.4 203.3"/><polygon class="l" points="332.3 220.64 349.4 203.3 349.4 204.42 332.3 221.76 332.3 221.21 332.3 220.65 332.3 220.64"/><polygon class="l" points="332.3 222.32 332.3 221.76 332.3 221.76 349.4 204.42 349.4 205.54 332.3 222.89 332.3 222.32"/><polygon class="l" points="332.3 223.44 332.3 222.89 349.4 205.54 349.4 206.66 332.3 224.01 332.3 223.44"/><polygon class="l" points="332.3 224.57 332.3 224.01 349.4 206.66 349.4 207.78 349.4 207.78 332.3 225.13 332.3 224.57"/><polygon class="l" points="332.3 225.13 349.4 207.78 349.4 208.9 349.4 208.91 332.3 226.25 332.3 225.69 332.3 225.13"/><polygon class="l" points="332.3 226.25 349.4 208.91 349.4 210.02 349.4 210.03 332.3 227.37 332.3 226.81 332.3 226.25"/><polygon class="l" points="303.82 184.43 317.11 195.03 301.26 187.03 303.82 184.43"/><polygon class="l" points="349.4 211.15 332.3 228.49 332.3 227.93 332.3 227.37 349.4 210.03 349.4 211.15"/><polygon class="l" points="332.3 229.05 301.27 213.37 301.26 212.25 332.3 227.93 332.3 228.49 332.3 228.49 332.3 229.05"/><polygon class="l" points="301.27 213.37 332.3 229.05 332.3 230.74 301.26 215.05 301.27 213.37"/><polygon class="l" points="301.26 188.71 322.86 199.62 326.7 202.68 301.26 189.83 301.26 188.71"/><polygon class="l" points="301.26 190.95 332.3 206.63 332.3 207.19 332.3 207.19 332.3 207.75 332.3 207.75 301.26 192.07 301.26 190.95"/><polygon class="l" points="301.26 193.19 332.3 208.87 332.3 208.87 332.3 209.43 332.3 210 301.26 194.31 301.26 193.19"/><polygon class="l" points="301.26 195.43 332.3 211.12 332.3 211.67 332.3 212.24 301.26 196.55 301.26 195.43"/><polygon class="l" points="301.26 201.04 332.3 216.72 332.3 216.72 332.3 217.28 332.3 217.84 301.26 202.16 301.26 201.04"/><polygon class="l" points="301.26 202.16 332.3 217.84 332.3 218.4 332.3 218.96 301.26 203.28 301.26 202.16"/><polygon class="l" points="301.27 204.4 332.3 220.08 332.3 220.64 332.3 220.65 332.3 221.21 301.27 205.52 301.27 204.4"/><polygon class="l" points="301.27 205.52 332.3 221.21 332.3 221.76 332.3 221.76 332.3 222.32 301.26 206.65 301.27 205.52"/><polygon class="l" points="301.26 206.65 332.3 222.32 332.3 222.89 332.3 223.44 301.26 207.76 301.26 206.65"/><polygon class="l" points="301.26 208.88 332.3 224.57 332.3 225.13 332.3 225.69 301.26 210.01 301.26 208.88"/><polygon class="l" points="332.3 224.57 301.26 208.88 301.26 207.76 332.3 223.44 332.3 224.01 332.3 224.57"/><polygon class="l" points="301.26 211.13 332.3 226.81 332.3 227.37 332.3 227.93 301.26 212.25 301.26 211.13"/><polygon class="l" points="301.26 210.01 332.3 225.69 332.3 226.25 332.3 226.81 301.26 211.13 301.26 210.01"/><polyline class="g" points="349.4 213.39 332.3 230.74 301.26 215.05"/><line class="m" x1="332.3" y1="220.08" x2="332.3" y2="220.08"/><line class="m" x1="332.3" y1="227.93" x2="332.3" y2="227.93"/><polyline class="g" points="333.54 177.35 349.4 185.36 346.85 187.96"/><polyline class="g" points="312.66 175.47 318.37 169.68 320.15 170.58"/><polyline class="g" points="317.11 195.03 301.26 187.03 303.82 184.43"/><polyline class="g" points="338.02 196.91 332.3 202.71 330.51 201.81"/><polyline class="m" points="344.19 192.88 332.3 204.94 332.3 204.95"/><line class="m" x1="349.4" y1="187.6" x2="348.08" y2="188.94"/><line class="m" x1="347.3" y1="190.85" x2="332.3" y2="206.07"/><line class="m" x1="349.4" y1="188.73" x2="348.7" y2="189.44"/><line class="m" x1="349.4" y1="189.84" x2="332.3" y2="207.19"/><line class="m" x1="349.4" y1="190.97" x2="332.3" y2="208.31"/><line class="m" x1="349.4" y1="192.09" x2="332.3" y2="209.43"/><line class="m" x1="349.4" y1="193.21" x2="332.3" y2="210.55"/><polyline class="m" points="349.4 194.33 332.3 211.67 332.3 211.68"/><polyline class="m" points="349.4 195.45 332.3 212.79 332.3 212.8"/><line class="m" x1="349.4" y1="196.57" x2="332.3" y2="213.92"/><line class="m" x1="349.4" y1="197.69" x2="332.3" y2="215.04"/><line class="m" x1="349.4" y1="198.81" x2="332.3" y2="216.16"/><line class="m" x1="349.4" y1="199.94" x2="332.3" y2="217.28"/><line class="m" x1="349.4" y1="201.06" x2="332.3" y2="218.4"/><line class="m" x1="349.4" y1="202.18" x2="332.3" y2="219.52"/><line class="m" x1="349.4" y1="203.3" x2="332.3" y2="220.64"/><polyline class="m" points="349.4 204.42 349.4 204.42 332.3 221.76"/><line class="m" x1="349.4" y1="205.54" x2="332.3" y2="222.89"/><line class="m" x1="349.4" y1="206.66" x2="332.3" y2="224.01"/><line class="m" x1="349.4" y1="207.79" x2="332.3" y2="225.13"/><line class="m" x1="349.4" y1="208.9" x2="332.3" y2="226.25"/><line class="m" x1="349.4" y1="210.03" x2="332.3" y2="227.37"/><polyline class="m" points="349.4 211.15 349.4 211.15 332.3 228.49"/><line class="m" x1="322.86" y1="199.62" x2="301.27" y2="188.71"/><line class="m" x1="332.3" y1="204.39" x2="329.06" y2="202.76"/><line class="m" x1="326.7" y1="202.68" x2="301.26" y2="189.83"/><line class="m" x1="332.3" y1="205.51" x2="328.1" y2="203.38"/><line class="m" x1="332.3" y1="206.63" x2="301.26" y2="190.95"/><line class="m" x1="332.3" y1="207.75" x2="301.26" y2="192.07"/><line class="m" x1="332.3" y1="208.87" x2="301.26" y2="193.19"/><line class="m" x1="332.3" y1="210" x2="301.26" y2="194.31"/><line class="m" x1="332.3" y1="211.11" x2="301.27" y2="195.43"/><line class="m" x1="332.3" y1="212.24" x2="301.27" y2="196.55"/><line class="m" x1="332.3" y1="213.36" x2="301.27" y2="197.67"/><line class="m" x1="332.3" y1="214.48" x2="301.26" y2="198.8"/><line class="m" x1="332.3" y1="215.6" x2="301.26" y2="199.92"/><line class="m" x1="332.3" y1="217.84" x2="301.26" y2="202.16"/><line class="m" x1="332.3" y1="216.72" x2="301.26" y2="201.04"/><line class="m" x1="332.3" y1="218.96" x2="301.26" y2="203.28"/><line class="m" x1="332.3" y1="220.08" x2="301.27" y2="204.4"/><line class="m" x1="332.3" y1="221.21" x2="301.27" y2="205.52"/><line class="m" x1="332.3" y1="222.33" x2="301.26" y2="206.65"/><line class="m" x1="332.3" y1="223.44" x2="301.26" y2="207.77"/><line class="m" x1="332.3" y1="224.57" x2="301.26" y2="208.88"/><line class="m" x1="332.3" y1="225.69" x2="301.26" y2="210.01"/><line class="m" x1="332.3" y1="226.81" x2="301.26" y2="211.13"/><line class="m" x1="332.3" y1="227.93" x2="301.26" y2="212.25"/><line class="m" x1="332.3" y1="229.05" x2="301.27" y2="213.37"/><line class="m" x1="301.27" y1="213.37" x2="301.26" y2="215.05"/><polyline class="g" points="301.26 187.03 301.26 188.71 301.26 189.83 301.26 190.95 301.26 192.07 301.26 193.19 301.26 194.31 301.26 195.43 301.26 196.55 301.26 197.67 301.26 198.8 301.26 199.92 301.26 201.04 301.26 202.16 301.26 203.28 301.27 204.4 301.27 205.52 301.26 206.65 301.26 207.76 301.26 208.88 301.26 210.01 301.26 211.13 301.26 212.25 301.27 213.37"/><polyline class="g" points="349.4 210.03 349.4 211.15 349.4 213.39"/><line class="m" x1="349.4" y1="210.02" x2="349.4" y2="210.03"/><line class="g" x1="349.4" y1="208.9" x2="349.4" y2="210.02"/><line class="m" x1="349.4" y1="208.9" x2="349.4" y2="208.9"/><line class="g" x1="349.4" y1="207.79" x2="349.4" y2="208.9"/><line class="m" x1="349.4" y1="207.78" x2="349.4" y2="207.79"/><polyline class="g" points="349.4 202.18 349.4 203.3 349.4 203.3 349.4 204.42 349.4 205.54 349.4 206.66 349.4 207.78"/><line class="m" x1="349.4" y1="202.18" x2="349.4" y2="202.18"/><polyline class="g" points="349.4 185.36 349.4 187.6 349.4 188.72 349.4 189.84 349.4 190.97 349.4 192.09 349.4 193.21 349.4 194.33 349.4 195.45 349.4 196.57 349.4 197.69 349.4 198.81 349.4 199.94 349.4 201.06 349.4 202.18"/><polyline class="g" points="332.3 221.76 332.3 222.32 332.3 222.89 332.3 223.44 332.3 224.01 332.3 224.57 332.3 225.13 332.3 225.69 332.3 226.25 332.3 226.81 332.3 227.37 332.3 227.93 332.3 228.49 332.3 228.49 332.3 229.05 332.3 230.74"/><line class="m" x1="332.3" y1="221.76" x2="332.3" y2="221.76"/><polyline class="g" points="332.3 211.12 332.3 211.67 332.3 212.24 332.3 212.79 332.3 213.36 332.3 213.92 332.3 213.92 332.3 214.48 332.3 215.04 332.3 215.6 332.3 216.16 332.3 216.72 332.3 217.28 332.3 217.84 332.3 218.4 332.3 218.96 332.3 219.52 332.3 220.08 332.3 220.64 332.3 220.65 332.3 221.21 332.3 221.76"/><polyline class="m" points="332.3 210.55 332.3 211.11 332.3 211.12"/><polyline class="g" points="332.3 207.19 332.3 207.75 332.3 208.31 332.3 208.87 332.3 209.43 332.3 210 332.3 210.55"/><line class="m" x1="332.3" y1="207.19" x2="332.3" y2="207.19"/><polyline class="g" points="332.3 206.07 332.3 206.63 332.3 207.19"/><line class="m" x1="332.3" y1="206.07" x2="332.3" y2="206.07"/><polyline class="g" points="332.3 202.71 332.3 204.39 332.3 204.94 332.3 205.51 332.3 206.07"/><polygon class="g" points="348.7 189.44 349.05 189.71 347.3 190.85 344.19 192.88 338.02 196.91 330.51 201.81 329.06 202.75 328.1 203.38 327.81 203.57 326.7 202.68 322.86 199.62 317.11 195.03 303.82 184.43 301.62 182.67 312.66 175.47 320.15 170.58 322.85 168.82 333.54 177.35 346.85 187.96 348.08 188.94 348.7 189.44"/><polygon class="l" points="239.58 189.01 255.44 197.02 252.89 199.62 239.58 189.01"/><polygon class="l" points="255.44 197.02 255.44 199.26 255.44 199.26 254.12 200.6 252.89 199.62 255.44 197.02"/><polygon class="l" points="254.74 201.1 255.09 201.38 253.34 202.51 254.74 201.1"/><polygon class="l" points="254.74 201.1 253.34 202.51 250.23 204.54 254.12 200.6 254.74 201.1"/><polygon class="l" points="255.44 202.63 238.34 219.98 238.34 219.41 238.34 218.85 238.34 218.85 255.44 201.51 255.44 202.63"/><polygon class="l" points="252.89 199.62 254.12 200.6 250.23 204.54 244.06 208.57 252.89 199.62"/><polygon class="l" points="255.44 203.75 238.34 221.09 238.34 220.53 238.34 219.98 255.44 202.63 255.44 203.75"/><polygon class="l" points="239.58 189.01 252.89 199.62 244.06 208.57 236.56 213.47 223.16 206.7 209.86 196.09 218.7 187.13 226.19 182.24 239.58 189.01"/><polygon class="l" points="255.44 208.24 238.35 225.58 238.34 225.02 238.34 224.45 255.44 207.11 255.44 208.24"/><polygon class="l" points="255.44 210.47 238.34 227.82 238.34 227.26 238.34 226.7 255.44 209.35 255.44 210.47"/><polygon class="l" points="228.89 180.48 239.58 189.01 226.19 182.24 228.89 180.48"/><polygon class="l" points="255.44 222.81 255.44 225.05 238.34 242.4 238.34 240.71 238.34 240.16 238.34 240.15 255.44 222.81"/><polygon class="l" points="244.06 208.57 238.34 214.37 236.56 213.47 244.06 208.57"/><polygon class="l" points="224.41 181.34 226.19 182.24 218.7 187.13 224.41 181.34"/><polygon class="l" points="236.56 213.47 238.34 214.37 238.34 216.05 235.1 214.42 236.56 213.47"/><polygon class="l" points="238.34 216.6 238.34 216.05 238.34 214.37 244.06 208.57 250.23 204.54 238.34 216.6"/><polygon class="l" points="238.34 216.05 238.34 216.6 238.34 217.17 234.14 215.05 235.1 214.42 238.34 216.05"/><polygon class="l" points="238.34 217.73 238.34 217.17 238.34 216.6 250.23 204.54 253.34 202.51 238.34 217.73"/><polygon class="l" points="236.56 213.47 235.1 214.42 228.9 211.28 223.16 206.7 236.56 213.47"/><polygon class="l" points="238.34 218.29 238.34 217.73 238.34 217.73 253.34 202.51 255.09 201.38 254.74 201.1 255.44 200.39 255.44 201.51 238.34 218.85 238.34 218.29"/><polygon class="l" points="238.34 220.53 207.31 204.85 207.3 203.73 238.34 219.41 238.34 219.41 238.34 219.98 238.34 220.53 238.34 220.53"/><polygon class="l" points="228.9 211.28 235.1 214.42 234.14 215.05 232.74 214.34 228.9 211.28"/><polygon class="l" points="238.34 222.22 238.34 221.66 238.34 221.09 255.44 203.75 255.44 204.87 238.34 222.22"/><polygon class="l" points="238.34 222.22 238.34 222.78 207.31 207.1 207.31 205.97 238.34 221.66 238.34 222.22"/><polygon class="l" points="238.34 222.78 238.34 222.22 255.44 204.87 255.44 205.99 238.34 223.33 238.34 222.78"/><polygon class="l" points="238.34 224.45 238.34 223.9 238.34 223.33 255.44 205.99 255.44 207.11 238.34 224.45"/><polygon class="l" points="234.14 215.05 233.86 215.23 232.74 214.34 234.14 215.05"/><polygon class="l" points="238.34 224.45 238.34 225.02 207.31 209.34 207.31 208.22 238.34 223.9 238.34 224.45"/><polygon class="l" points="238.34 217.73 238.34 218.29 207.3 202.61 207.3 201.49 232.74 214.34 233.86 215.23 234.14 215.05 238.34 217.17 238.34 217.73 238.34 217.73"/><polygon class="l" points="238.34 226.14 207.3 210.46 207.31 209.34 238.34 225.02 238.35 225.58 238.34 225.58 238.34 226.14"/><polygon class="l" points="238.34 226.7 238.34 226.14 238.34 225.58 238.35 225.58 255.44 208.24 255.44 209.35 238.34 226.7"/><polygon class="l" points="238.34 227.26 207.3 211.58 207.3 210.46 238.34 226.14 238.34 226.7 238.34 227.26 238.34 227.26"/><polygon class="l" points="238.34 227.26 238.34 227.26 238.34 227.82 238.34 228.38 238.34 228.38 207.31 212.7 207.3 211.58 238.34 227.26"/><polygon class="l" points="218.7 187.13 209.86 196.09 207.66 194.34 218.7 187.13"/><polygon class="l" points="238.34 228.94 238.34 228.38 238.34 227.82 255.44 210.47 255.44 211.6 238.34 228.94"/><polygon class="l" points="238.34 230.06 238.34 229.51 238.34 228.94 255.44 211.6 255.44 212.72 238.34 230.06"/><polygon class="l" points="238.34 231.19 238.34 230.63 238.34 230.06 255.44 212.72 255.44 213.84 255.44 213.85 238.34 231.19"/><polygon class="l" points="238.34 230.63 238.34 231.19 238.34 231.75 207.31 216.06 207.31 214.94 238.34 230.63"/><polygon class="l" points="238.34 231.75 238.34 231.19 255.44 213.85 255.44 214.96 255.44 214.97 238.34 232.3 238.34 231.75"/><polygon class="l" points="228.9 211.28 207.31 200.37 207.3 198.69 223.16 206.7 228.9 211.28"/><polygon class="l" points="238.34 232.87 238.34 232.31 238.34 232.3 255.44 214.97 255.44 216.08 238.34 233.42 238.34 232.87"/><polygon class="l" points="255.44 217.2 238.34 234.55 238.34 233.99 238.34 233.43 238.34 233.42 255.44 216.08 255.44 217.2"/><polygon class="l" points="255.44 218.32 238.34 235.67 238.34 235.11 238.34 234.55 255.44 217.2 255.44 218.32"/><polygon class="l" points="238.34 236.79 238.34 236.23 238.34 235.67 255.44 218.32 255.44 219.45 255.44 219.45 238.34 236.79"/><polygon class="l" points="238.34 236.79 255.44 219.45 255.44 220.57 255.44 220.57 238.34 237.91 238.34 237.35 238.34 236.79"/><polygon class="l" points="255.44 221.69 238.34 239.03 238.34 238.47 238.34 237.91 255.44 220.57 255.44 221.69 255.44 221.69"/><polygon class="l" points="209.86 196.09 223.16 206.7 207.3 198.69 209.86 196.09"/><polygon class="l" points="238.34 239.03 255.44 221.69 255.44 222.81 238.34 240.15 238.34 239.59 238.34 239.03"/><polygon class="l" points="238.34 240.71 207.31 225.03 207.31 223.91 238.34 239.59 238.34 240.15 238.34 240.16 238.34 240.71"/><polygon class="l" points="207.31 225.03 238.34 240.71 238.34 242.4 207.31 226.71 207.31 225.03"/><polygon class="l" points="207.31 200.37 228.9 211.28 232.74 214.34 207.3 201.49 207.31 200.37"/><polygon class="l" points="238.34 218.85 238.34 219.41 238.34 219.41 207.3 203.73 207.3 202.61 238.34 218.29 238.34 218.85 238.34 218.85"/><polygon class="l" points="238.34 220.53 238.34 220.53 238.34 221.09 238.34 221.66 207.31 205.97 207.31 204.85 238.34 220.53"/><polygon class="l" points="238.34 223.33 238.34 223.9 207.31 208.22 207.31 207.1 238.34 222.78 238.34 223.33"/><polygon class="l" points="238.34 228.38 238.34 228.94 238.34 229.51 207.31 213.82 207.31 212.7 238.34 228.38 238.34 228.38"/><polygon class="l" points="207.31 213.82 238.34 229.51 238.34 230.06 238.34 230.63 207.31 214.94 207.31 213.82"/><polygon class="l" points="238.34 232.31 238.34 232.87 207.31 217.18 207.31 216.06 238.34 231.75 238.34 232.3 238.34 232.31"/><polygon class="l" points="238.34 233.43 238.34 233.99 207.3 218.31 207.31 217.18 238.34 232.87 238.34 233.42 238.34 233.43"/><polygon class="l" points="238.34 234.55 238.34 235.11 207.3 219.43 207.3 218.31 238.34 233.99 238.34 234.55"/><polygon class="l" points="238.34 236.23 238.34 236.79 238.34 237.35 207.31 221.67 207.3 220.55 238.34 236.23"/><polygon class="l" points="238.34 235.67 238.34 236.23 207.3 220.55 207.3 219.43 238.34 235.11 238.34 235.67"/><polygon class="l" points="207.31 223.91 207.31 222.79 238.34 238.47 238.34 239.03 238.34 239.59 207.31 223.91"/><polygon class="l" points="207.31 221.67 238.34 237.35 238.34 237.91 238.34 238.47 207.31 222.79 207.31 221.67"/><polyline class="g" points="255.44 225.05 238.34 242.4 207.31 226.71"/><polyline class="g" points="239.58 189.01 255.44 197.02 252.89 199.62"/><polyline class="g" points="218.7 187.13 224.41 181.34 226.19 182.24"/><polyline class="g" points="223.16 206.7 207.3 198.69 209.86 196.09"/><polyline class="g" points="244.06 208.57 238.34 214.37 236.56 213.47"/><polyline class="m" points="250.23 204.54 238.34 216.6 238.34 216.61"/><line class="m" x1="255.44" y1="199.26" x2="254.12" y2="200.6"/><line class="m" x1="253.34" y1="202.51" x2="238.34" y2="217.73"/><line class="m" x1="255.44" y1="200.39" x2="254.74" y2="201.1"/><line class="m" x1="255.44" y1="201.51" x2="238.34" y2="218.85"/><line class="m" x1="255.44" y1="202.63" x2="238.34" y2="219.98"/><line class="m" x1="255.44" y1="203.75" x2="238.34" y2="221.1"/><line class="m" x1="255.44" y1="204.87" x2="238.34" y2="222.21"/><polyline class="m" points="255.44 205.99 238.34 223.33 238.34 223.34"/><polyline class="m" points="255.44 207.11 238.34 224.45 238.34 224.46"/><line class="m" x1="255.44" y1="208.24" x2="238.35" y2="225.58"/><line class="m" x1="255.44" y1="209.36" x2="238.34" y2="226.7"/><line class="m" x1="255.44" y1="210.47" x2="238.34" y2="227.82"/><line class="m" x1="255.44" y1="211.6" x2="238.34" y2="228.94"/><line class="m" x1="255.44" y1="212.72" x2="238.34" y2="230.06"/><line class="m" x1="255.44" y1="213.85" x2="238.34" y2="231.19"/><line class="m" x1="255.44" y1="214.97" x2="238.34" y2="232.3"/><polyline class="m" points="255.44 216.08 255.44 216.08 238.34 233.42"/><line class="m" x1="255.44" y1="217.2" x2="238.34" y2="234.55"/><line class="m" x1="255.44" y1="218.32" x2="238.34" y2="235.67"/><line class="m" x1="255.44" y1="219.45" x2="238.34" y2="236.79"/><line class="m" x1="255.44" y1="220.57" x2="238.34" y2="237.91"/><line class="m" x1="255.44" y1="221.69" x2="238.34" y2="239.03"/><polyline class="m" points="255.44 222.81 255.44 222.81 238.34 240.15"/><line class="g" x1="228.9" y1="211.28" x2="207.31" y2="200.37"/><line class="m" x1="238.34" y1="216.05" x2="235.11" y2="214.42"/><line class="m" x1="232.74" y1="214.34" x2="207.3" y2="201.49"/><line class="m" x1="238.34" y1="217.17" x2="234.14" y2="215.05"/><line class="m" x1="238.34" y1="218.29" x2="207.3" y2="202.61"/><line class="m" x1="238.34" y1="219.41" x2="207.3" y2="203.73"/><line class="m" x1="238.34" y1="220.53" x2="207.31" y2="204.85"/><line class="m" x1="238.34" y1="221.66" x2="207.31" y2="205.97"/><line class="m" x1="238.34" y1="222.78" x2="207.31" y2="207.1"/><line class="m" x1="238.34" y1="223.9" x2="207.31" y2="208.22"/><line class="m" x1="238.34" y1="225.02" x2="207.31" y2="209.34"/><line class="m" x1="238.34" y1="226.14" x2="207.3" y2="210.46"/><line class="m" x1="238.34" y1="227.26" x2="207.3" y2="211.58"/><line class="m" x1="238.34" y1="229.51" x2="207.31" y2="213.82"/><line class="m" x1="238.34" y1="228.38" x2="207.31" y2="212.7"/><line class="m" x1="238.34" y1="230.63" x2="207.31" y2="214.94"/><line class="m" x1="238.34" y1="231.74" x2="207.31" y2="216.06"/><line class="m" x1="238.34" y1="232.87" x2="207.31" y2="217.18"/><line class="m" x1="238.34" y1="233.99" x2="207.3" y2="218.31"/><line class="m" x1="238.34" y1="235.11" x2="207.3" y2="219.43"/><line class="m" x1="238.34" y1="236.23" x2="207.3" y2="220.55"/><line class="m" x1="238.34" y1="237.35" x2="207.31" y2="221.67"/><line class="m" x1="238.34" y1="238.47" x2="207.31" y2="222.79"/><line class="m" x1="238.34" y1="239.59" x2="207.31" y2="223.91"/><line class="m" x1="238.34" y1="240.71" x2="207.31" y2="225.03"/><line class="m" x1="207.31" y1="225.03" x2="207.31" y2="226.71"/><polyline class="g" points="207.3 198.69 207.31 200.37 207.3 201.49 207.3 202.61 207.3 203.73 207.31 204.85 207.31 205.97 207.31 207.1 207.31 208.22 207.31 209.34 207.3 210.46 207.3 211.58 207.31 212.7 207.31 213.82 207.31 214.94 207.31 216.06 207.31 217.18 207.3 218.31 207.3 219.43 207.3 220.55 207.31 221.67 207.31 222.79 207.31 223.91 207.31 225.03"/><polyline class="g" points="255.44 221.69 255.44 222.81 255.44 225.05"/><line class="m" x1="255.44" y1="221.69" x2="255.44" y2="221.69"/><line class="g" x1="255.44" y1="220.57" x2="255.44" y2="221.69"/><line class="m" x1="255.44" y1="220.57" x2="255.44" y2="220.57"/><line class="g" x1="255.44" y1="219.45" x2="255.44" y2="220.57"/><line class="m" x1="255.44" y1="219.45" x2="255.44" y2="219.45"/><polyline class="g" points="255.44 213.85 255.44 214.96 255.44 214.97 255.44 216.08 255.44 217.2 255.44 218.32 255.44 219.45"/><line class="m" x1="255.45" y1="213.84" x2="255.44" y2="213.85"/><polyline class="g" points="255.44 197.02 255.44 199.26 255.44 200.39 255.44 201.51 255.44 202.63 255.44 203.75 255.44 204.87 255.44 205.99 255.44 207.11 255.44 208.24 255.44 209.35 255.44 210.47 255.44 211.6 255.44 212.72 255.44 213.84"/><polyline class="g" points="238.34 233.43 238.34 233.99 238.34 234.55 238.34 235.11 238.34 235.67 238.34 236.23 238.34 236.79 238.34 237.35 238.34 237.91 238.34 238.47 238.34 239.03 238.34 239.59 238.34 240.15 238.34 240.16 238.34 240.71 238.34 242.4"/><line class="m" x1="238.34" y1="233.42" x2="238.34" y2="233.43"/><polyline class="g" points="238.34 218.85 238.34 219.41 238.34 219.98 238.34 220.53 238.34 221.09 238.34 221.66 238.34 222.22 238.34 222.78 238.34 223.33 238.34 223.9 238.34 224.45 238.34 225.02 238.35 225.58 238.34 225.58 238.34 226.14 238.34 226.7 238.34 227.26 238.34 227.82 238.34 228.38 238.34 228.94 238.34 229.51 238.34 230.06 238.34 230.63 238.34 231.19 238.34 231.75 238.34 232.3 238.34 232.31 238.34 232.87 238.34 233.42"/><line class="m" x1="238.34" y1="218.85" x2="238.34" y2="218.85"/><polyline class="g" points="238.34 217.73 238.34 218.29 238.34 218.85"/><line class="m" x1="238.34" y1="217.73" x2="238.34" y2="217.73"/><polyline class="g" points="238.34 214.37 238.34 216.05 238.34 216.6 238.34 217.17 238.34 217.73"/><polygon class="g" points="254.74 201.1 255.09 201.38 253.34 202.51 250.23 204.54 244.06 208.57 236.56 213.47 235.1 214.42 234.14 215.05 233.86 215.23 232.74 214.34 228.9 211.28 223.16 206.7 209.86 196.09 207.66 194.34 218.7 187.13 226.19 182.24 228.89 180.48 239.58 189.01 252.89 199.62 254.12 200.6 254.74 201.1"/><polygon class="b" points="222.09 255.45 220.28 258.01 210.97 252.41 210.97 252.41 212.77 249.85 222.09 255.45"/><polygon class="g" points="212.77 249.85 222.09 255.45 220.28 258.01 210.97 252.41 183.2 235.72 185 233.16 212.77 249.85"/><polyline class="g" points="212.78 249.85 212.77 249.85 210.97 252.41"/><polygon class="b" points="234.28 244.75 233.05 247.62 222.78 244.09 224.01 241.21 234.28 244.75"/><polygon class="g" points="224.01 241.21 234.28 244.75 233.05 247.62 222.78 244.09 192.14 233.53 193.37 230.66 224.01 241.21"/><line class="g" x1="224.01" y1="241.21" x2="222.78" y2="244.08"/><polygon class="b" points="231.8 263.84 231.27 266.92 220.46 265.87 220.46 265.86 220.99 262.78 231.8 263.84"/><polygon class="g" points="220.99 262.78 231.8 263.84 231.27 266.92 220.46 265.87 188.21 262.71 188.74 259.63 220.99 262.78"/><polyline class="g" points="220.99 262.78 220.99 262.78 220.46 265.86"/><rect class="p" x="103.32" y="102.22" width="4.27" height="4.27" transform="translate(-5.52 5.86) rotate(-3.12)"/><rect class="p" x="103" y="96.36" width="4.27" height="4.27" transform="translate(-5.2 5.84) rotate(-3.12)"/><rect class="p" x="102.69" y="90.49" width="4.27" height="4.27" transform="translate(-4.88 5.81) rotate(-3.12)"/><rect class="p" x="97.46" y="102.54" width="4.27" height="4.27" transform="translate(-5.55 5.54) rotate(-3.12)"/><rect class="p" x="97.14" y="96.67" width="4.27" height="4.27" transform="translate(-5.23 5.52) rotate(-3.12)"/><rect class="p" x="96.82" y="90.81" width="4.27" height="4.27" transform="translate(-4.91 5.49) rotate(-3.12)"/><rect class="p" x="91.6" y="102.85" width="4.27" height="4.27" transform="translate(-5.57 5.23) rotate(-3.12)"/><rect class="p" x="91.28" y="96.99" width="4.27" height="4.27" transform="translate(-5.25 5.2) rotate(-3.12)"/><rect class="p" x="90.96" y="91.13" width="4.27" height="4.27" transform="translate(-4.94 5.17) rotate(-3.12)"/><rect class="p" x="85.74" y="103.17" width="4.27" height="4.27" transform="translate(-5.6 4.91) rotate(-3.12)"/><rect class="p" x="85.42" y="97.31" width="4.27" height="4.27" transform="translate(-5.28 4.88) rotate(-3.12)"/><rect class="p" x="85.1" y="91.45" width="4.27" height="4.27" transform="translate(-4.96 4.85) rotate(-3.12)"/><rect x="53.37" y="92.5" width="29.11" height="4.27" transform="translate(-5.05 3.81) rotate(-3.12)"/><rect class="s" x="52.59" y="71.47" width="18.03" height="18.03" transform="translate(-4.29 3.44) rotate(-3.12)"/><path class="l" d="M123.82,64.68l2.84,52.15L50.84,121,48,68.82Zm-16.11,41.68-.24-4.26-4.26.24.23,4.25Zm-.32-5.86-.23-4.26-4.27.23.23,4.26Zm-.32-5.86-.23-4.26-4.27.23.23,4.26Zm-5.22,12-.24-4.26-4.26.23.23,4.26Zm-.32-5.86-.24-4.26L97,96.79l.23,4.26ZM101.21,95,101,90.7l-4.27.23.23,4.26ZM96,107l-.24-4.26-4.26.23.23,4.26Zm-.32-5.86-.24-4.26-4.26.23.23,4.26Zm-.32-5.86L95.11,91l-4.26.23.23,4.26Zm-5.23,12-.23-4.26-4.26.23.23,4.26Zm-.31-5.86-.24-4.26-4.26.23.23,4.26Zm-.32-5.86-.24-4.26L85,91.57l.23,4.26ZM82.58,96l-.24-4.25L53.28,93.3l.23,4.26ZM71.1,89l-1-18-18,1,1,18Z" transform="translate(0 -0.03)"/><rect class="g" x="49.37" y="66.71" width="75.93" height="52.22" transform="translate(-4.92 4.86) rotate(-3.12)"/><rect class="j" x="52.59" y="71.47" width="18.03" height="18.03" transform="translate(-4.29 3.44) rotate(-3.12)"/><rect class="g" x="53.37" y="92.5" width="29.11" height="4.27" transform="translate(-5.05 3.81) rotate(-3.12)"/><path class="g" d="M53.69,100.77c.46-.23.94.35,1.21.93s.51,1.27,1,1.52A4.28,4.28,0,0,0,57,101.09c.55,0,1,1.22,1.46.82.21-.18.22-.6.38-.85.3-.48.9-.11,1.22.36s.68,1.08,1.15,1c.3,0,.55-.31.8-.54a2.11,2.11,0,0,1,2.68-.16c.14-.51.55-1.11.84-.72.12.16.17.44.33.46s.23-.3.36-.43.53.08.69.4.3.71.58.75c.6.08.54-1.49,1.12-1.69l1.14,2c.1.18.22.36.38.39s.31-.15.42-.32c.5-.68,1-1.37,1.47-2.06.45.87.89,1.74,1.33,2.61.74-.46.82-2.08,1.6-2.36s1.46.78,2.11.38c.25-.16.41-.49.62-.71s.58-.31.74,0" transform="translate(0 -0.03)"/><line class="j" x1="54.04" y1="107.18" x2="78.74" y2="105.84"/><line class="j" x1="54.17" y1="109.63" x2="71.66" y2="108.67"/><line class="j" x1="54.3" y1="112.07" x2="64.37" y2="111.52"/><line class="j" x1="54.44" y1="114.51" x2="68.22" y2="113.76"/><rect class="j" x="85.1" y="91.45" width="4.27" height="4.27" transform="translate(-4.96 4.85) rotate(-3.12)"/><rect class="j" x="90.96" y="91.13" width="4.27" height="4.27" transform="translate(-4.94 5.17) rotate(-3.12)"/><rect class="j" x="96.82" y="90.81" width="4.27" height="4.27" transform="translate(-4.91 5.49) rotate(-3.12)"/><rect class="j" x="102.69" y="90.49" width="4.27" height="4.27" transform="translate(-4.88 5.81) rotate(-3.12)"/><rect class="j" x="85.42" y="97.31" width="4.27" height="4.27" transform="translate(-5.28 4.88) rotate(-3.12)"/><rect class="j" x="91.28" y="96.99" width="4.27" height="4.27" transform="translate(-5.25 5.2) rotate(-3.12)"/><rect class="j" x="97.14" y="96.67" width="4.27" height="4.27" transform="translate(-5.23 5.52) rotate(-3.12)"/><rect class="j" x="103" y="96.36" width="4.27" height="4.27" transform="translate(-5.2 5.84) rotate(-3.12)"/><rect class="j" x="85.74" y="103.17" width="4.27" height="4.27" transform="translate(-5.6 4.91) rotate(-3.12)"/><rect class="j" x="91.6" y="102.85" width="4.27" height="4.27" transform="translate(-5.57 5.23) rotate(-3.12)"/><rect class="j" x="97.46" y="102.54" width="4.27" height="4.27" transform="translate(-5.55 5.54) rotate(-3.12)"/><rect class="j" x="103.32" y="102.22" width="4.27" height="4.27" transform="translate(-5.52 5.86) rotate(-3.12)"/><path class="t" d="M115.62,69.28a4.84,4.84,0,1,0,5.09,4.56" transform="translate(0 -0.03)"/><path class="t" d="M116.35,82.63a4.84,4.84,0,1,0,4.31,2.19" transform="translate(0 -0.03)"/><path class="t" d="M117.08,96a4.83,4.83,0,1,0,.52,9.65,4.78,4.78,0,0,0,3.32-1.59" transform="translate(0 -0.03)"/><rect class="s" x="298.22" y="89.26" width="2.72" height="0.11"/><rect class="s" x="298.22" y="80.31" width="2.72" height="8.95"/><rect class="s" x="293.52" y="89.26" width="2.72" height="0.11"/><rect class="s" x="293.52" y="87.39" width="2.72" height="1.87"/><rect class="s" x="288.82" y="89.26" width="2.72" height="0.11"/><rect class="s" x="288.82" y="83.69" width="2.72" height="5.57"/><rect class="s" x="284.12" y="89.26" width="2.72" height="0.11"/><rect class="s" x="284.12" y="84.71" width="2.72" height="4.55"/><rect class="s" x="279.43" y="89.37" width="2.72" height="10.14"/><path class="l" d="M254,89.29V86.21h-2.72V89.4H254Zm4.7,0V84.47h-2.72v5.22h2.72Zm4.7,0V84.47h-2.72v5.22h2.72Zm4.69,0V83.42h-2.72v6h2.72Zm2,.11v3.3h2.72V89.4Zm7.42-.11V78h-2.72V89.4h2.72Zm4.7,10.26V89.4h-2.72V99.55Zm4.69-10.26V84.74h-2.72V89.4h2.72Zm4.7,0V83.72h-2.72V89.4h2.72Zm4.7,0V87.42h-2.72v2h2.72Zm4.7,0v-9h-2.72V89.4h2.72Zm-51.68.11h-2.72v8.5h2.72Zm66-32.1v52.22H239.34V57.3Z" transform="translate(0 -0.03)"/><rect class="s" x="274.73" y="89.26" width="2.72" height="0.11"/><rect class="s" x="274.73" y="78.02" width="2.72" height="11.24"/><rect class="s" x="270.03" y="89.37" width="2.72" height="3.3"/><rect class="s" x="265.33" y="89.26" width="2.72" height="0.11"/><rect class="s" x="265.33" y="83.39" width="2.72" height="5.87"/><rect class="s" x="260.64" y="89.26" width="2.72" height="0.4"/><rect class="s" x="260.64" y="84.44" width="2.72" height="4.82"/><rect class="s" x="255.94" y="89.26" width="2.72" height="0.4"/><rect class="s" x="255.94" y="84.44" width="2.72" height="4.82"/><rect class="s" x="251.24" y="89.26" width="2.72" height="0.11"/><rect class="s" x="251.24" y="86.18" width="2.72" height="3.08"/><rect class="s" x="246.54" y="89.37" width="2.72" height="8.5"/><rect class="g" x="239.34" y="57.27" width="75.93" height="52.22"/><line class="u" x1="243.92" y1="63.38" x2="275.57" y2="63.38"/><line class="g" x1="243.92" y1="69.23" x2="263.82" y2="69.23"/><polyline class="g" points="243.92 74.64 243.92 89.26 243.92 104.68"/><polyline class="g" points="243.92 89.26 251.24 89.26 253.96 89.26 255.94 89.26 258.66 89.26 260.64 89.26 263.36 89.26 265.33 89.26 268.05 89.26 274.73 89.26 277.45 89.26 284.12 89.26 286.84 89.26 288.82 89.26 291.54 89.26 293.52 89.26 296.24 89.26 298.22 89.26 300.94 89.26 309.9 89.26"/><line class="m" x1="283.34" y1="100.3" x2="289.4" y2="100.3"/><line class="v" x1="278.64" y1="77.59" x2="284.7" y2="77.59"/><line class="v" x1="302.13" y1="79.94" x2="308.19" y2="79.94"/><line class="v" x1="250.46" y1="97.95" x2="256.51" y2="97.95"/><path class="l" d="M95.89,129.38h0a4,4,0,0,1-4.5.07,4.84,4.84,0,0,0,.78,4.46l-18.38,1.85c-5.88-7.87-7.7-19.7-7.7-19.7l24.58-2.49A56.14,56.14,0,0,0,95.89,129.38Z" transform="translate(0 -0.03)"/><path class="p" d="M91.38,129.46a4,4,0,0,0,4.5-.07,13.93,13.93,0,0,0-3.72,4.53A4.84,4.84,0,0,1,91.38,129.46Z" transform="translate(0 -0.03)"/><path class="j" d="M95.88,129.39a4,4,0,0,1-4.5.07,4.84,4.84,0,0,0,.78,4.46" transform="translate(0 -0.03)"/><path class="g" d="M95.89,129.38a56.14,56.14,0,0,1-5.23-15.8l-24.58,2.49s1.82,11.83,7.7,19.7l18.38-1.85" transform="translate(0 -0.03)"/><path class="g" d="M95.89,129.38h0a13.93,13.93,0,0,0-3.72,4.53" transform="translate(0 -0.03)"/><path class="l" d="M120.05,123.21h0a4,4,0,0,1-4.25,1.5,4.81,4.81,0,0,0,2.15,4l-16.84,7.59C93,130.67,87.56,120,87.56,120l22.52-10.15A56.33,56.33,0,0,0,120.05,123.21Z" transform="translate(0 -0.03)"/><path class="p" d="M120,123.22a13.89,13.89,0,0,0-2.1,5.47,4.81,4.81,0,0,1-2.15-4A4,4,0,0,0,120,123.22Z" transform="translate(0 -0.03)"/><path class="j" d="M120,123.22a4,4,0,0,1-4.25,1.5,4.81,4.81,0,0,0,2.15,4" transform="translate(0 -0.03)"/><path class="g" d="M120.05,123.21a56.33,56.33,0,0,1-10-13.33L87.56,120S93,130.67,101.1,136.28l16.84-7.59" transform="translate(0 -0.03)"/><path class="g" d="M120.05,123.21h0a13.89,13.89,0,0,0-2.1,5.47" transform="translate(0 -0.03)"/><path class="l" d="M316.15,60.73h0l0,0Z" transform="translate(0 -0.03)"/><path class="l" d="M316.15,60.73l0,0A4,4,0,0,1,311.82,62a4.84,4.84,0,0,0,1.93,4.09l-17.23,6.66c-7.76-6-12.64-17-12.64-17l23-8.91A56.42,56.42,0,0,0,316.15,60.73Z" transform="translate(0 -0.03)"/><path class="p" d="M311.82,62a4,4,0,0,0,4.31-1.25,13.7,13.7,0,0,0-2.38,5.34A4.84,4.84,0,0,1,311.82,62Z" transform="translate(0 -0.03)"/><path class="j" d="M316.13,60.75A4,4,0,0,1,311.82,62a4.84,4.84,0,0,0,1.93,4.09" transform="translate(0 -0.03)"/><path class="g" d="M316.15,60.73l0,0" transform="translate(0 -0.03)"/><path class="g" d="M316.15,60.73h0a56.42,56.42,0,0,1-9.23-13.86l-23,8.91s4.88,10.93,12.64,17l17.23-6.66" transform="translate(0 -0.03)"/><path class="g" d="M316.15,60.73l0,0a13.7,13.7,0,0,0-2.38,5.34" transform="translate(0 -0.03)"/></svg>