<svg xmlns="http://www.w3.org/2000/svg" viewBox="0 0 415.95 271.15"><defs><style>.a{fill:#f37739;}.b,.e,.g,.h,.i{fill:none;}.b,.g{stroke:#000;stroke-miterlimit:10;}.c{fill:#231f20;}.d{fill:#fff;}.e,.h,.i{stroke:#231f20;stroke-linecap:round;stroke-linejoin:round;}.e,.g{stroke-width:2px;}.f{fill:#dddfe8;}.i{stroke-width:0.5px;}</style></defs><title>researcher</title><path class="a" d="M410.63,198.81S486.83,11.82,225.07,13,7.88,198.81,7.88,198.81Z" transform="translate(-5 -13.02)"/><path class="b" d="M220.72,74.91l-.49,0" transform="translate(-5 -13.02)"/><rect class="c" x="271.33" y="221.03" width="13" height="4.2"/><rect class="d" x="232.59" y="221.03" width="38.75" height="4.2"/><polygon class="e" points="271.33 221.03 284.33 221.03 284.33 225.24 271.33 225.24 232.59 225.24 232.59 221.03 271.33 221.03"/><line class="e" x1="271.33" y1="221.03" x2="271.33" y2="225.24"/><rect class="c" x="261.43" y="246.09" width="4.2" height="12.99" transform="translate(-56.5 423.95) rotate(-74.12)"/><polygon class="e" points="252.87 235.76 265.36 239.32 264.21 243.36 251.72 239.81 214.45 229.21 215.6 225.17 252.87 235.76"/><line class="e" x1="252.86" y1="235.76" x2="251.71" y2="239.81"/><path class="d" d="M300.35,171.61c9.35,0,16.93,3.39,16.93,7.55l-.13.94a5,5,0,0,1-1.51,2.31c-2.72-2.54-8.55-4.3-15.29-4.3s-12.55,1.75-15.28,4.3a5,5,0,0,1-1.51-2.31l-.13-.94C283.43,175,291,171.61,300.35,171.61Z" transform="translate(-5 -13.02)"/><path d="M300.35,178.11c6.74,0,12.57,1.76,15.29,4.3-2.72,2.55-8.55,4.31-15.29,4.31s-12.56-1.76-15.28-4.31C287.8,179.86,293.62,178.11,300.35,178.11Z" transform="translate(-5 -13.02)"/><path class="d" d="M306.32,158.8c1.06,1.14-2.39,6.52-2.39,6.52.45-3.47-1-2.69-1.47-5.8s2.93-5.25,2.93-5.25S305.28,157.67,306.32,158.8Z" transform="translate(-5 -13.02)"/><polygon class="d" points="294.19 185.79 281.21 185.79 279.63 174.58 294.19 185.79"/><path class="d" d="M297.1,151.65c1.77,1.89-4,10.89-4,10.89.75-5.81-1.66-4.5-2.45-9.71s4.89-8.76,4.89-8.76S295.34,149.75,297.1,151.65Z" transform="translate(-5 -13.02)"/><path class="d" d="M285.07,182.41c2.72,2.55,8.55,4.31,15.28,4.31s12.57-1.76,15.29-4.31a5,5,0,0,0,1.51-2.31l-2.65,18.71-2.21,15.6c0,4.18-5.34,7.56-11.94,7.56s-11.93-3.38-11.93-7.56l-2.21-15.6h13L284.63,187.6l-1.07-7.5A5,5,0,0,0,285.07,182.41Z" transform="translate(-5 -13.02)"/><path d="M276.62,181.44l8,6.16,1.58,11.21h-7A66.4,66.4,0,0,0,276.62,181.44Z" transform="translate(-5 -13.02)"/><path class="d" d="M239.27,80.36c6.65,3.87,12.5,10.47,12.75,21.75a40.42,40.42,0,0,1-3.77,18c-2.56,5.82-5.61,10.22-6.21,14.42-.69,4.8,1.8,9.31,11.79,15.35A48.84,48.84,0,0,1,272,169.67a62.09,62.09,0,0,1,4.59,11.77,66.4,66.4,0,0,1,2.6,17.37h-118a66.51,66.51,0,0,1,2.59-17.36,63.72,63.72,0,0,1,4.29-11.2l0-.06a49.06,49.06,0,0,1,18.47-20.34c10-6,12.48-10.56,11.79-15.35-.6-4.17-3.59-8.52-6.15-14.27a40.82,40.82,0,0,1-3.82-18.12c.26-11.44,6.28-18.07,13.05-21.91,7.74-4.4,16.48-5.14,18.74-5.27h0C222.51,75.06,231.45,75.82,239.27,80.36Zm-19.59,49.85c9,0,10.78-5.86,10.78-7.25,0,0-1.93,4.55-10.26,4.72-8.33-.17-10.26-4.72-10.26-4.72C209.94,124.35,212,130.21,219.68,130.21Z" transform="translate(-5 -13.02)"/><path class="f" d="M256.84,80.2s8.07,1.56,8.07,9.62v22.56s-1.21,7.85-7.66,7.85h-8.66l-.34-.15a40.42,40.42,0,0,0,3.77-18c-.25-11.28-6.1-17.88-12.75-21.75l.09-.16Z" transform="translate(-5 -13.02)"/><path class="f" d="M262,140.59l10,29.08a48.84,48.84,0,0,0-18.2-19.82c-10-6-12.48-10.55-11.79-15.35C260.19,134.52,262,140.59,262,140.59Z" transform="translate(-5 -13.02)"/><path class="d" d="M230.46,123c0,1.39-1.73,7.25-10.78,7.25-7.65,0-9.74-5.86-9.74-7.25,0,0,1.93,4.55,10.26,4.72C228.53,127.51,230.46,123,230.46,123Z" transform="translate(-5 -13.02)"/><path class="f" d="M184,80.2h17.49c-6.77,3.84-12.79,10.47-13.05,21.91a40.82,40.82,0,0,0,3.82,18.12h-8.66c-6.44,0-7.66-7.85-7.66-7.85V89.82C175.89,81.76,184,80.2,184,80.2Z" transform="translate(-5 -13.02)"/><path class="f" d="M178.31,140.59s1.82-6.09,20.05-6.09c.69,4.79-1.8,9.31-11.79,15.35a49.06,49.06,0,0,0-18.47,20.34Z" transform="translate(-5 -13.02)"/><path d="M143.66,198.81l20.12-17.36a66.51,66.51,0,0,0-2.59,17.36Z" transform="translate(-5 -13.02)"/><line class="b" x1="405.63" y1="185.79" x2="309.5" y2="185.79"/><polyline class="b" points="281.21 185.79 274.22 185.79 251.56 185.79 178.93 185.79 156.19 185.79 138.66 185.79 2.88 185.79"/><path class="b" d="M168.07,170.25a63.72,63.72,0,0,0-4.29,11.2,66.51,66.51,0,0,0-2.59,17.36" transform="translate(-5 -13.02)"/><path class="b" d="M220.18,74.93c-2.26.13-11,.87-18.74,5.27-6.77,3.84-12.79,10.47-13.05,21.91a40.82,40.82,0,0,0,3.82,18.12c2.56,5.75,5.55,10.1,6.15,14.27.69,4.79-1.8,9.31-11.79,15.35a49.06,49.06,0,0,0-18.47,20.34" transform="translate(-5 -13.02)"/><path class="b" d="M209.94,123s1.93,4.55,10.26,4.72h.52" transform="translate(-5 -13.02)"/><path class="b" d="M211.15,100.66a3,3,0,0,1-5.9,0" transform="translate(-5 -13.02)"/><path class="b" d="M219.68,74.91l.5,0h0c2.28.13,11.22.89,19,5.43,6.65,3.87,12.5,10.47,12.75,21.75a40.42,40.42,0,0,1-3.77,18c-2.56,5.82-5.61,10.22-6.21,14.42-.69,4.8,1.8,9.31,11.79,15.35A48.84,48.84,0,0,1,272,169.67a62.09,62.09,0,0,1,4.59,11.77,66.4,66.4,0,0,1,2.6,17.37" transform="translate(-5 -13.02)"/><path class="b" d="M230.46,123s-1.93,4.55-10.26,4.72h-.52" transform="translate(-5 -13.02)"/><path class="b" d="M229.26,100.66a3,3,0,0,0,5.89,0" transform="translate(-5 -13.02)"/><polyline class="b" points="138.66 185.79 158.78 168.43 158.78 168.42"/><line class="b" x1="271.62" y1="168.42" x2="279.63" y2="174.58"/><path class="g" d="M201.44,80.2H184s-8.06,1.56-8.06,9.62v22.56s1.22,7.85,7.66,7.85h8.66" transform="translate(-5 -13.02)"/><path class="g" d="M168.07,170.25l0-.06,10.21-29.6s1.82-6.09,20.05-6.09" transform="translate(-5 -13.02)"/><path class="g" d="M239.36,80.2h17.48s8.07,1.56,8.07,9.62v22.56s-1.21,7.85-7.66,7.85h-8.66" transform="translate(-5 -13.02)"/><path class="g" d="M272.23,170.25l-.2-.58-10-29.08s-1.81-6.07-20-6.09H242" transform="translate(-5 -13.02)"/><path class="b" d="M230.46,123c0,1.39-1.73,7.25-10.78,7.25-7.65,0-9.74-5.86-9.74-7.25" transform="translate(-5 -13.02)"/><path class="b" d="M183.93,198.81s-2.21-27,13.5-32.27" transform="translate(-5 -13.02)"/><path class="b" d="M256.56,198.81s2.21-27-13.5-32.27" transform="translate(-5 -13.02)"/><path class="g" d="M317.28,179.16a3.68,3.68,0,0,1-.13.94,5,5,0,0,1-1.51,2.31c-2.72,2.55-8.55,4.31-15.29,4.31s-12.56-1.76-15.28-4.31a5,5,0,0,1-1.51-2.31,3.68,3.68,0,0,1-.13-.94c0-4.16,7.58-7.55,16.92-7.55S317.28,175,317.28,179.16Z" transform="translate(-5 -13.02)"/><path class="b" d="M284.76,182.72c.1-.1.2-.22.31-.31,2.73-2.55,8.55-4.3,15.28-4.3s12.57,1.76,15.29,4.3" transform="translate(-5 -13.02)"/><path class="g" d="M283.43,179.16l.13.94,1.07,7.5,1.58,11.21,2.21,15.6c0,4.18,5.34,7.56,11.93,7.56s11.94-3.38,11.94-7.56l2.21-15.6,2.65-18.71.13-.94" transform="translate(-5 -13.02)"/><path class="b" d="M295.54,144.07s-5.67,3.56-4.89,8.76,3.2,3.9,2.45,9.71c0,0,5.77-9,4-10.89S295.54,144.07,295.54,144.07Z" transform="translate(-5 -13.02)"/><path class="b" d="M305.39,154.27s-3.4,2.12-2.93,5.25,1.92,2.33,1.47,5.8c0,0,3.45-5.38,2.39-6.52S305.39,154.27,305.39,154.27Z" transform="translate(-5 -13.02)"/><path class="f" d="M186.58,233.74a3.25,3.25,0,0,1-1.63,1.81L136,263.5a8.39,8.39,0,0,1-7.48.14L65.36,227.09a2.72,2.72,0,0,1-1.27-1.36c-.39-1,.15-2.13,1.57-2.94l48.93-27.94a8.33,8.33,0,0,1,7.48-.15l63.18,36.55A2.21,2.21,0,0,1,186.58,233.74Zm-25.23-11.88c.61-.36.64-.91.08-1.23l-18-10.39a2.36,2.36,0,0,0-2.12,0l-10.73,6.12v4.94l14.69,8.5a2.36,2.36,0,0,0,2.12,0Zm-5.9,22.45c1.83-1.05,2-2.72.25-3.7L130.62,226.1v32.39Z" transform="translate(-5 -13.02)"/><path class="d" d="M161.43,220.63c.56.32.53.87-.08,1.23l-13.92,7.94a2.36,2.36,0,0,1-2.12,0l-14.69-8.5V216.4l10.73-6.12a2.36,2.36,0,0,1,2.12,0Z" transform="translate(-5 -13.02)"/><path class="d" d="M155.7,240.61c1.7,1,1.58,2.65-.25,3.7l-24.83,14.18V226.1Z" transform="translate(-5 -13.02)"/><path class="d" d="M186.77,236.12c.25,1-.3,2-1.63,2.76L136.2,266.82a8.3,8.3,0,0,1-7.47.15L65.54,230.41a2.37,2.37,0,0,1-1.39-2v0l-.06-2.69a2.72,2.72,0,0,0,1.27,1.36l63.18,36.55a8.39,8.39,0,0,0,7.48-.14L185,235.55a3.25,3.25,0,0,0,1.63-1.81l0,2.21Z" transform="translate(-5 -13.02)"/><path class="e" d="M186.58,233.74a2.21,2.21,0,0,0-1.33-2.49L122.07,194.7a8.33,8.33,0,0,0-7.48.15L65.66,222.79c-1.42.81-2,1.94-1.57,2.94a2.72,2.72,0,0,0,1.27,1.36l63.18,36.55a8.39,8.39,0,0,0,7.48-.14L185,235.55A3.25,3.25,0,0,0,186.58,233.74Z" transform="translate(-5 -13.02)"/><path class="e" d="M64.15,228.44a2.37,2.37,0,0,0,1.39,2L128.73,267a8.3,8.3,0,0,0,7.47-.15l48.94-27.94c1.33-.76,1.88-1.8,1.63-2.76" transform="translate(-5 -13.02)"/><path class="e" d="M64.16,228.22a1.41,1.41,0,0,0,0,.2" transform="translate(-5 -13.02)"/><line class="h" x1="59.15" y1="215.43" x2="59.16" y2="216.02"/><line class="e" x1="59.15" y1="215.4" x2="59.15" y2="215.43"/><polyline class="h" points="59.06 211.51 59.09 212.71 59.15 215.4"/><polyline class="h" points="181.55 219.68 181.57 220.72 181.63 222.93"/><path class="h" d="M130.62,221.34l14.69,8.5a2.36,2.36,0,0,0,2.12,0l13.92-7.94c.61-.36.64-.91.08-1.23l-18-10.39a2.36,2.36,0,0,0-2.12,0l-10.73,6.12" transform="translate(-5 -13.02)"/><path class="h" d="M130.62,258.49l24.83-14.18c1.83-1.05,2-2.72.25-3.7L130.62,226.1" transform="translate(-5 -13.02)"/><path class="f" d="M127.64,207.59v56.35a2.94,2.94,0,0,1-1,2.54h0l-.35.17a2.5,2.5,0,0,1-2.18-.34L61,229.59A8.36,8.36,0,0,1,57.4,223V166.67a3,3,0,0,1,1-2.51h0l.48-.24a2.58,2.58,0,0,1,2.1.36L124.05,201A8.35,8.35,0,0,1,127.64,207.59ZM94.2,220.91c4,2,7.08.46,6.89-3.52s-3.56-8.88-7.54-10.91S86.48,206,86.66,210,90.22,218.86,94.2,220.91Z" transform="translate(-5 -13.02)"/><path class="d" d="M101.09,217.39c.19,4-2.9,5.55-6.89,3.52S86.84,214,86.66,210s2.9-5.56,6.89-3.51S100.91,213.4,101.09,217.39Z" transform="translate(-5 -13.02)"/><path class="d" d="M129.47,265.05l-2.88,1.43a2.94,2.94,0,0,0,1-2.54V207.59a8.35,8.35,0,0,0-3.59-6.57L61,164.28a2.58,2.58,0,0,0-2.1-.36l2.82-1.44a2.51,2.51,0,0,1,2.27.31L127,199.53a8.32,8.32,0,0,1,3.59,6.56v56.35A2.85,2.85,0,0,1,129.47,265.05Z" transform="translate(-5 -13.02)"/><path class="e" d="M126.58,266.49a1.42,1.42,0,0,1-.35.17,2.5,2.5,0,0,1-2.18-.34L61,229.59A8.36,8.36,0,0,1,57.4,223V166.67a3,3,0,0,1,1-2.51" transform="translate(-5 -13.02)"/><path class="e" d="M58.4,164.16a1.44,1.44,0,0,1,.48-.24,2.58,2.58,0,0,1,2.1.36L124.05,201a8.35,8.35,0,0,1,3.59,6.57v56.35a2.94,2.94,0,0,1-1,2.54" transform="translate(-5 -13.02)"/><polyline class="e" points="56.7 149.47 53.88 150.9 53.4 151.14 53.39 151.14"/><polyline class="e" points="124.47 252.03 121.59 253.46 121.58 253.47 121.23 253.64"/><path class="e" d="M61.7,162.48a2.51,2.51,0,0,1,2.27.31L127,199.53a8.32,8.32,0,0,1,3.59,6.56v56.35a2.85,2.85,0,0,1-1.15,2.61" transform="translate(-5 -13.02)"/><path class="h" d="M101.09,217.39c.19,4-2.9,5.55-6.89,3.52S86.84,214,86.66,210s2.9-5.56,6.89-3.51S100.91,213.4,101.09,217.39Z" transform="translate(-5 -13.02)"/><polygon class="d" points="374.1 166.1 392.89 177.54 389.86 181.25 374.1 166.1"/><polygon class="d" points="392.89 177.54 392.89 180.74 391.32 182.66 389.86 181.25 392.89 177.54"/><polygon class="d" points="392.06 183.37 392.47 183.76 390.42 185.37 392.06 183.37"/><polygon class="d" points="391.32 182.66 392.06 183.37 390.42 185.37 386.73 188.27 391.32 182.66"/><polygon class="d" points="391.32 182.66 386.73 188.27 379.4 194.04 389.86 181.25 391.32 182.66"/><polygon class="d" points="389.86 181.25 379.4 194.04 370.52 201.02 354.66 191.37 338.89 176.21 349.36 163.42 358.23 156.44 374.1 166.1 389.86 181.25"/><polygon class="d" points="361.44 153.92 374.1 166.1 358.23 156.44 361.44 153.92"/><polygon class="d" points="379.4 194.04 372.63 202.31 370.52 201.02 379.4 194.04"/><polygon class="d" points="356.13 155.15 358.23 156.44 349.36 163.42 356.13 155.15"/><polygon class="d" points="372.63 204.71 372.63 202.31 379.4 194.04 386.73 188.27 372.63 205.51 372.63 204.71"/><polygon class="d" points="372.63 206.31 372.63 205.51 386.73 188.27 390.42 185.37 372.63 207.11 372.63 206.31"/><polygon class="d" points="354.66 191.37 370.52 201.02 368.79 202.37 361.48 197.92 354.66 191.37"/><polygon class="d" points="392.89 183.95 372.63 208.71 372.63 207.91 372.63 207.11 390.42 185.37 392.47 183.76 392.06 183.37 392.89 182.35 392.89 183.94 392.89 183.95"/><polygon class="d" points="372.63 207.91 372.63 208.71 372.63 209.51 335.87 187.12 335.87 185.52 372.63 207.91"/><polygon class="d" points="372.63 208.71 392.89 183.95 392.89 185.54 392.89 185.55 372.63 210.31 372.63 209.51 372.63 208.71"/><polygon class="d" points="372.63 211.11 335.87 188.72 335.87 187.12 372.63 209.51 372.63 210.31 372.63 211.11"/><polygon class="d" points="372.63 211.11 372.63 210.31 392.89 185.55 392.89 187.15 372.63 211.91 372.63 211.11"/><polygon class="d" points="392.89 188.75 372.63 213.51 372.63 212.71 372.63 211.91 392.89 187.15 392.89 188.75"/><polygon class="d" points="368.79 202.37 367.65 203.28 366.02 202.28 361.48 197.92 368.79 202.37"/><polygon class="d" points="372.63 215.11 392.89 190.35 392.89 191.95 372.63 216.71 372.63 215.91 372.63 215.11"/><polygon class="d" points="372.63 214.31 372.63 213.51 392.89 188.75 392.89 190.35 372.63 215.11 372.63 214.31 372.63 214.31"/><polygon class="d" points="372.63 215.91 335.86 193.52 335.87 191.92 372.63 214.31 372.63 214.31 372.63 215.11 372.63 215.91 372.63 215.91"/><polygon class="d" points="366.02 202.28 367.65 203.28 367.32 203.53 366.02 202.28"/><polygon class="d" points="372.63 217.51 335.86 195.12 335.86 193.52 372.63 215.91 372.63 215.91 372.63 216.71 372.63 217.51"/><polygon class="d" points="372.63 206.31 372.63 207.11 372.63 207.91 335.87 185.52 335.86 183.92 366.02 202.28 367.32 203.53 367.65 203.28 372.63 206.31"/><polygon class="d" points="372.63 217.51 372.63 216.71 392.89 191.95 392.89 193.54 372.63 218.31 372.63 217.51"/><polygon class="d" points="372.63 219.11 335.87 196.72 335.86 195.12 372.63 217.51 372.63 218.31 372.63 219.11"/><polygon class="d" points="372.63 219.11 372.63 218.31 392.89 193.54 392.89 195.15 392.89 195.16 372.63 219.91 372.63 219.11"/><polygon class="d" points="372.63 220.72 335.87 198.32 335.87 196.72 372.63 219.11 372.63 219.91 372.63 220.72"/><polygon class="d" points="366.02 202.28 335.86 183.92 335.86 182.32 361.48 197.92 366.02 202.28"/><polygon class="d" points="392.89 196.75 372.63 221.51 372.63 220.72 372.63 219.91 392.89 195.16 392.89 196.75 392.89 196.75"/><polygon class="d" points="372.63 223.12 372.63 222.31 372.63 221.51 392.89 196.75 392.89 198.36 372.63 223.12"/><polygon class="d" points="349.36 163.42 338.89 176.21 336.29 173.71 349.36 163.42"/><polygon class="d" points="372.63 223.91 335.87 201.53 335.87 199.92 372.63 222.31 372.63 223.12 372.63 223.91"/><polygon class="d" points="372.63 224.71 372.63 223.91 372.63 223.12 392.89 198.36 392.89 199.95 372.63 224.71"/><polygon class="d" points="392.89 201.55 372.63 226.31 372.63 225.51 372.63 224.71 392.89 199.95 392.89 201.55"/><polygon class="d" points="372.63 225.51 335.87 203.13 335.87 201.53 372.63 223.91 372.63 224.71 372.63 225.51"/><polygon class="d" points="392.89 203.15 372.63 227.92 372.63 227.12 372.63 227.11 372.63 226.31 392.89 201.55 392.89 203.15"/><polygon class="d" points="372.63 227.11 335.87 204.73 335.86 204.73 335.87 203.13 372.63 225.51 372.63 226.31 372.63 227.11"/><polygon class="d" points="361.48 197.92 335.86 182.32 335.87 179.92 354.66 191.37 361.48 197.92"/><polygon class="d" points="372.63 229.51 372.63 228.72 372.63 227.92 392.89 203.15 392.89 204.75 372.63 229.51"/><polygon class="d" points="372.63 228.72 372.63 229.51 372.63 230.32 335.87 207.93 335.86 207.93 335.87 206.33 372.63 228.72"/><polygon class="d" points="372.63 230.32 372.63 229.51 392.89 204.75 392.89 206.35 392.89 206.35 372.63 231.12 372.63 230.32"/><polygon class="d" points="372.63 231.91 335.87 209.53 335.87 207.93 372.63 230.32 372.63 231.12 372.63 231.91"/><polygon class="d" points="372.63 231.12 392.89 206.35 392.89 207.95 392.89 207.95 372.63 232.72 372.63 231.91 372.63 231.12"/><polygon class="d" points="372.63 233.52 335.87 211.13 335.87 209.53 372.63 231.91 372.63 232.72 372.63 233.52"/><polygon class="d" points="392.89 209.55 372.63 234.31 372.63 233.52 372.63 232.72 392.89 207.95 392.89 209.55 392.89 209.55"/><polygon class="d" points="372.63 235.12 372.63 234.32 372.63 234.31 392.89 209.55 392.89 211.16 372.63 235.92 372.63 235.12"/><polygon class="d" points="372.63 235.92 392.89 211.16 392.89 212.75 372.63 237.52 372.63 236.72 372.63 235.92"/><polygon class="d" points="354.66 191.37 335.87 179.92 338.89 176.21 354.66 191.37"/><polygon class="d" points="372.63 238.32 372.63 237.52 392.89 212.75 392.89 214.36 372.63 239.12 372.63 238.32 372.63 238.32"/><polygon class="d" points="372.63 239.92 335.87 217.54 335.86 217.53 335.87 215.93 372.63 238.32 372.63 238.32 372.63 239.12 372.63 239.92"/><polygon class="d" points="372.63 239.92 372.63 239.12 392.89 214.36 392.89 217.55 372.63 242.32 372.63 239.92"/><polygon class="d" points="372.63 239.92 372.63 242.32 335.87 219.93 335.87 217.54 372.63 239.92"/><polygon class="d" points="372.63 211.91 372.63 212.71 335.87 190.32 335.87 188.72 372.63 211.11 372.63 211.91"/><polygon class="d" points="335.87 190.32 372.63 212.71 372.63 213.51 372.63 214.31 335.87 191.92 335.87 190.32"/><polygon class="d" points="335.87 198.32 372.63 220.72 372.63 221.51 372.63 222.31 335.87 199.92 335.87 198.32"/><polygon class="d" points="335.87 204.73 372.63 227.11 372.63 227.12 372.63 227.92 372.63 228.72 335.87 206.33 335.86 206.33 335.87 204.73"/><polygon class="d" points="335.87 211.13 372.63 233.52 372.63 234.31 372.63 234.32 372.63 235.12 335.87 212.73 335.87 211.13"/><polygon class="d" points="335.87 212.73 372.63 235.12 372.63 235.92 372.63 236.72 335.87 214.33 335.87 212.73"/><polygon class="d" points="372.63 238.32 335.87 215.93 335.87 214.33 372.63 236.72 372.63 237.52 372.63 238.32"/><polyline class="e" points="392.89 217.55 372.63 242.32 335.87 219.93"/><polyline class="e" points="374.1 166.1 392.89 177.54 389.86 181.25"/><polyline class="e" points="349.36 163.42 356.13 155.15 358.23 156.44"/><polyline class="e" points="354.66 191.37 335.87 179.92 338.89 176.21"/><polyline class="e" points="379.4 194.04 372.63 202.31 370.52 201.02"/><line class="i" x1="386.73" y1="188.27" x2="372.63" y2="205.51"/><line class="i" x1="392.89" y1="180.74" x2="391.32" y2="182.66"/><line class="i" x1="390.42" y1="185.37" x2="372.63" y2="207.11"/><line class="i" x1="392.89" y1="182.35" x2="392.06" y2="183.37"/><line class="i" x1="392.89" y1="183.95" x2="372.63" y2="208.71"/><line class="i" x1="392.89" y1="185.55" x2="372.63" y2="210.31"/><polyline class="i" points="392.9 187.15 392.89 187.15 372.63 211.91"/><line class="i" x1="392.89" y1="188.74" x2="372.63" y2="213.51"/><line class="i" x1="392.89" y1="190.35" x2="372.63" y2="215.11"/><line class="i" x1="392.89" y1="191.95" x2="372.63" y2="216.71"/><line class="i" x1="392.89" y1="193.54" x2="372.63" y2="218.31"/><line class="i" x1="392.89" y1="195.16" x2="372.63" y2="219.91"/><line class="i" x1="392.89" y1="196.75" x2="372.63" y2="221.51"/><polyline class="i" points="392.9 198.35 392.89 198.36 372.63 223.12"/><line class="i" x1="392.89" y1="199.95" x2="372.63" y2="224.71"/><line class="i" x1="392.89" y1="201.55" x2="372.63" y2="226.31"/><line class="i" x1="392.89" y1="203.15" x2="372.63" y2="227.92"/><line class="i" x1="392.89" y1="204.75" x2="372.63" y2="229.51"/><line class="i" x1="392.89" y1="206.36" x2="372.63" y2="231.12"/><line class="i" x1="392.89" y1="207.95" x2="372.63" y2="232.72"/><line class="i" x1="392.89" y1="209.55" x2="372.63" y2="234.31"/><polyline class="i" points="392.9 211.15 392.89 211.16 372.63 235.92"/><line class="i" x1="392.89" y1="212.75" x2="372.63" y2="237.52"/><line class="i" x1="392.89" y1="214.36" x2="372.63" y2="239.12"/><line class="i" x1="361.48" y1="197.92" x2="335.86" y2="182.32"/><line class="i" x1="372.63" y1="204.71" x2="368.79" y2="202.37"/><line class="i" x1="366.02" y1="202.28" x2="335.86" y2="183.92"/><line class="i" x1="372.63" y1="206.31" x2="367.65" y2="203.28"/><line class="i" x1="372.63" y1="207.91" x2="335.86" y2="185.52"/><line class="i" x1="372.63" y1="209.51" x2="335.86" y2="187.12"/><line class="i" x1="372.63" y1="211.11" x2="335.87" y2="188.72"/><line class="i" x1="372.63" y1="212.71" x2="335.87" y2="190.32"/><polyline class="i" points="372.63 214.31 335.87 191.92 335.86 191.92"/><line class="i" x1="372.63" y1="215.91" x2="335.86" y2="193.52"/><line class="i" x1="372.63" y1="217.51" x2="335.86" y2="195.12"/><line class="i" x1="372.63" y1="219.11" x2="335.86" y2="196.72"/><line class="i" x1="372.63" y1="220.71" x2="335.86" y2="198.32"/><line class="i" x1="372.63" y1="223.91" x2="335.87" y2="201.52"/><line class="i" x1="372.63" y1="222.31" x2="335.86" y2="199.92"/><polyline class="i" points="372.63 225.51 335.87 203.13 335.86 203.13"/><line class="i" x1="372.63" y1="227.11" x2="335.86" y2="204.73"/><line class="i" x1="372.63" y1="228.72" x2="335.86" y2="206.33"/><line class="i" x1="372.63" y1="230.32" x2="335.86" y2="207.93"/><line class="i" x1="372.63" y1="231.91" x2="335.86" y2="209.53"/><line class="i" x1="372.63" y1="233.52" x2="335.86" y2="211.13"/><line class="i" x1="372.63" y1="235.12" x2="335.87" y2="212.73"/><line class="i" x1="372.63" y1="236.72" x2="335.87" y2="214.33"/><polyline class="i" points="372.63 238.32 335.87 215.93 335.86 215.93"/><line class="i" x1="372.63" y1="239.92" x2="335.86" y2="217.54"/><polyline class="i" points="335.86 217.53 335.87 217.54 335.87 219.93"/><polyline class="e" points="335.87 206.33 335.86 207.93 335.87 207.93 335.87 209.53 335.87 211.13 335.87 212.73 335.87 214.33 335.87 215.93 335.86 217.53"/><line class="i" x1="335.86" y1="206.33" x2="335.86" y2="206.33"/><line class="e" x1="335.86" y1="204.73" x2="335.86" y2="206.33"/><line class="i" x1="335.86" y1="204.73" x2="335.86" y2="204.73"/><polyline class="e" points="335.87 179.92 335.86 182.32 335.86 183.92 335.87 185.52 335.87 187.12 335.87 188.72 335.87 190.32 335.87 191.92 335.86 193.52 335.86 195.12 335.87 196.72 335.87 198.32 335.87 199.92 335.87 201.53 335.87 203.13 335.86 204.73"/><polyline class="e" points="392.89 209.55 392.89 211.16 392.89 212.75 392.89 214.36 392.89 217.55"/><line class="i" x1="392.9" y1="209.55" x2="392.89" y2="209.55"/><line class="e" x1="392.89" y1="207.95" x2="392.9" y2="209.55"/><line class="i" x1="392.9" y1="207.95" x2="392.89" y2="207.95"/><polyline class="e" points="392.89 196.75 392.89 198.36 392.89 199.95 392.89 201.55 392.89 203.15 392.89 204.75 392.89 206.35 392.89 206.35 392.89 207.95"/><line class="i" x1="392.9" y1="196.75" x2="392.89" y2="196.75"/><polyline class="e" points="392.89 185.55 392.89 187.15 392.89 188.75 392.89 190.35 392.89 191.95 392.89 193.54 392.89 195.15 392.89 195.16 392.89 196.75"/><line class="i" x1="392.9" y1="185.54" x2="392.89" y2="185.55"/><line class="e" x1="392.89" y1="183.95" x2="392.9" y2="185.54"/><line class="i" x1="392.9" y1="183.94" x2="392.89" y2="183.95"/><line class="e" x1="392.89" y1="182.35" x2="392.9" y2="183.94"/><line class="i" x1="392.9" y1="182.34" x2="392.89" y2="182.35"/><polyline class="e" points="392.89 177.54 392.89 180.74 392.89 182.34"/><polyline class="e" points="372.63 238.32 372.63 239.12 372.63 239.92 372.63 242.32"/><line class="i" x1="372.63" y1="238.32" x2="372.63" y2="238.32"/><polyline class="e" points="372.63 234.32 372.63 235.12 372.63 235.92 372.63 236.72 372.63 237.52 372.63 238.32"/><line class="i" x1="372.63" y1="234.31" x2="372.63" y2="234.32"/><polyline class="e" points="372.63 227.12 372.63 227.92 372.63 228.72 372.63 229.51 372.63 230.32 372.63 231.12 372.63 231.91 372.63 232.72 372.63 233.52 372.63 234.31"/><line class="i" x1="372.63" y1="227.11" x2="372.63" y2="227.11"/><polyline class="e" points="372.63 214.31 372.63 215.11 372.63 215.91 372.63 216.71 372.63 217.51 372.63 218.31 372.63 219.11 372.63 219.91 372.63 220.72 372.63 221.51 372.63 222.31 372.63 223.12 372.63 223.91 372.63 224.71 372.63 225.51 372.63 226.31 372.63 227.11"/><line class="i" x1="372.63" y1="214.31" x2="372.63" y2="214.31"/><polyline class="e" points="372.63 202.31 372.63 204.71 372.63 205.51 372.63 206.31 372.63 207.11 372.63 207.91 372.63 208.71 372.63 209.51 372.63 210.31 372.63 211.11 372.63 211.91 372.63 212.71 372.63 213.51 372.63 214.31"/><polygon class="e" points="392.06 183.37 392.47 183.76 390.42 185.37 386.73 188.27 379.4 194.04 370.52 201.02 368.79 202.37 367.65 203.28 367.32 203.53 366.02 202.28 361.48 197.92 354.66 191.37 338.89 176.21 336.29 173.71 349.36 163.42 358.23 156.44 361.44 153.92 374.1 166.1 389.86 181.25 391.32 182.66 392.06 183.37"/><polygon class="d" points="327.72 193.93 346.51 205.37 343.48 209.07 327.72 193.93"/><polygon class="d" points="346.51 205.37 346.51 208.57 344.94 210.48 343.48 209.07 346.51 205.37"/><polygon class="d" points="345.68 211.19 346.09 211.59 344.04 213.2 345.68 211.19"/><polygon class="d" points="344.94 210.48 345.68 211.19 344.04 213.2 340.35 216.09 344.94 210.48"/><polygon class="d" points="344.94 210.48 340.35 216.09 333.02 221.87 343.48 209.07 344.94 210.48"/><polygon class="d" points="343.48 209.07 333.02 221.87 324.13 228.85 308.28 219.19 292.51 204.04 302.98 191.25 311.85 184.27 327.72 193.93 343.48 209.07"/><polygon class="d" points="315.05 181.75 327.72 193.93 311.85 184.27 315.05 181.75"/><polygon class="d" points="333.02 221.87 326.25 230.14 324.13 228.85 333.02 221.87"/><polygon class="d" points="309.74 182.98 311.85 184.27 302.98 191.25 309.74 182.98"/><polygon class="d" points="324.13 228.85 326.25 230.14 326.25 232.54 322.41 230.2 324.13 228.85"/><polygon class="d" points="326.25 233.33 326.25 232.54 326.25 230.14 333.02 221.87 340.35 216.09 326.25 233.33"/><polygon class="d" points="326.25 232.54 326.25 233.33 326.25 234.14 321.27 231.11 322.41 230.2 326.25 232.54"/><polygon class="d" points="326.25 234.94 326.25 234.14 326.25 233.33 340.35 216.09 344.04 213.2 326.25 234.94"/><polygon class="d" points="308.28 219.19 324.13 228.85 322.41 230.2 315.1 225.75 308.28 219.19"/><polygon class="d" points="326.25 236.54 326.25 235.74 326.25 234.94 344.04 213.2 346.09 211.59 345.68 211.19 346.51 210.18 346.51 211.77 346.51 211.78 326.25 236.54"/><polygon class="d" points="326.25 235.74 326.25 236.54 326.25 237.34 289.48 214.95 289.48 213.35 326.25 235.74"/><polygon class="d" points="326.25 238.14 326.25 237.34 326.25 236.54 346.51 211.78 346.51 213.37 346.51 213.38 326.25 238.14"/><polygon class="d" points="326.25 238.94 289.49 216.55 289.48 214.95 326.25 237.34 326.25 238.14 326.25 238.94"/><polygon class="d" points="326.25 238.94 326.25 238.14 346.51 213.38 346.51 214.98 326.25 239.74 326.25 238.94"/><polygon class="d" points="326.25 239.74 346.51 214.98 346.51 216.57 326.25 241.34 326.25 240.54 326.25 239.74"/><polygon class="d" points="322.41 230.2 321.27 231.11 319.64 230.11 315.1 225.75 322.41 230.2"/><polygon class="d" points="326.25 242.94 346.51 218.18 346.51 219.78 326.25 244.54 326.25 243.74 326.25 242.94"/><polygon class="d" points="346.51 218.18 326.25 242.94 326.25 242.14 326.25 242.14 326.25 241.34 346.51 216.57 346.51 218.18"/><polygon class="d" points="326.25 243.74 289.48 221.35 289.49 219.75 326.25 242.14 326.25 242.14 326.25 242.94 326.25 243.74 326.25 243.74"/><polygon class="d" points="319.64 230.11 321.27 231.11 320.94 231.36 319.64 230.11"/><polygon class="d" points="326.25 245.34 289.48 222.95 289.48 221.35 326.25 243.74 326.25 243.74 326.25 244.54 326.25 245.34"/><polygon class="d" points="326.25 234.14 326.25 234.94 326.25 235.74 289.48 213.35 289.48 211.75 319.64 230.11 320.94 231.36 321.27 231.11 326.25 234.14"/><polygon class="d" points="326.25 245.34 326.25 244.54 346.51 219.78 346.51 221.37 326.25 246.14 326.25 245.34"/><polygon class="d" points="326.25 246.94 289.48 224.55 289.48 222.95 326.25 245.34 326.25 246.14 326.25 246.94"/><polygon class="d" points="326.25 247.74 326.25 246.94 326.25 246.14 346.51 221.37 346.51 222.98 346.51 222.98 326.25 247.74"/><polygon class="d" points="326.25 248.54 289.48 226.15 289.48 224.55 326.25 246.94 326.25 247.74 326.25 248.54"/><polygon class="d" points="319.64 230.11 289.48 211.75 289.48 210.15 315.1 225.75 319.64 230.11"/><polygon class="d" points="346.51 224.58 326.25 249.34 326.25 248.54 326.25 247.74 346.51 222.98 346.51 224.57 346.51 224.58"/><polygon class="d" points="326.25 250.14 326.25 249.34 346.51 224.58 346.51 226.19 326.25 250.94 326.25 250.14"/><polygon class="d" points="302.98 191.25 292.51 204.04 289.9 201.53 302.98 191.25"/><polygon class="d" points="326.25 251.74 289.49 229.35 289.48 227.75 326.25 250.14 326.25 250.94 326.25 251.74"/><polygon class="d" points="326.25 252.54 326.25 251.74 326.25 250.94 346.51 226.19 346.51 227.78 326.25 252.54"/><polygon class="d" points="326.25 252.54 346.51 227.78 346.51 229.38 326.25 254.14 326.25 253.34 326.25 252.54"/><polygon class="d" points="326.25 251.74 326.25 252.54 326.25 253.34 289.49 230.96 289.49 229.35 326.25 251.74"/><polygon class="d" points="346.51 230.98 326.25 255.74 326.25 254.94 326.25 254.94 326.25 254.14 346.51 229.38 346.51 230.98"/><polygon class="d" points="326.25 254.94 289.48 232.56 289.48 232.56 289.49 230.96 326.25 253.34 326.25 254.14 326.25 254.94"/><polygon class="d" points="315.1 225.75 289.48 210.15 289.48 207.75 308.28 219.19 315.1 225.75"/><polygon class="d" points="326.25 255.74 346.51 230.98 346.51 232.58 326.25 257.34 326.25 256.55 326.25 255.74"/><polygon class="d" points="326.25 258.14 289.48 235.76 289.48 235.75 289.48 234.16 326.25 256.55 326.25 257.34 326.25 258.14"/><polygon class="d" points="326.25 258.14 326.25 257.34 346.51 232.58 346.51 234.18 346.51 234.18 326.25 258.95 326.25 258.14"/><polygon class="d" points="326.25 259.74 289.48 237.36 289.48 235.76 326.25 258.14 326.25 258.95 326.25 259.74"/><polygon class="d" points="326.25 258.95 346.51 234.18 346.51 235.78 346.51 235.78 326.25 260.54 326.25 259.74 326.25 258.95"/><polygon class="d" points="326.25 261.35 289.48 238.96 289.48 237.36 326.25 259.74 326.25 260.54 326.25 261.35"/><polygon class="d" points="346.51 237.38 326.25 262.14 326.25 261.35 326.25 260.54 346.51 235.78 346.51 237.38 346.51 237.38"/><polygon class="d" points="346.51 238.99 326.25 263.75 326.25 262.94 326.25 262.14 326.25 262.14 346.51 237.38 346.51 238.99"/><polygon class="d" points="326.25 263.75 346.51 238.99 346.51 240.58 326.25 265.35 326.25 264.55 326.25 263.75"/><polygon class="d" points="308.28 219.19 289.48 207.75 292.51 204.04 308.28 219.19"/><polygon class="d" points="326.25 266.15 326.25 265.35 346.51 240.58 346.51 242.19 326.25 266.95 326.25 266.15 326.25 266.15"/><polygon class="d" points="326.25 267.75 289.48 245.37 289.48 245.36 289.49 243.76 326.25 266.15 326.25 266.15 326.25 266.95 326.25 267.75"/><polygon class="d" points="326.25 267.75 326.25 266.95 346.51 242.19 346.51 245.38 326.25 270.15 326.25 267.75"/><polygon class="d" points="326.25 267.75 326.25 270.15 289.49 247.76 289.48 245.37 326.25 267.75"/><polygon class="d" points="289.49 216.55 326.25 238.94 326.25 239.74 326.25 240.54 289.49 218.15 289.49 216.55"/><polygon class="d" points="326.25 242.14 289.49 219.75 289.49 218.15 326.25 240.54 326.25 241.34 326.25 242.14"/><polygon class="d" points="289.48 226.15 326.25 248.54 326.25 249.34 326.25 250.14 289.48 227.75 289.48 226.15"/><polygon class="d" points="326.25 256.55 289.48 234.16 289.48 234.16 289.48 232.56 326.25 254.94 326.25 254.94 326.25 255.74 326.25 256.55"/><polygon class="d" points="289.49 240.56 289.48 238.96 326.25 261.35 326.25 262.14 326.25 262.14 326.25 262.94 289.49 240.56"/><polygon class="d" points="289.49 242.16 289.49 240.56 326.25 262.94 326.25 263.75 326.25 264.55 289.49 242.16"/><polygon class="d" points="326.25 266.15 289.49 243.76 289.49 242.16 326.25 264.55 326.25 265.35 326.25 266.15"/><polyline class="e" points="346.51 245.38 326.25 270.15 289.49 247.76"/><polyline class="e" points="327.72 193.93 346.51 205.37 343.48 209.07"/><polyline class="e" points="302.98 191.25 309.74 182.98 311.85 184.27"/><polyline class="e" points="308.28 219.19 289.48 207.75 292.51 204.04"/><polyline class="e" points="333.02 221.87 326.25 230.14 324.13 228.85"/><line class="i" x1="340.35" y1="216.1" x2="326.25" y2="233.33"/><line class="i" x1="346.51" y1="208.57" x2="344.94" y2="210.48"/><line class="i" x1="344.04" y1="213.2" x2="326.25" y2="234.94"/><line class="i" x1="346.51" y1="210.18" x2="345.68" y2="211.19"/><line class="i" x1="346.51" y1="211.78" x2="326.25" y2="236.54"/><line class="i" x1="346.51" y1="213.38" x2="326.25" y2="238.14"/><polyline class="i" points="346.52 214.97 346.51 214.98 326.25 239.74"/><line class="i" x1="346.51" y1="216.57" x2="326.25" y2="241.34"/><line class="i" x1="346.51" y1="218.18" x2="326.25" y2="242.94"/><line class="i" x1="346.51" y1="219.78" x2="326.25" y2="244.54"/><line class="i" x1="346.51" y1="221.37" x2="326.25" y2="246.14"/><line class="i" x1="346.51" y1="222.98" x2="326.25" y2="247.74"/><line class="i" x1="346.51" y1="224.58" x2="326.25" y2="249.34"/><polyline class="i" points="346.52 226.18 346.51 226.19 326.25 250.94"/><line class="i" x1="346.51" y1="227.78" x2="326.25" y2="252.54"/><line class="i" x1="346.51" y1="229.38" x2="326.25" y2="254.14"/><line class="i" x1="346.51" y1="230.98" x2="326.25" y2="255.74"/><line class="i" x1="346.51" y1="232.58" x2="326.25" y2="257.34"/><line class="i" x1="346.51" y1="234.18" x2="326.25" y2="258.95"/><line class="i" x1="346.51" y1="235.78" x2="326.25" y2="260.54"/><line class="i" x1="346.51" y1="237.38" x2="326.25" y2="262.14"/><polyline class="i" points="346.52 238.98 346.51 238.99 326.25 263.75"/><line class="i" x1="346.51" y1="240.58" x2="326.25" y2="265.35"/><line class="i" x1="346.51" y1="242.19" x2="326.25" y2="266.95"/><line class="e" x1="315.1" y1="225.75" x2="289.48" y2="210.15"/><line class="i" x1="326.25" y1="232.54" x2="322.41" y2="230.2"/><line class="i" x1="319.64" y1="230.11" x2="289.48" y2="211.75"/><line class="i" x1="326.25" y1="234.14" x2="321.27" y2="231.11"/><line class="i" x1="326.25" y1="235.74" x2="289.48" y2="213.35"/><line class="i" x1="326.25" y1="237.34" x2="289.48" y2="214.95"/><line class="i" x1="326.25" y1="238.94" x2="289.49" y2="216.55"/><line class="i" x1="326.25" y1="240.54" x2="289.49" y2="218.15"/><polyline class="i" points="326.25 242.14 289.49 219.75 289.48 219.75"/><line class="i" x1="326.25" y1="243.74" x2="289.48" y2="221.35"/><line class="i" x1="326.25" y1="245.34" x2="289.48" y2="222.95"/><line class="i" x1="326.25" y1="246.94" x2="289.48" y2="224.55"/><line class="i" x1="326.25" y1="248.54" x2="289.48" y2="226.15"/><line class="i" x1="326.25" y1="251.74" x2="289.49" y2="229.35"/><line class="i" x1="326.25" y1="250.14" x2="289.48" y2="227.75"/><polyline class="i" points="326.25 253.34 289.49 230.96 289.48 230.95"/><line class="i" x1="326.25" y1="254.94" x2="289.48" y2="232.56"/><line class="i" x1="326.25" y1="256.55" x2="289.48" y2="234.16"/><line class="i" x1="326.25" y1="258.15" x2="289.48" y2="235.76"/><line class="i" x1="326.25" y1="259.74" x2="289.48" y2="237.36"/><line class="i" x1="326.25" y1="261.35" x2="289.48" y2="238.96"/><line class="i" x1="326.25" y1="262.95" x2="289.49" y2="240.56"/><line class="i" x1="326.25" y1="264.55" x2="289.49" y2="242.16"/><polyline class="i" points="326.25 266.15 289.49 243.76 289.48 243.76"/><line class="i" x1="326.25" y1="267.75" x2="289.48" y2="245.37"/><polyline class="i" points="289.48 245.36 289.48 245.37 289.49 247.76"/><polyline class="e" points="289.48 234.16 289.48 235.75 289.48 235.76 289.48 237.36 289.48 238.96 289.49 240.56 289.49 242.16 289.49 243.76 289.48 245.36"/><line class="i" x1="289.48" y1="234.16" x2="289.48" y2="234.16"/><line class="e" x1="289.48" y1="232.56" x2="289.48" y2="234.16"/><line class="i" x1="289.48" y1="232.56" x2="289.48" y2="232.56"/><polyline class="e" points="289.48 207.75 289.48 210.15 289.48 211.75 289.48 213.35 289.48 214.95 289.49 216.55 289.49 218.15 289.49 219.75 289.48 221.35 289.48 222.95 289.48 224.55 289.48 226.15 289.48 227.75 289.49 229.35 289.49 230.96 289.48 232.56"/><polyline class="e" points="346.51 237.38 346.51 238.99 346.51 240.58 346.51 242.19 346.51 245.38"/><line class="i" x1="346.51" y1="237.38" x2="346.51" y2="237.38"/><line class="e" x1="346.51" y1="235.78" x2="346.51" y2="237.38"/><line class="i" x1="346.51" y1="235.78" x2="346.51" y2="235.78"/><polyline class="e" points="346.51 224.58 346.51 226.19 346.51 227.78 346.51 229.38 346.51 230.98 346.51 232.58 346.51 234.18 346.51 234.18 346.51 235.78"/><line class="i" x1="346.51" y1="224.57" x2="346.51" y2="224.58"/><polyline class="e" points="346.51 213.38 346.51 214.98 346.51 216.57 346.51 218.18 346.51 219.78 346.51 221.37 346.51 222.98 346.51 222.98 346.51 224.57"/><line class="i" x1="346.51" y1="213.37" x2="346.51" y2="213.38"/><line class="e" x1="346.51" y1="211.78" x2="346.51" y2="213.37"/><line class="i" x1="346.51" y1="211.77" x2="346.51" y2="211.78"/><line class="e" x1="346.51" y1="210.18" x2="346.51" y2="211.77"/><line class="i" x1="346.51" y1="210.17" x2="346.51" y2="210.18"/><polyline class="e" points="346.51 205.37 346.51 208.57 346.51 210.17"/><polyline class="e" points="326.25 262.14 326.25 262.94 326.25 263.75 326.25 264.55 326.25 265.35 326.25 266.15 326.25 266.15 326.25 266.95 326.25 267.75 326.25 270.15"/><line class="i" x1="326.25" y1="262.14" x2="326.25" y2="262.14"/><polyline class="e" points="326.25 230.14 326.25 232.54 326.25 233.33 326.25 234.14 326.25 234.94 326.25 235.74 326.25 236.54 326.25 237.34 326.25 238.14 326.25 238.94 326.25 239.74 326.25 240.54 326.25 241.34 326.25 242.14 326.25 242.14 326.25 242.94 326.25 243.74 326.25 244.54 326.25 245.34 326.25 246.14 326.25 246.94 326.25 247.74 326.25 248.54 326.25 249.34 326.25 250.14 326.25 250.94 326.25 251.74 326.25 252.54 326.25 253.34 326.25 254.14 326.25 254.94 326.25 254.94 326.25 255.74 326.25 256.55 326.25 257.34 326.25 258.14 326.25 258.95 326.25 259.74 326.25 260.54 326.25 261.35 326.25 262.14"/><polygon class="e" points="345.68 211.19 346.09 211.59 344.04 213.2 340.35 216.09 333.02 221.87 324.13 228.85 322.41 230.2 321.27 231.11 320.94 231.36 319.64 230.11 315.1 225.75 308.28 219.19 292.51 204.04 289.9 201.53 302.98 191.25 311.85 184.27 315.05 181.75 327.72 193.93 343.48 209.07 344.94 210.48 345.68 211.19"/></svg>